{
.appVersion = "1352";
DisplayStrings = (
"/grVa/grVa/grVa/grVa/grNYA"
);
classes = (
{
automatic = 1;
code = "A A.alt Aacute Aacute.alt Abreve Abreve.alt Acircumflex Acircumflex.alt Acircumflexhookabove Acircumflexhookabove.alt Adieresis Adieresis.alt Agrave Agrave.alt Amacron Amacron.alt Aogonek Aogonek.alt Aring Aring.alt Atilde Atilde.alt AE B C Cacute Ccaron Ccedilla Cdotaccent D Eth Dcaron Dcroat E Eacute Ecaron Ecircumflex Edieresis Edotaccent Egrave Emacron Eogonek F G G.alt Gbreve Gbreve.alt Gcommaaccent Gcommaaccent.alt Gdotaccent Gdotaccent.alt H Hbar I Iacute Icircumflex Idieresis Idotaccent Igrave Imacron Iogonek J K Kcommaaccent L Lacute Lcaron Lcommaaccent Ldot Lslash M N Nacute Ncaron Ncommaaccent Eng Ntilde O Oacute Ocircumflex Odieresis Ograve Ohungarumlaut Omacron Oslash Otilde OE P Thorn Q Q.swsh R R.swsh Racute Racute.swsh Rcaron Rcaron.swsh Rcommaaccent Rcommaaccent.swsh S Sacute Scaron Scedilla Scommaaccent Germandbls T Tbar Tcaron Tcedilla Tcommaaccent U Uacute Ucircumflex Udieresis Ugrave Uhungarumlaut Umacron Uogonek Uring V W Wacute Wcircumflex Wdieresis Wgrave X Y Yacute Ycircumflex Ydieresis Ygrave Z Zacute Zcaron Zdotaccent W.bold Delta Omega";
name = Uppercase;
}
);
copyright = "Copyright 2017 The BhuTuka Expanded One Project Authors (https://github.com/erinmclaughlin/BhuTuka-Extended-One)";
customParameters = (
{
name = "Use Typo Metrics";
value = 1;
},
{
name = license;
value = "This Font Software is licensed under the SIL Open Font License, Version 1.1. This license is available with a FAQ at: http://scripts.sil.org/OFL";
},
{
name = licenseURL;
value = "http://scripts.sil.org/OFL";
},
{
name = fsType;
value = (
);
}
);
date = "2021-12-02 11:21:14 +0000";
designer = "Erin McLaughlin";
designerURL = erinmclaughlin.com;
disablesNiceNames = 1;
familyName = "BhuTuka Expanded One";
featurePrefixes = (
{

glyphs = (
{
glyphname = A;
layers = (
{
anchors = (
{
name = bottom;
position = "{515, 165}";
},
{
name = hook;
position = "{605, 751}";
},
{
name = ogonek;
position = "{1033, 165}";
},
{
name = top;
position = "{513, 686}";
}
);
layerId = "8D1DA624-BCA2-432D-8EAC-BD2525041625";
paths = (
{
closed = 1;
nodes = (
"516 502 LINE",
"512 502 LINE",
"849 12 LINE",
"878 12 LINE",
"533 510 LINE SMOOTH",
"495 510 LINE",
"150 12 LINE",
"180 12 LINE"
);
},
{
closed = 1;
nodes = (
"335 22 LINE",
"-5 22 LINE",
"-5 -1 LINE",
"335 -1 LINE"
);
},
{
closed = 1;
nodes = (
"717 221 LINE",
"309 221 LINE",
"291 199 LINE",
"733 199 LINE"
);
},
{
closed = 1;
nodes = (
"1033 22 LINE",
"693 22 LINE",
"693 -1 LINE",
"1033 -1 LINE"
);
},
{
closed = 1;
nodes = (
"702 520 LINE",
"325 520 LINE",
"325 497 LINE",
"702 497 LINE"
);
}
);
userData = {
com.typemytype.robofont.layerData = {
bkgd = {
anchors = (
);
components = (
);
contours = (
);
lib = {
};
name = A;
unicodes = (
);
width = 1028;
};
mask = {
anchors = (
);
components = (
);
contours = (
);
lib = {
};
name = A;
unicodes = (
);
width = 1028;
};
};
};
width = 1028;
}
);
unicode = 0041;
},
{
glyphname = Aacute;
layers = (
{
anchors = (
{
name = bottom;
position = "{515, 165}";
},
{
name = hook;
position = "{605, 751}";
},
{
name = ogonek;
position = "{1033, 165}";
},
{
name = top;
position = "{513, 686}";
}
);
layerId = "8D1DA624-BCA2-432D-8EAC-BD2525041625";
paths = (
{
closed = 1;
nodes = (
"516 502 LINE",
"512 502 LINE",
"849 12 LINE",
"878 12 LINE",
"533 510 LINE SMOOTH",
"495 510 LINE",
"150 12 LINE",
"180 12 LINE"
);
},
{
closed = 1;
nodes = (
"335 22 LINE",
"-5 22 LINE",
"-5 -1 LINE",
"335 -1 LINE"
);
},
{
closed = 1;
nodes = (
"717 221 LINE",
"309 221 LINE",
"291 199 LINE",
"733 199 LINE"
);
},
{
closed = 1;
nodes = (
"1033 22 LINE",
"693 22 LINE",
"693 -1 LINE",
"1033 -1 LINE"
);
},
{
closed = 1;
nodes = (
"702 520 LINE",
"325 520 LINE",
"325 497 LINE",
"702 497 LINE"
);
},
{
closed = 1;
nodes = (
"695 715 LINE",
"454 585 LINE",
"445 601 LINE",
"680 742 LINE"
);
}
);
userData = {
com.typemytype.robofont.layerData = {
bkgd = {
anchors = (
);
components = (
);
contours = (
);
lib = {
};
name = Aacute;
unicodes = (
);
width = 1028;
};
mask = {
anchors = (
);
components = (
);
contours = (
);
lib = {
};
name = Aacute;
unicodes = (
);
width = 1028;
};
};
};
width = 1028;
}
);
unicode = 00C1;
},
{
glyphname = Abreve;
layers = (
{
anchors = (
{
name = bottom;
position = "{515, 165}";
},
{
name = hook;
position = "{605, 751}";
},
{
name = ogonek;
position = "{1033, 165}";
},
{
name = top;
position = "{513, 686}";
}
);
layerId = "8D1DA624-BCA2-432D-8EAC-BD2525041625";
paths = (
{
closed = 1;
nodes = (
"516 502 LINE",
"512 502 LINE",
"849 12 LINE",
"878 12 LINE",
"533 510 LINE SMOOTH",
"495 510 LINE",
"150 12 LINE",
"180 12 LINE"
);
},
{
closed = 1;
nodes = (
"335 22 LINE",
"-5 22 LINE",
"-5 -1 LINE",
"335 -1 LINE"
);
},
{
closed = 1;
nodes = (
"717 221 LINE",
"309 221 LINE",
"291 199 LINE",
"733 199 LINE"
);
},
{
closed = 1;
nodes = (
"1033 22 LINE",
"693 22 LINE",
"693 -1 LINE",
"1033 -1 LINE"
);
},
{
closed = 1;
nodes = (
"702 520 LINE",
"325 520 LINE",
"325 497 LINE",
"702 497 LINE"
);
},
{
closed = 1;
nodes = (
"671 680 OFFCURVE",
"686 750 CURVE",
"667 756 LINE",
"646 685 OFFCURVE",
"587 632 OFFCURVE",
"514 632 CURVE",
"441 632 OFFCURVE",
"379 685 OFFCURVE",
"359 756 CURVE",
"339 750 LINE",
"354 680 OFFCURVE",
"416 609 OFFCURVE",
"513 609 CURVE",
"610 609 OFFCURVE"
);
}
);
userData = {
com.typemytype.robofont.layerData = {
bkgd = {
anchors = (
);
components = (
);
contours = (
);
lib = {
};
name = Abreve;
unicodes = (
);
width = 1028;
};
mask = {
anchors = (
);
components = (
);
contours = (
);
lib = {
};
name = Abreve;
unicodes = (
);
width = 1028;
};
};
};
width = 1028;
}
);
unicode = 0102;
},
{
glyphname = Acircumflex;
layers = (
{
anchors = (
{
name = bottom;
position = "{515, 165}";
},
{
name = hook;
position = "{605, 751}";
},
{
name = ogonek;
position = "{1033, 165}";
},
{
name = top;
position = "{513, 686}";
}
);
layerId = "8D1DA624-BCA2-432D-8EAC-BD2525041625";
paths = (
{
closed = 1;
nodes = (
"516 502 LINE",
"512 502 LINE",
"849 12 LINE",
"878 12 LINE",
"533 510 LINE SMOOTH",
"495 510 LINE",
"150 12 LINE",
"180 12 LINE"
);
},
{
closed = 1;
nodes = (
"335 22 LINE",
"-5 22 LINE",
"-5 -1 LINE",
"335 -1 LINE"
);
},
{
closed = 1;
nodes = (
"717 221 LINE",
"309 221 LINE",
"291 199 LINE",
"733 199 LINE"
);
},
{
closed = 1;
nodes = (
"1033 22 LINE",
"693 22 LINE",
"693 -1 LINE",
"1033 -1 LINE"
);
},
{
closed = 1;
nodes = (
"702 520 LINE",
"325 520 LINE",
"325 497 LINE",
"702 497 LINE"
);
},
{
closed = 1;
nodes = (
"680 572 LINE",
"691 585 LINE",
"523 727 LINE",
"503 727 LINE",
"336 585 LINE",
"347 572 LINE",
"513 700 LINE"
);
}
);
userData = {
com.typemytype.robofont.layerData = {
bkgd = {
anchors = (
);
components = (
);
contours = (
);
lib = {
};
name = Acircumflex;
unicodes = (
);
width = 1028;
};
mask = {
anchors = (
);
components = (
);
contours = (
);
lib = {
};
name = Acircumflex;
unicodes = (
);
width = 1028;
};
};
};
width = 1028;
}
);
unicode = 00C2;
},
{
glyphname = Acircumflexhookabove;
layers = (
{
anchors = (
{
name = bottom;
position = "{515, 165}";
},
{
name = hook;
position = "{605, 751}";
},
{
name = ogonek;
position = "{1033, 165}";
},
{
name = top;
position = "{513, 686}";
}
);
layerId = "8D1DA624-BCA2-432D-8EAC-BD2525041625";
paths = (
{
closed = 1;
nodes = (
"516 502 LINE",
"512 502 LINE",
"849 12 LINE",
"878 12 LINE",
"533 510 LINE SMOOTH",
"495 510 LINE",
"150 12 LINE",
"180 12 LINE"
);
},
{
closed = 1;
nodes = (
"335 22 LINE",
"-5 22 LINE",
"-5 -1 LINE",
"335 -1 LINE"
);
},
{
closed = 1;
nodes = (
"717 221 LINE",
"309 221 LINE",
"291 199 LINE",
"733 199 LINE"
);
},
{
closed = 1;
nodes = (
"1033 22 LINE",
"693 22 LINE",
"693 -1 LINE",
"1033 -1 LINE"
);
},
{
closed = 1;
nodes = (
"702 520 LINE",
"325 520 LINE",
"325 497 LINE",
"702 497 LINE"
);
},
{
closed = 1;
nodes = (
"680 572 LINE",
"691 585 LINE",
"523 727 LINE",
"503 727 LINE",
"336 585 LINE",
"347 572 LINE",
"513 700 LINE"
);
},
{
closed = 1;
nodes = (
"713 704 OFFCURVE",
"736 732 OFFCURVE",
"736 769 CURVE SMOOTH",
"736 814 OFFCURVE",
"695 844 OFFCURVE",
"635 844 CURVE SMOOTH",
"585 844 OFFCURVE",
"546 824 OFFCURVE",
"518 804 CURVE",
"530 787 LINE",
"558 803 OFFCURVE",
"592 821 OFFCURVE",
"635 821 CURVE SMOOTH",
"682 821 OFFCURVE",
"711 798 OFFCURVE",
"711 766 CURVE SMOOTH",
"711 732 OFFCURVE",
"687 708 OFFCURVE",
"670 681 CURVE",
"680 672 LINE"
);
}
);
userData = {
com.typemytype.robofont.layerData = {
bkgd = {
anchors = (
);
components = (
);
contours = (
);
lib = {
};
name = Acircumflexhookabove;
unicodes = (
);
width = 1028;
};
mask = {
anchors = (
);
components = (
);
contours = (
);
lib = {
};
name = Acircumflexhookabove;
unicodes = (
);
width = 1028;
};
};
};
width = 1028;
}
);
},
{
glyphname = Adieresis;
layers = (
{
anchors = (
{
name = bottom;
position = "{515, 165}";
},
{
name = hook;
position = "{605, 751}";
},
{
name = ogonek;
position = "{1033, 165}";
},
{
name = top;
position = "{513, 686}";
}
);
layerId = "8D1DA624-BCA2-432D-8EAC-BD2525041625";
paths = (
{
closed = 1;
nodes = (
"516 502 LINE",
"512 502 LINE",
"849 12 LINE",
"878 12 LINE",
"533 510 LINE SMOOTH",
"495 510 LINE",
"150 12 LINE",
"180 12 LINE"
);
},
{
closed = 1;
nodes = (
"335 22 LINE",
"-5 22 LINE",
"-5 -1 LINE",
"335 -1 LINE"
);
},
{
closed = 1;
nodes = (
"717 221 LINE",
"309 221 LINE",
"291 199 LINE",
"733 199 LINE"
);
},
{
closed = 1;
nodes = (
"1033 22 LINE",
"693 22 LINE",
"693 -1 LINE",
"1033 -1 LINE"
);
},
{
closed = 1;
nodes = (
"702 520 LINE",
"325 520 LINE",
"325 497 LINE",
"702 497 LINE"
);
},
{
closed = 1;
nodes = (
"665 648 OFFCURVE",
"665 664 CURVE",
"665 681 OFFCURVE",
"650 693 OFFCURVE",
"620 693 CURVE",
"593 693 OFFCURVE",
"575 681 OFFCURVE",
"575 664 CURVE",
"575 648 OFFCURVE",
"593 635 OFFCURVE",
"620 635 CURVE",
"650 635 OFFCURVE"
);
},
{
closed = 1;
nodes = (
"443 648 OFFCURVE",
"443 664 CURVE",
"443 681 OFFCURVE",
"427 693 OFFCURVE",
"398 693 CURVE",
"369 693 OFFCURVE",
"353 681 OFFCURVE",
"353 664 CURVE",
"353 648 OFFCURVE",
"369 635 OFFCURVE",
"398 635 CURVE",
"427 635 OFFCURVE"
);
}
);
userData = {
com.typemytype.robofont.layerData = {
bkgd = {
anchors = (
);
components = (
);
contours = (
);
lib = {
};
name = Adieresis;
unicodes = (
);
width = 1028;
};
mask = {
anchors = (
);
components = (
);
contours = (
);
lib = {
};
name = Adieresis;
unicodes = (
);
width = 1028;
};
};
};
width = 1028;
}
);
unicode = 00C4;
},
{
glyphname = Agrave;
layers = (
{
anchors = (
{
name = bottom;
position = "{515, 165}";
},
{
name = hook;
position = "{605, 751}";
},
{
name = ogonek;
position = "{1033, 165}";
},
{
name = top;
position = "{513, 686}";
}
);
layerId = "8D1DA624-BCA2-432D-8EAC-BD2525041625";
paths = (
{
closed = 1;
nodes = (
"516 502 LINE",
"512 502 LINE",
"849 12 LINE",
"878 12 LINE",
"533 510 LINE SMOOTH",
"495 510 LINE",
"150 12 LINE",
"180 12 LINE"
);
},
{
closed = 1;
nodes = (
"335 22 LINE",
"-5 22 LINE",
"-5 -1 LINE",
"335 -1 LINE"
);
},
{
closed = 1;
nodes = (
"717 221 LINE",
"309 221 LINE",
"291 199 LINE",
"733 199 LINE"
);
},
{
closed = 1;
nodes = (
"1033 22 LINE",
"693 22 LINE",
"693 -1 LINE",
"1033 -1 LINE"
);
},
{
closed = 1;
nodes = (
"702 520 LINE",
"325 520 LINE",
"325 497 LINE",
"702 497 LINE"
);
},
{
closed = 1;
nodes = (
"331 715 LINE",
"346 742 LINE",
"581 601 LINE",
"572 585 LINE"
);
}
);
userData = {
com.typemytype.robofont.layerData = {
bkgd = {
anchors = (
);
components = (
);
contours = (
);
lib = {
};
name = Agrave;
unicodes = (
);
width = 1028;
};
mask = {
anchors = (
);
components = (
);
contours = (
);
lib = {
};
name = Agrave;
unicodes = (
);
width = 1028;
};
};
};
width = 1028;
}
);
unicode = 00C0;
},
{
glyphname = Amacron;
layers = (
{
anchors = (
{
name = bottom;
position = "{515, 165}";
},
{
name = hook;
position = "{605, 751}";
},
{
name = ogonek;
position = "{1033, 165}";
},
{
name = top;
position = "{513, 686}";
}
);
layerId = "8D1DA624-BCA2-432D-8EAC-BD2525041625";
paths = (
{
closed = 1;
nodes = (
"516 502 LINE",
"512 502 LINE",
"849 12 LINE",
"878 12 LINE",
"533 510 LINE SMOOTH",
"495 510 LINE",
"150 12 LINE",
"180 12 LINE"
);
},
{
closed = 1;
nodes = (
"335 22 LINE",
"-5 22 LINE",
"-5 -1 LINE",
"335 -1 LINE"
);
},
{
closed = 1;
nodes = (
"717 221 LINE",
"309 221 LINE",
"291 199 LINE",
"733 199 LINE"
);
},
{
closed = 1;
nodes = (
"1033 22 LINE",
"693 22 LINE",
"693 -1 LINE",
"1033 -1 LINE"
);
},
{
closed = 1;
nodes = (
"702 520 LINE",
"325 520 LINE",
"325 497 LINE",
"702 497 LINE"
);
},
{
closed = 1;
nodes = (
"268 654 LINE",
"747 654 LINE",
"747 677 LINE",
"268 677 LINE"
);
}
);
userData = {
com.typemytype.robofont.layerData = {
bkgd = {
anchors = (
);
components = (
);
contours = (
);
lib = {
};
name = Amacron;
unicodes = (
);
width = 1028;
};
mask = {
anchors = (
);
components = (
);
contours = (
);
lib = {
};
name = Amacron;
unicodes = (
);
width = 1028;
};
};
};
width = 1028;
}
);
unicode = 0100;
},
{
glyphname = Aogonek;
layers = (
{
anchors = (
{
name = bottom;
position = "{515, 165}";
},
{
name = hook;
position = "{605, 751}";
},
{
name = ogonek;
position = "{1033, 165}";
},
{
name = top;
position = "{513, 686}";
}
);
layerId = "8D1DA624-BCA2-432D-8EAC-BD2525041625";
paths = (
{
closed = 1;
nodes = (
"516 502 LINE",
"512 502 LINE",
"849 12 LINE",
"878 12 LINE",
"533 510 LINE SMOOTH",
"495 510 LINE",
"150 12 LINE",
"180 12 LINE"
);
},
{
closed = 1;
nodes = (
"335 22 LINE",
"-5 22 LINE",
"-5 -1 LINE",
"335 -1 LINE"
);
},
{
closed = 1;
nodes = (
"717 221 LINE",
"309 221 LINE",
"291 199 LINE",
"733 199 LINE"
);
},
{
closed = 1;
nodes = (
"1033 22 LINE",
"693 22 LINE",
"693 -1 LINE",
"1033 -1 LINE"
);
},
{
closed = 1;
nodes = (
"702 520 LINE",
"325 520 LINE",
"325 497 LINE",
"702 497 LINE"
);
},
{
closed = 1;
nodes = (
"961 -7 OFFCURVE",
"924 -43 OFFCURVE",
"924 -86 CURVE SMOOTH",
"924 -138 OFFCURVE",
"980 -169 OFFCURVE",
"1045 -169 CURVE SMOOTH",
"1100 -169 OFFCURVE",
"1140 -149 OFFCURVE",
"1169 -131 CURVE",
"1158 -111 LINE",
"1132 -128 OFFCURVE",
"1094 -146 OFFCURVE",
"1045 -146 CURVE SMOOTH",
"993 -146 OFFCURVE",
"949 -123 OFFCURVE",
"949 -83 CURVE SMOOTH",
"949 -43 OFFCURVE",
"986 -17 OFFCURVE",
"1033 -1 CURVE",
"1024 9 LINE"
);
}
);
userData = {
com.typemytype.robofont.layerData = {
bkgd = {
anchors = (
);
components = (
);
contours = (
);
lib = {
};
name = Aogonek;
unicodes = (
);
width = 1028;
};
mask = {
anchors = (
);
components = (
);
contours = (
);
lib = {
};
name = Aogonek;
unicodes = (
);
width = 1028;
};
};
};
width = 1028;
}
);
unicode = 0104;
},
{
glyphname = Aring;
layers = (
{
anchors = (
{
name = bottom;
position = "{515, 165}";
},
{
name = hook;
position = "{605, 751}";
},
{
name = ogonek;
position = "{1033, 165}";
},
{
name = top;
position = "{513, 686}";
}
);
layerId = "8D1DA624-BCA2-432D-8EAC-BD2525041625";
paths = (
{
closed = 1;
nodes = (
"516 502 LINE",
"512 502 LINE",
"849 12 LINE",
"878 12 LINE",
"533 510 LINE SMOOTH",
"495 510 LINE",
"150 12 LINE",
"180 12 LINE"
);
},
{
closed = 1;
nodes = (
"335 22 LINE",
"-5 22 LINE",
"-5 -1 LINE",
"335 -1 LINE"
);
},
{
closed = 1;
nodes = (
"717 221 LINE",
"309 221 LINE",
"291 199 LINE",
"733 199 LINE"
);
},
{
closed = 1;
nodes = (
"1033 22 LINE",
"693 22 LINE",
"693 -1 LINE",
"1033 -1 LINE"
);
},
{
closed = 1;
nodes = (
"702 520 LINE",
"325 520 LINE",
"325 497 LINE",
"702 497 LINE"
);
},
{
closed = 1;
nodes = (
"648 661 OFFCURVE",
"648 721 CURVE",
"648 784 OFFCURVE",
"592 826 OFFCURVE",
"513 826 CURVE",
"438 826 OFFCURVE",
"376 784 OFFCURVE",
"376 721 CURVE",
"376 661 OFFCURVE",
"438 615 OFFCURVE",
"513 615 CURVE",
"592 615 OFFCURVE"
);
},
{
closed = 1;
nodes = (
"400 675 OFFCURVE",
"400 721 CURVE",
"400 769 OFFCURVE",
"448 804 OFFCURVE",
"513 804 CURVE",
"581 804 OFFCURVE",
"625 769 OFFCURVE",
"625 721 CURVE",
"625 675 OFFCURVE",
"581 636 OFFCURVE",
"513 636 CURVE",
"448 636 OFFCURVE"
);
}
);
userData = {
com.typemytype.robofont.layerData = {
bkgd = {
anchors = (
);
components = (
);
contours = (
);
lib = {
};
name = Aring;
unicodes = (
);
width = 1028;
};
mask = {
anchors = (
);
components = (
);
contours = (
);
lib = {
};
name = Aring;
unicodes = (
);
width = 1028;
};
};
};
width = 1028;
}
);
unicode = 00C5;
},
{
glyphname = Atilde;
layers = (
{
anchors = (
{
name = bottom;
position = "{515, 165}";
},
{
name = hook;
position = "{605, 751}";
},
{
name = ogonek;
position = "{1033, 165}";
},
{
name = top;
position = "{513, 686}";
}
);
layerId = "8D1DA624-BCA2-432D-8EAC-BD2525041625";
paths = (
{
closed = 1;
nodes = (
"516 502 LINE",
"512 502 LINE",
"849 12 LINE",
"878 12 LINE",
"533 510 LINE SMOOTH",
"495 510 LINE",
"150 12 LINE",
"180 12 LINE"
);
},
{
closed = 1;
nodes = (
"335 22 LINE",
"-5 22 LINE",
"-5 -1 LINE",
"335 -1 LINE"
);
},
{
closed = 1;
nodes = (
"717 221 LINE",
"309 221 LINE",
"291 199 LINE",
"733 199 LINE"
);
},
{
closed = 1;
nodes = (
"1033 22 LINE",
"693 22 LINE",
"693 -1 LINE",
"1033 -1 LINE"
);
},
{
closed = 1;
nodes = (
"702 520 LINE",
"325 520 LINE",
"325 497 LINE",
"702 497 LINE"
);
},
{
closed = 1;
nodes = (
"705 672 OFFCURVE",
"716 740 CURVE",
"695 743 LINE",
"683 676 OFFCURVE",
"648 649 OFFCURVE",
"611 649 CURVE SMOOTH",
"577 649 OFFCURVE",
"546 670 OFFCURVE",
"513 693 CURVE SMOOTH",
"478 717 OFFCURVE",
"445 743 OFFCURVE",
"400 743 CURVE SMOOTH",
"340 743 OFFCURVE",
"302 697 OFFCURVE",
"291 629 CURVE",
"312 625 LINE",
"323 693 OFFCURVE",
"358 721 OFFCURVE",
"397 721 CURVE SMOOTH",
"432 721 OFFCURVE",
"462 700 OFFCURVE",
"494 677 CURVE SMOOTH",
"529 652 OFFCURVE",
"564 626 OFFCURVE",
"608 626 CURVE SMOOTH",
"667 626 OFFCURVE"
);
}
);
userData = {
com.typemytype.robofont.layerData = {
bkgd = {
anchors = (
);
components = (
);
contours = (
);
lib = {
};
name = Atilde;
unicodes = (
);
width = 1028;
};
mask = {
anchors = (
);
components = (
);
contours = (
);
lib = {
};
name = Atilde;
unicodes = (
);
width = 1028;
};
};
};
width = 1028;
}
);
unicode = 00C3;
},
{
glyphname = AE;
layers = (
{
anchors = (
{
name = bottom;
position = "{784, 165}";
},
{
name = ogonek;
position = "{1294, 165}";
},
{
name = top;
position = "{786, 686}";
}
);
layerId = "8D1DA624-BCA2-432D-8EAC-BD2525041625";
paths = (
{
closed = 1;
nodes = (
"625 502 LINE",
"616 502 LINE",
"856 12 LINE",
"884 12 LINE",
"638 510 LINE SMOOTH",
"599 510 LINE",
"152 12 LINE",
"185 12 LINE"
);
},
{
closed = 1;
nodes = (
"350 22 LINE",
"0 22 LINE",
"0 -1 LINE",
"350 -1 LINE"
);
},
{
closed = 1;
nodes = (
"771 216 LINE",
"360 216 LINE",
"336 193 LINE",
"771 193 LINE"
);
},
{
closed = 1;
nodes = (
"1294 183 LINE",
"1269 183 LINE",
"1269 22 LINE",
"676 22 LINE",
"676 -1 LINE",
"1294 -1 LINE"
);
},
{
closed = 1;
nodes = (
"1027 397 LINE",
"1002 397 LINE",
"1002 289 LINE",
"739 289 LINE",
"739 265 LINE",
"1002 265 LINE",
"1002 157 LINE",
"1027 157 LINE"
);
},
{
closed = 1;
nodes = (
"1294 520 LINE",
"415 520 LINE",
"415 497 LINE",
"1268 497 LINE",
"1268 336 LINE",
"1294 336 LINE"
);
}
);
userData = {
com.typemytype.robofont.layerData = {
bkgd = {
anchors = (
);
components = (
);
contours = (
);
lib = {
};
name = AE;
unicodes = (
);
width = 1424;
};
mask = {
anchors = (
);
components = (
);
contours = (
);
lib = {
};
name = AE;
unicodes = (
);
width = 1424;
};
};
};
width = 1424;
}
);
unicode = 00C6;
},
{
glyphname = B;
layers = (
{
anchors = (
{
name = bottom;
position = "{463, 165}";
},
{
name = top;
position = "{463, 686}";
}
);
layerId = "8D1DA624-BCA2-432D-8EAC-BD2525041625";
paths = (
{
closed = 1;
nodes = (
"793 -1 OFFCURVE",
"864 43 OFFCURVE",
"864 135 CURVE SMOOTH",
"864 230 OFFCURVE",
"784 269 OFFCURVE",
"667 269 CURVE",
"667 261 LINE",
"777 261 OFFCURVE",
"831 315 OFFCURVE",
"831 391 CURVE SMOOTH",
"831 469 OFFCURVE",
"771 520 OFFCURVE",
"669 520 CURVE SMOOTH",
"56 520 LINE",
"56 496 LINE",
"667 496 LINE SMOOTH",
"746 496 OFFCURVE",
"806 465 OFFCURVE",
"806 391 CURVE SMOOTH",
"806 316 OFFCURVE",
"747 278 OFFCURVE",
"663 278 CURVE SMOOTH",
"255 278 LINE",
"255 254 LINE",
"658 253 LINE SMOOTH",
"758 253 OFFCURVE",
"839 221 OFFCURVE",
"839 135 CURVE SMOOTH",
"839 54 OFFCURVE",
"771 22 OFFCURVE",
"669 22 CURVE SMOOTH",
"56 22 LINE",
"56 -1 LINE",
"676 -1 LINE SMOOTH"
);
},
{
closed = 1;
nodes = (
"264 509 LINE",
"239 509 LINE",
"239 13 LINE",
"264 13 LINE"
);
}
);
userData = {
com.typemytype.robofont.layerData = {
bkgd = {
anchors = (
);
components = (
);
contours = (
);
lib = {
};
name = B;
unicodes = (
);
width = 964;
};
mask = {
anchors = (
);
components = (
);
contours = (
);
lib = {
};
name = B;
unicodes = (
);
width = 964;
};
};
};
width = 964;
}
);
unicode = 0042;
},
{
glyphname = C;
layers = (
{
anchors = (
{
name = bottom;
position = "{432, 155}";
},
{
name = top;
position = "{440, 697}";
}
);
layerId = "8D1DA624-BCA2-432D-8EAC-BD2525041625";
paths = (
{
closed = 1;
nodes = (
"754 84 OFFCURVE",
"802 167 CURVE",
"781 180 LINE",
"741 106 OFFCURVE",
"632 12 OFFCURVE",
"432 12 CURVE",
"250 12 OFFCURVE",
"100 105 OFFCURVE",
"100 259 CURVE",
"100 414 OFFCURVE",
"255 507 OFFCURVE",
"441 507 CURVE SMOOTH",
"578 507 OFFCURVE",
"696 461 OFFCURVE",
"787 330 CURVE",
"799 332 LINE",
"799 520 LINE",
"775 520 LINE",
"775 360 LINE",
"787 360 LINE",
"717 461 OFFCURVE",
"602 531 OFFCURVE",
"441 531 CURVE SMOOTH",
"247 531 OFFCURVE",
"75 432 OFFCURVE",
"75 259 CURVE",
"75 88 OFFCURVE",
"240 -12 OFFCURVE",
"432 -12 CURVE",
"647 -12 OFFCURVE"
);
}
);
userData = {
com.typemytype.robofont.layerData = {
bkgd = {
anchors = (
);
components = (
);
contours = (
);
lib = {
};
name = C;
unicodes = (
);
width = 892;
};
mask = {
anchors = (
);
components = (
);
contours = (
);
lib = {
};
name = C;
unicodes = (
);
width = 892;
};
};
};
width = 892;
}
);
unicode = 0043;
},
{
glyphname = Cacute;
layers = (
{
anchors = (
{
name = bottom;
position = "{432, 155}";
},
{
name = top;
position = "{440, 697}";
}
);
layerId = "8D1DA624-BCA2-432D-8EAC-BD2525041625";
paths = (
{
closed = 1;
nodes = (
"754 84 OFFCURVE",
"802 167 CURVE",
"781 180 LINE",
"741 106 OFFCURVE",
"632 12 OFFCURVE",
"432 12 CURVE",
"250 12 OFFCURVE",
"100 105 OFFCURVE",
"100 259 CURVE",
"100 414 OFFCURVE",
"255 507 OFFCURVE",
"441 507 CURVE SMOOTH",
"578 507 OFFCURVE",
"696 461 OFFCURVE",
"787 330 CURVE",
"799 332 LINE",
"799 520 LINE",
"775 520 LINE",
"775 360 LINE",
"787 360 LINE",
"717 461 OFFCURVE",
"602 531 OFFCURVE",
"441 531 CURVE SMOOTH",
"247 531 OFFCURVE",
"75 432 OFFCURVE",
"75 259 CURVE",
"75 88 OFFCURVE",
"240 -12 OFFCURVE",
"432 -12 CURVE",
"647 -12 OFFCURVE"
);
},
{
closed = 1;
nodes = (
"622 725 LINE",
"381 595 LINE",
"372 611 LINE",
"607 753 LINE"
);
}
);
userData = {
com.typemytype.robofont.layerData = {
bkgd = {
anchors = (
);
components = (
);
contours = (
);
lib = {
};
name = Cacute;
unicodes = (
);
width = 892;
};
mask = {
anchors = (
);
components = (
);
contours = (
);
lib = {
};
name = Cacute;
unicodes = (
);
width = 892;
};
};
};
width = 892;
}
);
unicode = 0106;
},
{
glyphname = Ccaron;
layers = (
{
anchors = (
{
name = bottom;
position = "{432, 155}";
},
{
name = top;
position = "{440, 697}";
}
);
layerId = "8D1DA624-BCA2-432D-8EAC-BD2525041625";
paths = (
{
closed = 1;
nodes = (
"754 84 OFFCURVE",
"802 167 CURVE",
"781 180 LINE",
"741 106 OFFCURVE",
"632 12 OFFCURVE",
"432 12 CURVE",
"250 12 OFFCURVE",
"100 105 OFFCURVE",
"100 259 CURVE",
"100 414 OFFCURVE",
"255 507 OFFCURVE",
"441 507 CURVE SMOOTH",
"578 507 OFFCURVE",
"696 461 OFFCURVE",
"787 330 CURVE",
"799 332 LINE",
"799 520 LINE",
"775 520 LINE",
"775 360 LINE",
"787 360 LINE",
"717 461 OFFCURVE",
"602 531 OFFCURVE",
"441 531 CURVE SMOOTH",
"247 531 OFFCURVE",
"75 432 OFFCURVE",
"75 259 CURVE",
"75 88 OFFCURVE",
"240 -12 OFFCURVE",
"432 -12 CURVE",
"647 -12 OFFCURVE"
);
},
{
closed = 1;
nodes = (
"274 755 LINE",
"263 742 LINE",
"430 600 LINE",
"450 600 LINE",
"618 742 LINE",
"607 755 LINE",
"440 627 LINE"
);
}
);
userData = {
com.typemytype.robofont.layerData = {
bkgd = {
anchors = (
);
components = (
);
contours = (
);
lib = {
};
name = Ccaron;
unicodes = (
);
width = 892;
};
mask = {
anchors = (
);
components = (
);
contours = (
);
lib = {
};
name = Ccaron;
unicodes = (
);
width = 892;
};
};
};
width = 892;
}
);
unicode = 010C;
},
{
glyphname = Ccedilla;
layers = (
{
anchors = (
{
name = bottom;
position = "{432, 155}";
},
{
name = top;
position = "{440, 697}";
}
);
layerId = "8D1DA624-BCA2-432D-8EAC-BD2525041625";
paths = (
{
closed = 1;
nodes = (
"754 84 OFFCURVE",
"802 167 CURVE",
"781 180 LINE",
"741 106 OFFCURVE",
"632 12 OFFCURVE",
"432 12 CURVE",
"250 12 OFFCURVE",
"100 105 OFFCURVE",
"100 259 CURVE",
"100 414 OFFCURVE",
"255 507 OFFCURVE",
"441 507 CURVE SMOOTH",
"578 507 OFFCURVE",
"696 461 OFFCURVE",
"787 330 CURVE",
"799 332 LINE",
"799 520 LINE",
"775 520 LINE",
"775 360 LINE",
"787 360 LINE",
"717 461 OFFCURVE",
"602 531 OFFCURVE",
"441 531 CURVE SMOOTH",
"247 531 OFFCURVE",
"75 432 OFFCURVE",
"75 259 CURVE",
"75 88 OFFCURVE",
"240 -12 OFFCURVE",
"432 -12 CURVE",
"647 -12 OFFCURVE"
);
},
{
closed = 1;
nodes = (
"556 -165 OFFCURVE",
"556 -127 CURVE SMOOTH",
"556 -90 OFFCURVE",
"519 -68 OFFCURVE",
"464 -68 CURVE SMOOTH",
"442 -68 OFFCURVE",
"426 -70 OFFCURVE",
"410 -71 CURVE",
"436 4 LINE",
"416 4 LINE",
"383 -87 LINE",
"388 -93 LINE",
"410 -91 OFFCURVE",
"431 -89 OFFCURVE",
"464 -89 CURVE SMOOTH",
"509 -89 OFFCURVE",
"533 -102 OFFCURVE",
"533 -127 CURVE SMOOTH",
"533 -153 OFFCURVE",
"502 -165 OFFCURVE",
"446 -165 CURVE SMOOTH",
"385 -165 OFFCURVE",
"341 -148 OFFCURVE",
"316 -136 CURVE",
"307 -156 LINE",
"335 -169 OFFCURVE",
"380 -187 OFFCURVE",
"446 -187 CURVE SMOOTH",
"518 -187 OFFCURVE"
);
}
);
userData = {
com.typemytype.robofont.layerData = {
bkgd = {
anchors = (
);
components = (
);
contours = (
);
lib = {
};
name = Ccedilla;
unicodes = (
);
width = 892;
};
mask = {
anchors = (
);
components = (
);
contours = (
);
lib = {
};
name = Ccedilla;
unicodes = (
);
width = 892;
};
};
};
width = 892;
}
);
unicode = 00C7;
},
{
glyphname = Cdotaccent;
layers = (
{
anchors = (
{
name = bottom;
position = "{432, 155}";
},
{
name = top;
position = "{440, 697}";
}
);
layerId = "8D1DA624-BCA2-432D-8EAC-BD2525041625";
paths = (
{
closed = 1;
nodes = (
"754 84 OFFCURVE",
"802 167 CURVE",
"781 180 LINE",
"741 106 OFFCURVE",
"632 12 OFFCURVE",
"432 12 CURVE",
"250 12 OFFCURVE",
"100 105 OFFCURVE",
"100 259 CURVE",
"100 414 OFFCURVE",
"255 507 OFFCURVE",
"441 507 CURVE SMOOTH",
"578 507 OFFCURVE",
"696 461 OFFCURVE",
"787 330 CURVE",
"799 332 LINE",
"799 520 LINE",
"775 520 LINE",
"775 360 LINE",
"787 360 LINE",
"717 461 OFFCURVE",
"602 531 OFFCURVE",
"441 531 CURVE SMOOTH",
"247 531 OFFCURVE",
"75 432 OFFCURVE",
"75 259 CURVE",
"75 88 OFFCURVE",
"240 -12 OFFCURVE",
"432 -12 CURVE",
"647 -12 OFFCURVE"
);
},
{
closed = 1;
nodes = (
"488 658 OFFCURVE",
"488 675 CURVE",
"488 693 OFFCURVE",
"472 705 OFFCURVE",
"440 705 CURVE",
"410 705 OFFCURVE",
"394 693 OFFCURVE",
"394 675 CURVE",
"394 658 OFFCURVE",
"410 645 OFFCURVE",
"440 645 CURVE",
"472 645 OFFCURVE"
);
}
);
userData = {
com.typemytype.robofont.layerData = {
bkgd = {
anchors = (
);
components = (
);
contours = (
);
lib = {
};
name = Cdotaccent;
unicodes = (
);
width = 892;
};
mask = {
anchors = (
);
components = (
);
contours = (
);
lib = {
};
name = Cdotaccent;
unicodes = (
);
width = 892;
};
};
};
width = 892;
}
);
unicode = 010A;
},
{
glyphname = D;
layers = (
{
anchors = (
{
name = bottom;
position = "{482, 165}";
},
{
name = center;
position = "{482, 410}";
},
{
name = top;
position = "{482, 686}";
}
);
layerId = "8D1DA624-BCA2-432D-8EAC-BD2525041625";
paths = (
{
closed = 1;
nodes = (
"752 -1 OFFCURVE",
"892 84 OFFCURVE",
"892 259 CURVE",
"892 435 OFFCURVE",
"752 520 OFFCURVE",
"546 520 CURVE",
"56 520 LINE",
"56 496 LINE",
"546 496 LINE",
"742 496 OFFCURVE",
"867 418 OFFCURVE",
"867 259 CURVE",
"867 100 OFFCURVE",
"742 22 OFFCURVE",
"546 22 CURVE",
"56 22 LINE",
"56 -1 LINE",
"546 -1 LINE"
);
},
{
closed = 1;
nodes = (
"264 507 LINE",
"239 507 LINE",
"239 12 LINE",
"264 12 LINE"
);
}
);
userData = {
com.typemytype.robofont.layerData = {
bkgd = {
anchors = (
);
components = (
);
contours = (
);
lib = {
};
name = D;
unicodes = (
);
width = 967;
};
mask = {
anchors = (
);
components = (
);
contours = (
);
lib = {
};
name = D;
unicodes = (
);
width = 967;
};
};
};
width = 967;
}
);
unicode = 0044;
},
{
glyphname = Eth;
layers = (
{
anchors = (
{
name = bottom;
position = "{482, 165}";
},
{
name = center;
position = "{482, 410}";
},
{
name = top;
position = "{482, 686}";
}
);
layerId = "8D1DA624-BCA2-432D-8EAC-BD2525041625";
paths = (
{
closed = 1;
nodes = (
"752 -1 OFFCURVE",
"892 84 OFFCURVE",
"892 259 CURVE",
"892 435 OFFCURVE",
"752 520 OFFCURVE",
"546 520 CURVE",
"56 520 LINE",
"56 496 LINE",
"546 496 LINE",
"742 496 OFFCURVE",
"867 418 OFFCURVE",
"867 259 CURVE",
"867 100 OFFCURVE",
"742 22 OFFCURVE",
"546 22 CURVE",
"56 22 LINE",
"56 -1 LINE",
"546 -1 LINE"
);
},
{
closed = 1;
nodes = (
"264 507 LINE",
"239 507 LINE",
"239 12 LINE",
"264 12 LINE"
);
},
{
closed = 1;
nodes = (
"60 246 LINE",
"609 246 LINE",
"609 268 LINE",
"60 268 LINE"
);
}
);
userData = {
com.typemytype.robofont.layerData = {
bkgd = {
anchors = (
);
components = (
);
contours = (
);
lib = {
};
name = Eth;
unicodes = (
);
width = 967;
};
mask = {
anchors = (
);
components = (
);
contours = (
);
lib = {
};
name = Eth;
unicodes = (
);
width = 967;
};
};
};
width = 967;
}
);
unicode = 00D0;
},
{
glyphname = Dcaron;
layers = (
{
anchors = (
{
name = bottom;
position = "{482, 165}";
},
{
name = center;
position = "{482, 410}";
},
{
name = top;
position = "{482, 686}";
}
);
layerId = "8D1DA624-BCA2-432D-8EAC-BD2525041625";
paths = (
{
closed = 1;
nodes = (
"752 -1 OFFCURVE",
"892 84 OFFCURVE",
"892 259 CURVE",
"892 435 OFFCURVE",
"752 520 OFFCURVE",
"546 520 CURVE",
"56 520 LINE",
"56 496 LINE",
"546 496 LINE",
"742 496 OFFCURVE",
"867 418 OFFCURVE",
"867 259 CURVE",
"867 100 OFFCURVE",
"742 22 OFFCURVE",
"546 22 CURVE",
"56 22 LINE",
"56 -1 LINE",
"546 -1 LINE"
);
},
{
closed = 1;
nodes = (
"264 507 LINE",
"239 507 LINE",
"239 12 LINE",
"264 12 LINE"
);
},
{
closed = 1;
nodes = (
"315 744 LINE",
"305 731 LINE",
"472 589 LINE",
"492 589 LINE",
"660 731 LINE",
"649 744 LINE",
"482 617 LINE"
);
}
);
userData = {
com.typemytype.robofont.layerData = {
bkgd = {
anchors = (
);
components = (
);
contours = (
);
lib = {
};
name = Dcaron;
unicodes = (
);
width = 967;
};
mask = {
anchors = (
);
components = (
);
contours = (
);
lib = {
};
name = Dcaron;
unicodes = (
);
width = 967;
};
};
};
width = 967;
}
);
unicode = 010E;
},
{
glyphname = Dcroat;
layers = (
{
anchors = (
{
name = bottom;
position = "{482, 165}";
},
{
name = center;
position = "{482, 410}";
},
{
name = top;
position = "{482, 686}";
}
);
layerId = "8D1DA624-BCA2-432D-8EAC-BD2525041625";
paths = (
{
closed = 1;
nodes = (
"752 -1 OFFCURVE",
"892 84 OFFCURVE",
"892 259 CURVE",
"892 435 OFFCURVE",
"752 520 OFFCURVE",
"546 520 CURVE",
"56 520 LINE",
"56 496 LINE",
"546 496 LINE",
"742 496 OFFCURVE",
"867 418 OFFCURVE",
"867 259 CURVE",
"867 100 OFFCURVE",
"742 22 OFFCURVE",
"546 22 CURVE",
"56 22 LINE",
"56 -1 LINE",
"546 -1 LINE"
);
},
{
closed = 1;
nodes = (
"264 507 LINE",
"239 507 LINE",
"239 12 LINE",
"264 12 LINE"
);
},
{
closed = 1;
nodes = (
"60 246 LINE",
"609 246 LINE",
"609 268 LINE",
"60 268 LINE"
);
}
);
userData = {
com.typemytype.robofont.layerData = {
bkgd = {
anchors = (
);
components = (
);
contours = (
);
lib = {
};
name = Dcroat;
unicodes = (
);
width = 967;
};
mask = {
anchors = (
);
components = (
);
contours = (
);
lib = {
};
name = Dcroat;
unicodes = (
);
width = 967;
};
};
};
width = 967;
}
);
unicode = 0110;
},
{
glyphname = E;
layers = (
{
anchors = (
{
name = bottom;
position = "{502, 165}";
},
{
name = ogonek;
position = "{864, 165}";
},
{
name = top;
position = "{531, 686}";
}
);
layerId = "8D1DA624-BCA2-432D-8EAC-BD2525041625";
paths = (
{
closed = 1;
nodes = (
"864 183 LINE",
"840 183 LINE",
"840 22 LINE",
"56 22 LINE",
"56 -1 LINE",
"864 -1 LINE"
);
},
{
closed = 1;
nodes = (
"264 507 LINE",
"239 507 LINE",
"239 12 LINE",
"264 12 LINE"
);
},
{
closed = 1;
nodes = (
"585 284 LINE",
"261 284 LINE",
"261 260 LINE",
"585 260 LINE"
);
},
{
closed = 1;
nodes = (
"598 392 LINE",
"573 392 LINE",
"573 152 LINE",
"598 152 LINE"
);
},
{
closed = 1;
nodes = (
"864 520 LINE",
"56 520 LINE",
"56 496 LINE",
"839 496 LINE",
"839 336 LINE",
"864 336 LINE"
);
}
);
userData = {
com.typemytype.robofont.layerData = {
bkgd = {
anchors = (
);
components = (
);
contours = (
);
lib = {
};
name = E;
unicodes = (
);
width = 995;
};
mask = {
anchors = (
);
components = (
);
contours = (
);
lib = {
};
name = E;
unicodes = (
);
width = 995;
};
};
};
width = 995;
}
);
unicode = 0045;
},
{
glyphname = Eacute;
layers = (
{
anchors = (
{
name = bottom;
position = "{502, 165}";
},
{
name = ogonek;
position = "{864, 165}";
},
{
name = top;
position = "{531, 686}";
}
);
layerId = "8D1DA624-BCA2-432D-8EAC-BD2525041625";
paths = (
{
closed = 1;
nodes = (
"864 183 LINE",
"840 183 LINE",
"840 22 LINE",
"56 22 LINE",
"56 -1 LINE",
"864 -1 LINE"
);
},
{
closed = 1;
nodes = (
"264 507 LINE",
"239 507 LINE",
"239 12 LINE",
"264 12 LINE"
);
},
{
closed = 1;
nodes = (
"585 284 LINE",
"261 284 LINE",
"261 260 LINE",
"585 260 LINE"
);
},
{
closed = 1;
nodes = (
"598 392 LINE",
"573 392 LINE",
"573 152 LINE",
"598 152 LINE"
);
},
{
closed = 1;
nodes = (
"864 520 LINE",
"56 520 LINE",
"56 496 LINE",
"839 496 LINE",
"839 336 LINE",
"864 336 LINE"
);
},
{
closed = 1;
nodes = (
"714 715 LINE",
"472 585 LINE",
"463 601 LINE",
"698 742 LINE"
);
}
);
userData = {
com.typemytype.robofont.layerData = {
bkgd = {
anchors = (
);
components = (
);
contours = (
);
lib = {
};
name = Eacute;
unicodes = (
);
width = 995;
};
mask = {
anchors = (
);
components = (
);
contours = (
);
lib = {
};
name = Eacute;
unicodes = (
);
width = 995;
};
};
};
width = 995;
}
);
unicode = 00C9;
},
{
glyphname = Ecaron;
layers = (
{
anchors = (
{
name = bottom;
position = "{502, 165}";
},
{
name = ogonek;
position = "{864, 165}";
},
{
name = top;
position = "{531, 686}";
}
);
layerId = "8D1DA624-BCA2-432D-8EAC-BD2525041625";
paths = (
{
closed = 1;
nodes = (
"864 183 LINE",
"840 183 LINE",
"840 22 LINE",
"56 22 LINE",
"56 -1 LINE",
"864 -1 LINE"
);
},
{
closed = 1;
nodes = (
"264 507 LINE",
"239 507 LINE",
"239 12 LINE",
"264 12 LINE"
);
},
{
closed = 1;
nodes = (
"585 284 LINE",
"261 284 LINE",
"261 260 LINE",
"585 260 LINE"
);
},
{
closed = 1;
nodes = (
"598 392 LINE",
"573 392 LINE",
"573 152 LINE",
"598 152 LINE"
);
},
{
closed = 1;
nodes = (
"864 520 LINE",
"56 520 LINE",
"56 496 LINE",
"839 496 LINE",
"839 336 LINE",
"864 336 LINE"
);
},
{
closed = 1;
nodes = (
"365 744 LINE",
"354 731 LINE",
"521 589 LINE",
"541 589 LINE",
"709 731 LINE",
"698 744 LINE",
"531 617 LINE"
);
}
);
userData = {
com.typemytype.robofont.layerData = {
bkgd = {
anchors = (
);
components = (
);
contours = (
);
lib = {
};
name = Ecaron;
unicodes = (
);
width = 995;
};
mask = {
anchors = (
);
components = (
);
contours = (
);
lib = {
};
name = Ecaron;
unicodes = (
);
width = 995;
};
};
};
width = 995;
}
);
unicode = 011A;
},
{
glyphname = Ecircumflex;
layers = (
{
anchors = (
{
name = bottom;
position = "{502, 165}";
},
{
name = ogonek;
position = "{864, 165}";
},
{
name = top;
position = "{531, 686}";
}
);
layerId = "8D1DA624-BCA2-432D-8EAC-BD2525041625";
paths = (
{
closed = 1;
nodes = (
"864 183 LINE",
"840 183 LINE",
"840 22 LINE",
"56 22 LINE",
"56 -1 LINE",
"864 -1 LINE"
);
},
{
closed = 1;
nodes = (
"264 507 LINE",
"239 507 LINE",
"239 12 LINE",
"264 12 LINE"
);
},
{
closed = 1;
nodes = (
"585 284 LINE",
"261 284 LINE",
"261 260 LINE",
"585 260 LINE"
);
},
{
closed = 1;
nodes = (
"598 392 LINE",
"573 392 LINE",
"573 152 LINE",
"598 152 LINE"
);
},
{
closed = 1;
nodes = (
"864 520 LINE",
"56 520 LINE",
"56 496 LINE",
"839 496 LINE",
"839 336 LINE",
"864 336 LINE"
);
},
{
closed = 1;
nodes = (
"698 572 LINE",
"709 585 LINE",
"541 727 LINE",
"521 727 LINE",
"354 585 LINE",
"365 572 LINE",
"531 700 LINE"
);
}
);
userData = {
com.typemytype.robofont.layerData = {
bkgd = {
anchors = (
);
components = (
);
contours = (
);
lib = {
};
name = Ecircumflex;
unicodes = (
);
width = 995;
};
mask = {
anchors = (
);
components = (
);
contours = (
);
lib = {
};
name = Ecircumflex;
unicodes = (
);
width = 995;
};
};
};
width = 995;
}
);
unicode = 00CA;
},
{
glyphname = Edieresis;
layers = (
{
anchors = (
{
name = bottom;
position = "{502, 165}";
},
{
name = ogonek;
position = "{864, 165}";
},
{
name = top;
position = "{531, 686}";
}
);
layerId = "8D1DA624-BCA2-432D-8EAC-BD2525041625";
paths = (
{
closed = 1;
nodes = (
"864 183 LINE",
"840 183 LINE",
"840 22 LINE",
"56 22 LINE",
"56 -1 LINE",
"864 -1 LINE"
);
},
{
closed = 1;
nodes = (
"264 507 LINE",
"239 507 LINE",
"239 12 LINE",
"264 12 LINE"
);
},
{
closed = 1;
nodes = (
"585 284 LINE",
"261 284 LINE",
"261 260 LINE",
"585 260 LINE"
);
},
{
closed = 1;
nodes = (
"598 392 LINE",
"573 392 LINE",
"573 152 LINE",
"598 152 LINE"
);
},
{
closed = 1;
nodes = (
"864 520 LINE",
"56 520 LINE",
"56 496 LINE",
"839 496 LINE",
"839 336 LINE",
"864 336 LINE"
);
},
{
closed = 1;
nodes = (
"683 648 OFFCURVE",
"683 664 CURVE",
"683 681 OFFCURVE",
"668 693 OFFCURVE",
"638 693 CURVE",
"611 693 OFFCURVE",
"594 681 OFFCURVE",
"594 664 CURVE",
"594 648 OFFCURVE",
"611 635 OFFCURVE",
"638 635 CURVE",
"668 635 OFFCURVE"
);
},
{
closed = 1;
nodes = (
"461 648 OFFCURVE",
"461 664 CURVE",
"461 681 OFFCURVE",
"445 693 OFFCURVE",
"416 693 CURVE",
"388 693 OFFCURVE",
"372 681 OFFCURVE",
"372 664 CURVE",
"372 648 OFFCURVE",
"388 635 OFFCURVE",
"416 635 CURVE",
"445 635 OFFCURVE"
);
}
);
userData = {
com.typemytype.robofont.layerData = {
bkgd = {
anchors = (
);
components = (
);
contours = (
);
lib = {
};
name = Edieresis;
unicodes = (
);
width = 995;
};
mask = {
anchors = (
);
components = (
);
contours = (
);
lib = {
};
name = Edieresis;
unicodes = (
);
width = 995;
};
};
};
width = 995;
}
);
unicode = 00CB;
},
{
glyphname = Edotaccent;
layers = (
{
anchors = (
{
name = bottom;
position = "{502, 165}";
},
{
name = ogonek;
position = "{864, 165}";
},
{
name = top;
position = "{531, 686}";
}
);
layerId = "8D1DA624-BCA2-432D-8EAC-BD2525041625";
paths = (
{
closed = 1;
nodes = (
"864 183 LINE",
"840 183 LINE",
"840 22 LINE",
"56 22 LINE",
"56 -1 LINE",
"864 -1 LINE"
);
},
{
closed = 1;
nodes = (
"264 507 LINE",
"239 507 LINE",
"239 12 LINE",
"264 12 LINE"
);
},
{
closed = 1;
nodes = (
"585 284 LINE",
"261 284 LINE",
"261 260 LINE",
"585 260 LINE"
);
},
{
closed = 1;
nodes = (
"598 392 LINE",
"573 392 LINE",
"573 152 LINE",
"598 152 LINE"
);
},
{
closed = 1;
nodes = (
"864 520 LINE",
"56 520 LINE",
"56 496 LINE",
"839 496 LINE",
"839 336 LINE",
"864 336 LINE"
);
},
{
closed = 1;
nodes = (
"579 647 OFFCURVE",
"579 664 CURVE",
"579 682 OFFCURVE",
"563 695 OFFCURVE",
"531 695 CURVE",
"502 695 OFFCURVE",
"485 682 OFFCURVE",
"485 664 CURVE",
"485 647 OFFCURVE",
"502 634 OFFCURVE",
"531 634 CURVE",
"563 634 OFFCURVE"
);
}
);
userData = {
com.typemytype.robofont.layerData = {
bkgd = {
anchors = (
);
components = (
);
contours = (
);
lib = {
};
name = Edotaccent;
unicodes = (
);
width = 995;
};
mask = {
anchors = (
);
components = (
);
contours = (
);
lib = {
};
name = Edotaccent;
unicodes = (
);
width = 995;
};
};
};
width = 995;
}
);
unicode = 0116;
},
{
glyphname = Egrave;
layers = (
{
anchors = (
{
name = bottom;
position = "{502, 165}";
},
{
name = ogonek;
position = "{864, 165}";
},
{
name = top;
position = "{531, 686}";
}
);
layerId = "8D1DA624-BCA2-432D-8EAC-BD2525041625";
paths = (
{
closed = 1;
nodes = (
"864 183 LINE",
"840 183 LINE",
"840 22 LINE",
"56 22 LINE",
"56 -1 LINE",
"864 -1 LINE"
);
},
{
closed = 1;
nodes = (
"264 507 LINE",
"239 507 LINE",
"239 12 LINE",
"264 12 LINE"
);
},
{
closed = 1;
nodes = (
"585 284 LINE",
"261 284 LINE",
"261 260 LINE",
"585 260 LINE"
);
},
{
closed = 1;
nodes = (
"598 392 LINE",
"573 392 LINE",
"573 152 LINE",
"598 152 LINE"
);
},
{
closed = 1;
nodes = (
"864 520 LINE",
"56 520 LINE",
"56 496 LINE",
"839 496 LINE",
"839 336 LINE",
"864 336 LINE"
);
},
{
closed = 1;
nodes = (
"349 715 LINE",
"364 742 LINE",
"600 601 LINE",
"591 585 LINE"
);
}
);
userData = {
com.typemytype.robofont.layerData = {
bkgd = {
anchors = (
);
components = (
);
contours = (
);
lib = {
};
name = Egrave;
unicodes = (
);
width = 995;
};
mask = {
anchors = (
);
components = (
);
contours = (
);
lib = {
};
name = Egrave;
unicodes = (
);
width = 995;
};
};
};
width = 995;
}
);
unicode = 00C8;
},
{
glyphname = Emacron;
layers = (
{
anchors = (
{
name = bottom;
position = "{502, 165}";
},
{
name = ogonek;
position = "{864, 165}";
},
{
name = top;
position = "{531, 686}";
}
);
layerId = "8D1DA624-BCA2-432D-8EAC-BD2525041625";
paths = (
{
closed = 1;
nodes = (
"864 183 LINE",
"840 183 LINE",
"840 22 LINE",
"56 22 LINE",
"56 -1 LINE",
"864 -1 LINE"
);
},
{
closed = 1;
nodes = (
"264 507 LINE",
"239 507 LINE",
"239 12 LINE",
"264 12 LINE"
);
},
{
closed = 1;
nodes = (
"585 284 LINE",
"261 284 LINE",
"261 260 LINE",
"585 260 LINE"
);
},
{
closed = 1;
nodes = (
"598 392 LINE",
"573 392 LINE",
"573 152 LINE",
"598 152 LINE"
);
},
{
closed = 1;
nodes = (
"864 520 LINE",
"56 520 LINE",
"56 496 LINE",
"839 496 LINE",
"839 336 LINE",
"864 336 LINE"
);
},
{
closed = 1;
nodes = (
"287 654 LINE",
"765 654 LINE",
"765 677 LINE",
"287 677 LINE"
);
}
);
userData = {
com.typemytype.robofont.layerData = {
bkgd = {
anchors = (
);
components = (
);
contours = (
);
lib = {
};
name = Emacron;
unicodes = (
);
width = 995;
};
mask = {
anchors = (
);
components = (
);
contours = (
);
lib = {
};
name = Emacron;
unicodes = (
);
width = 995;
};
};
};
width = 995;
}
);
unicode = 0112;
},
{
glyphname = Eogonek;
layers = (
{
anchors = (
{
name = bottom;
position = "{502, 165}";
},
{
name = ogonek;
position = "{864, 165}";
},
{
name = top;
position = "{531, 686}";
}
);
layerId = "8D1DA624-BCA2-432D-8EAC-BD2525041625";
paths = (
{
closed = 1;
nodes = (
"864 183 LINE",
"840 183 LINE",
"840 22 LINE",
"56 22 LINE",
"56 -1 LINE",
"864 -1 LINE"
);
},
{
closed = 1;
nodes = (
"264 507 LINE",
"239 507 LINE",
"239 12 LINE",
"264 12 LINE"
);
},
{
closed = 1;
nodes = (
"585 284 LINE",
"261 284 LINE",
"261 260 LINE",
"585 260 LINE"
);
},
{
closed = 1;
nodes = (
"598 392 LINE",
"573 392 LINE",
"573 152 LINE",
"598 152 LINE"
);
},
{
closed = 1;
nodes = (
"864 520 LINE",
"56 520 LINE",
"56 496 LINE",
"839 496 LINE",
"839 336 LINE",
"864 336 LINE"
);
},
{
closed = 1;
nodes = (
"793 -7 OFFCURVE",
"755 -43 OFFCURVE",
"755 -86 CURVE SMOOTH",
"755 -138 OFFCURVE",
"811 -169 OFFCURVE",
"876 -169 CURVE SMOOTH",
"931 -169 OFFCURVE",
"971 -149 OFFCURVE",
"1000 -131 CURVE",
"990 -111 LINE",
"963 -128 OFFCURVE",
"925 -146 OFFCURVE",
"876 -146 CURVE SMOOTH",
"825 -146 OFFCURVE",
"781 -123 OFFCURVE",
"781 -83 CURVE SMOOTH",
"781 -43 OFFCURVE",
"817 -17 OFFCURVE",
"864 -1 CURVE",
"856 9 LINE"
);
}
);
userData = {
com.typemytype.robofont.layerData = {
bkgd = {
anchors = (
);
components = (
);
contours = (
);
lib = {
};
name = Eogonek;
unicodes = (
);
width = 995;
};
mask = {
anchors = (
);
components = (
);
contours = (
);
lib = {
};
name = Eogonek;
unicodes = (
);
width = 995;
};
};
};
width = 995;
}
);
unicode = 0118;
},
{
glyphname = F;
layers = (
{
anchors = (
{
name = bottom;
position = "{451, 165}";
},
{
name = top;
position = "{451, 656}";
}
);
layerId = "8D1DA624-BCA2-432D-8EAC-BD2525041625";
paths = (
{
closed = 1;
nodes = (
"814 520 LINE",
"56 520 LINE",
"56 496 LINE",
"790 496 LINE",
"790 336 LINE",
"814 336 LINE"
);
},
{
closed = 1;
nodes = (
"457 22 LINE",
"56 22 LINE",
"56 -1 LINE",
"457 -1 LINE"
);
},
{
closed = 1;
nodes = (
"264 507 LINE",
"239 507 LINE",
"239 12 LINE",
"264 12 LINE"
);
},
{
closed = 1;
nodes = (
"555 263 LINE",
"261 263 LINE",
"261 240 LINE",
"555 240 LINE"
);
},
{
closed = 1;
nodes = (
"568 371 LINE",
"543 371 LINE",
"543 131 LINE",
"568 131 LINE"
);
}
);
userData = {
com.typemytype.robofont.layerData = {
bkgd = {
anchors = (
);
components = (
);
contours = (
);
lib = {
};
name = F;
unicodes = (
);
width = 889;
};
mask = {
anchors = (
);
components = (
);
contours = (
);
lib = {
};
name = F;
unicodes = (
);
width = 889;
};
};
};
width = 889;
}
);
unicode = 0046;
},
{
color = 4;
glyphname = G;
layers = (
{
anchors = (
{
name = bottom;
position = "{441, 155}";
},
{
name = top;
position = "{441, 697}";
}
);
layerId = "8D1DA624-BCA2-432D-8EAC-BD2525041625";
paths = (
{
closed = 1;
nodes = (
"709 32 OFFCURVE",
"803 103 CURVE",
"803 254 LINE",
"437 254 LINE",
"437 230 LINE",
"778 230 LINE",
"778 115 LINE",
"687 52 OFFCURVE",
"568 12 OFFCURVE",
"437 12 CURVE SMOOTH",
"255 12 OFFCURVE",
"106 106 OFFCURVE",
"106 259 CURVE SMOOTH",
"106 414 OFFCURVE",
"260 507 OFFCURVE",
"445 507 CURVE SMOOTH",
"584 507 OFFCURVE",
"701 461 OFFCURVE",
"792 330 CURVE",
"803 331 LINE",
"803 520 LINE",
"780 520 LINE",
"780 360 LINE",
"792 360 LINE",
"722 461 OFFCURVE",
"607 531 OFFCURVE",
"445 531 CURVE SMOOTH",
"252 531 OFFCURVE",
"81 431 OFFCURVE",
"81 259 CURVE SMOOTH",
"81 88 OFFCURVE",
"245 -11 OFFCURVE",
"437 -11 CURVE SMOOTH",
"579 -11 OFFCURVE"
);
}
);
userData = {
com.typemytype.robofont.layerData = {
bkgd = {
anchors = (
);
components = (
);
contours = (
);
lib = {
};
name = G;
unicodes = (
);
width = 906;
};
mask = {
anchors = (
);
components = (
);
contours = (
);
lib = {
};
name = G;
unicodes = (
);
width = 906;
};
};
};
width = 906;
}
);
unicode = 0047;
},
{
glyphname = Gbreve;
layers = (
{
anchors = (
{
name = bottom;
position = "{441, 155}";
},
{
name = top;
position = "{441, 697}";
}
);
layerId = "8D1DA624-BCA2-432D-8EAC-BD2525041625";
paths = (
{
closed = 1;
nodes = (
"709 32 OFFCURVE",
"803 103 CURVE",
"803 254 LINE",
"437 254 LINE",
"437 230 LINE",
"778 230 LINE",
"778 115 LINE",
"687 52 OFFCURVE",
"568 12 OFFCURVE",
"437 12 CURVE SMOOTH",
"255 12 OFFCURVE",
"106 106 OFFCURVE",
"106 259 CURVE SMOOTH",
"106 414 OFFCURVE",
"260 507 OFFCURVE",
"445 507 CURVE SMOOTH",
"584 507 OFFCURVE",
"701 461 OFFCURVE",
"792 330 CURVE",
"803 331 LINE",
"803 520 LINE",
"780 520 LINE",
"780 360 LINE",
"792 360 LINE",
"722 461 OFFCURVE",
"607 531 OFFCURVE",
"445 531 CURVE SMOOTH",
"252 531 OFFCURVE",
"81 431 OFFCURVE",
"81 259 CURVE SMOOTH",
"81 88 OFFCURVE",
"245 -11 OFFCURVE",
"437 -11 CURVE SMOOTH",
"579 -11 OFFCURVE"
);
},
{
closed = 1;
nodes = (
"599 691 OFFCURVE",
"614 761 CURVE",
"594 766 LINE",
"574 696 OFFCURVE",
"515 643 OFFCURVE",
"442 643 CURVE",
"369 643 OFFCURVE",
"307 696 OFFCURVE",
"287 766 CURVE",
"267 761 LINE",
"282 691 OFFCURVE",
"344 620 OFFCURVE",
"441 620 CURVE",
"538 620 OFFCURVE"
);
}
);
userData = {
com.typemytype.robofont.layerData = {
bkgd = {
anchors = (
);
components = (
);
contours = (
);
lib = {
};
name = Gbreve;
unicodes = (
);
width = 906;
};
mask = {
anchors = (
);
components = (
);
contours = (
);
lib = {
};
name = Gbreve;
unicodes = (
);
width = 906;
};
};
};
width = 906;
}
);
unicode = 011E;
},
{
glyphname = Gcommaaccent;
layers = (
{
anchors = (
{
name = bottom;
position = "{441, 155}";
},
{
name = top;
position = "{441, 697}";
}
);
layerId = "8D1DA624-BCA2-432D-8EAC-BD2525041625";
paths = (
{
closed = 1;
nodes = (
"709 32 OFFCURVE",
"803 103 CURVE",
"803 254 LINE",
"437 254 LINE",
"437 230 LINE",
"778 230 LINE",
"778 115 LINE",
"687 52 OFFCURVE",
"568 12 OFFCURVE",
"437 12 CURVE SMOOTH",
"255 12 OFFCURVE",
"106 106 OFFCURVE",
"106 259 CURVE SMOOTH",
"106 414 OFFCURVE",
"260 507 OFFCURVE",
"445 507 CURVE SMOOTH",
"584 507 OFFCURVE",
"701 461 OFFCURVE",
"792 330 CURVE",
"803 331 LINE",
"803 520 LINE",
"780 520 LINE",
"780 360 LINE",
"792 360 LINE",
"722 461 OFFCURVE",
"607 531 OFFCURVE",
"445 531 CURVE SMOOTH",
"252 531 OFFCURVE",
"81 431 OFFCURVE",
"81 259 CURVE SMOOTH",
"81 88 OFFCURVE",
"245 -11 OFFCURVE",
"437 -11 CURVE SMOOTH",
"579 -11 OFFCURVE"
);
},
{
closed = 1;
nodes = (
"470 -96 OFFCURVE",
"441 -96 CURVE SMOOTH",
"413 -96 OFFCURVE",
"396 -111 OFFCURVE",
"396 -128 CURVE SMOOTH",
"396 -145 OFFCURVE",
"413 -156 OFFCURVE",
"435 -156 CURVE SMOOTH",
"448 -156 OFFCURVE",
"459 -153 OFFCURVE",
"470 -152 CURVE",
"464 -196 OFFCURVE",
"431 -232 OFFCURVE",
"381 -277 CURVE",
"392 -289 LINE",
"454 -242 OFFCURVE",
"490 -187 OFFCURVE",
"490 -143 CURVE SMOOTH",
"490 -115 OFFCURVE"
);
}
);
userData = {
com.typemytype.robofont.layerData = {
bkgd = {
anchors = (
);
components = (
);
contours = (
);
lib = {
};
name = Gcommaaccent;
unicodes = (
);
width = 906;
};
mask = {
anchors = (
);
components = (
);
contours = (
);
lib = {
};
name = Gcommaaccent;
unicodes = (
);
width = 906;
};
};
};
width = 906;
}
);
unicode = 0122;
},
{
glyphname = Gdotaccent;
layers = (
{
anchors = (
{
name = bottom;
position = "{441, 155}";
},
{
name = top;
position = "{441, 697}";
}
);
layerId = "8D1DA624-BCA2-432D-8EAC-BD2525041625";
paths = (
{
closed = 1;
nodes = (
"709 32 OFFCURVE",
"803 103 CURVE",
"803 254 LINE",
"437 254 LINE",
"437 230 LINE",
"778 230 LINE",
"778 115 LINE",
"687 52 OFFCURVE",
"568 12 OFFCURVE",
"437 12 CURVE SMOOTH",
"255 12 OFFCURVE",
"106 106 OFFCURVE",
"106 259 CURVE SMOOTH",
"106 414 OFFCURVE",
"260 507 OFFCURVE",
"445 507 CURVE SMOOTH",
"584 507 OFFCURVE",
"701 461 OFFCURVE",
"792 330 CURVE",
"803 331 LINE",
"803 520 LINE",
"780 520 LINE",
"780 360 LINE",
"792 360 LINE",
"722 461 OFFCURVE",
"607 531 OFFCURVE",
"445 531 CURVE SMOOTH",
"252 531 OFFCURVE",
"81 431 OFFCURVE",
"81 259 CURVE SMOOTH",
"81 88 OFFCURVE",
"245 -11 OFFCURVE",
"437 -11 CURVE SMOOTH",
"579 -11 OFFCURVE"
);
},
{
closed = 1;
nodes = (
"489 658 OFFCURVE",
"489 675 CURVE",
"489 693 OFFCURVE",
"473 705 OFFCURVE",
"441 705 CURVE",
"411 705 OFFCURVE",
"394 693 OFFCURVE",
"394 675 CURVE",
"394 658 OFFCURVE",
"411 645 OFFCURVE",
"441 645 CURVE",
"473 645 OFFCURVE"
);
}
);
userData = {
com.typemytype.robofont.layerData = {
bkgd = {
anchors = (
);
components = (
);
contours = (
);
lib = {
};
name = Gdotaccent;
unicodes = (
);
width = 906;
};
mask = {
anchors = (
);
components = (
);
contours = (
);
lib = {
};
name = Gdotaccent;
unicodes = (
);
width = 906;
};
};
};
width = 906;
}
);
unicode = 0120;
},
{
glyphname = H;
layers = (
{
anchors = (
{
name = bottom;
position = "{567, 165}";
},
{
name = center;
position = "{567, 431}";
},
{
name = top;
position = "{567, 686}";
}
);
layerId = "8D1DA624-BCA2-432D-8EAC-BD2525041625";
paths = (
{
closed = 1;
nodes = (
"877 275 LINE",
"258 275 LINE",
"258 252 LINE",
"877 252 LINE"
);
},
{
closed = 1;
nodes = (
"445 22 LINE",
"56 22 LINE",
"56 -1 LINE",
"445 -1 LINE"
);
},
{
closed = 1;
nodes = (
"264 507 LINE",
"239 507 LINE",
"239 9 LINE",
"264 9 LINE"
);
},
{
closed = 1;
nodes = (
"445 520 LINE",
"56 520 LINE",
"56 496 LINE",
"445 496 LINE"
);
},
{
closed = 1;
nodes = (
"1078 22 LINE",
"688 22 LINE",
"688 -1 LINE",
"1078 -1 LINE"
);
},
{
closed = 1;
nodes = (
"896 509 LINE",
"871 509 LINE",
"871 12 LINE",
"896 12 LINE"
);
},
{
closed = 1;
nodes = (
"1078 520 LINE",
"688 520 LINE",
"688 496 LINE",
"1078 496 LINE"
);
}
);
userData = {
com.typemytype.robofont.layerData = {
bkgd = {
anchors = (
);
components = (
);
contours = (
);
lib = {
};
name = H;
unicodes = (
);
width = 1135;
};
mask = {
anchors = (
);
components = (
);
contours = (
);
lib = {
};
name = H;
unicodes = (
);
width = 1135;
};
};
};
width = 1135;
}
);
unicode = 0048;
},
{
glyphname = Hbar;
layers = (
{
anchors = (
{
name = bottom;
position = "{573, 165}";
},
{
name = center;
position = "{573, 421}";
},
{
name = top;
position = "{573, 686}";
}
);
layerId = "8D1DA624-BCA2-432D-8EAC-BD2525041625";
paths = (
{
closed = 1;
nodes = (
"1079 392 LINE",
"56 392 LINE",
"56 370 LINE",
"1079 370 LINE"
);
},
{
closed = 1;
nodes = (
"446 22 LINE",
"56 22 LINE",
"56 -1 LINE",
"446 -1 LINE"
);
},
{
closed = 1;
nodes = (
"264 507 LINE",
"239 507 LINE",
"239 9 LINE",
"264 9 LINE"
);
},
{
closed = 1;
nodes = (
"1079 22 LINE",
"689 22 LINE",
"689 -1 LINE",
"1079 -1 LINE"
);
},
{
closed = 1;
nodes = (
"878 275 LINE",
"259 275 LINE",
"259 252 LINE",
"878 252 LINE"
);
},
{
closed = 1;
nodes = (
"446 520 LINE",
"56 520 LINE",
"56 497 LINE",
"446 497 LINE"
);
},
{
closed = 1;
nodes = (
"897 509 LINE",
"872 509 LINE",
"872 12 LINE",
"897 12 LINE"
);
},
{
closed = 1;
nodes = (
"1079 520 LINE",
"689 520 LINE",
"689 497 LINE",
"1079 497 LINE"
);
}
);
userData = {
com.typemytype.robofont.layerData = {
bkgd = {
anchors = (
);
components = (
);
contours = (
);
lib = {
};
name = Hbar;
unicodes = (
);
width = 1135;
};
mask = {
anchors = (
);
components = (
);
contours = (
);
lib = {
};
name = Hbar;
unicodes = (
);
width = 1135;
};
};
};
width = 1135;
}
);
unicode = 0126;
},
{
glyphname = I;
layers = (
{
anchors = (
{
name = bottom;
position = "{252, 165}";
},
{
name = ogonek;
position = "{446, 165}";
},
{
name = top;
position = "{252, 686}";
}
);
layerId = "8D1DA624-BCA2-432D-8EAC-BD2525041625";
paths = (
{
closed = 1;
nodes = (
"264 507 LINE SMOOTH",
"239 507 LINE SMOOTH",
"239 12 LINE SMOOTH",
"264 12 LINE SMOOTH"
);
},
{
closed = 1;
nodes = (
"446 22 LINE SMOOTH",
"56 22 LINE SMOOTH",
"56 -1 LINE SMOOTH",
"446 -1 LINE SMOOTH"
);
},
{
closed = 1;
nodes = (
"446 520 LINE SMOOTH",
"56 520 LINE SMOOTH",
"56 496 LINE SMOOTH",
"446 496 LINE SMOOTH"
);
}
);
userData = {
com.typemytype.robofont.layerData = {
bkgd = {
anchors = (
);
components = (
);
contours = (
);
lib = {
};
name = I;
unicodes = (
);
width = 502;
};
mask = {
anchors = (
);
components = (
);
contours = (
);
lib = {
};
name = I;
unicodes = (
);
width = 502;
};
};
};
width = 502;
}
);
unicode = 0049;
},
{
glyphname = Iacute;
layers = (
{
anchors = (
{
name = bottom;
position = "{252, 165}";
},
{
name = ogonek;
position = "{446, 165}";
},
{
name = top;
position = "{252, 686}";
}
);
layerId = "8D1DA624-BCA2-432D-8EAC-BD2525041625";
paths = (
{
closed = 1;
nodes = (
"264 507 LINE SMOOTH",
"239 507 LINE SMOOTH",
"239 12 LINE SMOOTH",
"264 12 LINE SMOOTH"
);
},
{
closed = 1;
nodes = (
"446 22 LINE SMOOTH",
"56 22 LINE SMOOTH",
"56 -1 LINE SMOOTH",
"446 -1 LINE SMOOTH"
);
},
{
closed = 1;
nodes = (
"446 520 LINE SMOOTH",
"56 520 LINE SMOOTH",
"56 496 LINE SMOOTH",
"446 496 LINE SMOOTH"
);
},
{
closed = 1;
nodes = (
"434 715 LINE",
"192 585 LINE",
"183 601 LINE",
"419 742 LINE"
);
}
);
userData = {
com.typemytype.robofont.layerData = {
bkgd = {
anchors = (
);
components = (
);
contours = (
);
lib = {
};
name = Iacute;
unicodes = (
);
width = 502;
};
mask = {
anchors = (
);
components = (
);
contours = (
);
lib = {
};
name = Iacute;
unicodes = (
);
width = 502;
};
};
};
width = 502;
}
);
unicode = 00CD;
},
{
glyphname = Icircumflex;
layers = (
{
anchors = (
{
name = bottom;
position = "{252, 165}";
},
{
name = ogonek;
position = "{446, 165}";
},
{
name = top;
position = "{252, 686}";
}
);
layerId = "8D1DA624-BCA2-432D-8EAC-BD2525041625";
paths = (
{
closed = 1;
nodes = (
"264 507 LINE SMOOTH",
"239 507 LINE SMOOTH",
"239 12 LINE SMOOTH",
"264 12 LINE SMOOTH"
);
},
{
closed = 1;
nodes = (
"446 22 LINE SMOOTH",
"56 22 LINE SMOOTH",
"56 -1 LINE SMOOTH",
"446 -1 LINE SMOOTH"
);
},
{
closed = 1;
nodes = (
"446 520 LINE SMOOTH",
"56 520 LINE SMOOTH",
"56 496 LINE SMOOTH",
"446 496 LINE SMOOTH"
);
},
{
closed = 1;
nodes = (
"419 572 LINE",
"429 585 LINE",
"261 727 LINE",
"242 727 LINE",
"74 585 LINE",
"85 572 LINE",
"252 700 LINE"
);
}
);
userData = {
com.typemytype.robofont.layerData = {
bkgd = {
anchors = (
);
components = (
);
contours = (
);
lib = {
};
name = Icircumflex;
unicodes = (
);
width = 502;
};
mask = {
anchors = (
);
components = (
);
contours = (
);
lib = {
};
name = Icircumflex;
unicodes = (
);
width = 502;
};
};
};
width = 502;
}
);
unicode = 00CE;
},
{
glyphname = Idieresis;
layers = (
{
anchors = (
{
name = bottom;
position = "{252, 165}";
},
{
name = ogonek;
position = "{446, 165}";
},
{
name = top;
position = "{252, 686}";
}
);
layerId = "8D1DA624-BCA2-432D-8EAC-BD2525041625";
paths = (
{
closed = 1;
nodes = (
"264 507 LINE SMOOTH",
"239 507 LINE SMOOTH",
"239 12 LINE SMOOTH",
"264 12 LINE SMOOTH"
);
},
{
closed = 1;
nodes = (
"446 22 LINE SMOOTH",
"56 22 LINE SMOOTH",
"56 -1 LINE SMOOTH",
"446 -1 LINE SMOOTH"
);
},
{
closed = 1;
nodes = (
"446 520 LINE SMOOTH",
"56 520 LINE SMOOTH",
"56 496 LINE SMOOTH",
"446 496 LINE SMOOTH"
);
},
{
closed = 1;
nodes = (
"404 648 OFFCURVE",
"404 664 CURVE",
"404 681 OFFCURVE",
"388 693 OFFCURVE",
"359 693 CURVE",
"331 693 OFFCURVE",
"314 681 OFFCURVE",
"314 664 CURVE",
"314 648 OFFCURVE",
"331 635 OFFCURVE",
"359 635 CURVE",
"388 635 OFFCURVE"
);
},
{
closed = 1;
nodes = (
"182 648 OFFCURVE",
"182 664 CURVE",
"182 681 OFFCURVE",
"166 693 OFFCURVE",
"137 693 CURVE",
"108 693 OFFCURVE",
"92 681 OFFCURVE",
"92 664 CURVE",
"92 648 OFFCURVE",
"108 635 OFFCURVE",
"137 635 CURVE",
"166 635 OFFCURVE"
);
}
);
userData = {
com.typemytype.robofont.layerData = {
bkgd = {
anchors = (
);
components = (
);
contours = (
);
lib = {
};
name = Idieresis;
unicodes = (
);
width = 502;
};
mask = {
anchors = (
);
components = (
);
contours = (
);
lib = {
};
name = Idieresis;
unicodes = (
);
width = 502;
};
};
};
width = 502;
}
);
unicode = 00CF;
},
{
glyphname = Idotaccent;
layers = (
{
anchors = (
{
name = bottom;
position = "{252, 165}";
},
{
name = ogonek;
position = "{446, 165}";
},
{
name = top;
position = "{252, 686}";
}
);
layerId = "8D1DA624-BCA2-432D-8EAC-BD2525041625";
paths = (
{
closed = 1;
nodes = (
"264 507 LINE SMOOTH",
"239 507 LINE SMOOTH",
"239 12 LINE SMOOTH",
"264 12 LINE SMOOTH"
);
},
{
closed = 1;
nodes = (
"446 22 LINE SMOOTH",
"56 22 LINE SMOOTH",
"56 -1 LINE SMOOTH",
"446 -1 LINE SMOOTH"
);
},
{
closed = 1;
nodes = (
"446 520 LINE SMOOTH",
"56 520 LINE SMOOTH",
"56 496 LINE SMOOTH",
"446 496 LINE SMOOTH"
);
},
{
closed = 1;
nodes = (
"299 647 OFFCURVE",
"299 664 CURVE",
"299 682 OFFCURVE",
"283 695 OFFCURVE",
"252 695 CURVE",
"222 695 OFFCURVE",
"205 682 OFFCURVE",
"205 664 CURVE",
"205 647 OFFCURVE",
"222 634 OFFCURVE",
"252 634 CURVE",
"283 634 OFFCURVE"
);
}
);
userData = {
com.typemytype.robofont.layerData = {
bkgd = {
anchors = (
);
components = (
);
contours = (
);
lib = {
};
name = Idotaccent;
unicodes = (
);
width = 502;
};
mask = {
anchors = (
);
components = (
);
contours = (
);
lib = {
};
name = Idotaccent;
unicodes = (
);
width = 502;
};
};
};
width = 502;
}
);
unicode = 0130;
},
{
glyphname = Igrave;
layers = (
{
anchors = (
{
name = bottom;
position = "{252, 165}";
},
{
name = ogonek;
position = "{446, 165}";
},
{
name = top;
position = "{252, 686}";
}
);
layerId = "8D1DA624-BCA2-432D-8EAC-BD2525041625";
paths = (
{
closed = 1;
nodes = (
"264 507 LINE SMOOTH",
"239 507 LINE SMOOTH",
"239 12 LINE SMOOTH",
"264 12 LINE SMOOTH"
);
},
{
closed = 1;
nodes = (
"446 22 LINE SMOOTH",
"56 22 LINE SMOOTH",
"56 -1 LINE SMOOTH",
"446 -1 LINE SMOOTH"
);
},
{
closed = 1;
nodes = (
"446 520 LINE SMOOTH",
"56 520 LINE SMOOTH",
"56 496 LINE SMOOTH",
"446 496 LINE SMOOTH"
);
},
{
closed = 1;
nodes = (
"69 715 LINE",
"84 742 LINE",
"320 601 LINE",
"311 585 LINE"
);
}
);
userData = {
com.typemytype.robofont.layerData = {
bkgd = {
anchors = (
);
components = (
);
contours = (
);
lib = {
};
name = Igrave;
unicodes = (
);
width = 502;
};
mask = {
anchors = (
);
components = (
);
contours = (
);
lib = {
};
name = Igrave;
unicodes = (
);
width = 502;
};
};
};
width = 502;
}
);
unicode = 00CC;
},
{
glyphname = Imacron;
layers = (
{
anchors = (
{
name = bottom;
position = "{252, 165}";
},
{
name = ogonek;
position = "{446, 165}";
},
{
name = top;
position = "{252, 686}";
}
);
layerId = "8D1DA624-BCA2-432D-8EAC-BD2525041625";
paths = (
{
closed = 1;
nodes = (
"264 507 LINE SMOOTH",
"239 507 LINE SMOOTH",
"239 12 LINE SMOOTH",
"264 12 LINE SMOOTH"
);
},
{
closed = 1;
nodes = (
"446 22 LINE SMOOTH",
"56 22 LINE SMOOTH",
"56 -1 LINE SMOOTH",
"446 -1 LINE SMOOTH"
);
},
{
closed = 1;
nodes = (
"446 520 LINE SMOOTH",
"56 520 LINE SMOOTH",
"56 496 LINE SMOOTH",
"446 496 LINE SMOOTH"
);
},
{
closed = 1;
nodes = (
"7 654 LINE",
"486 654 LINE",
"486 677 LINE",
"7 677 LINE"
);
}
);
userData = {
com.typemytype.robofont.layerData = {
bkgd = {
anchors = (
);
components = (
);
contours = (
);
lib = {
};
name = Imacron;
unicodes = (
);
width = 502;
};
mask = {
anchors = (
);
components = (
);
contours = (
);
lib = {
};
name = Imacron;
unicodes = (
);
width = 502;
};
};
};
width = 502;
}
);
unicode = 012A;
},
{
glyphname = Iogonek;
layers = (
{
anchors = (
{
name = bottom;
position = "{252, 165}";
},
{
name = ogonek;
position = "{446, 165}";
},
{
name = top;
position = "{252, 686}";
}
);
layerId = "8D1DA624-BCA2-432D-8EAC-BD2525041625";
paths = (
{
closed = 1;
nodes = (
"264 507 LINE SMOOTH",
"239 507 LINE SMOOTH",
"239 12 LINE SMOOTH",
"264 12 LINE SMOOTH"
);
},
{
closed = 1;
nodes = (
"446 22 LINE SMOOTH",
"56 22 LINE SMOOTH",
"56 -1 LINE SMOOTH",
"446 -1 LINE SMOOTH"
);
},
{
closed = 1;
nodes = (
"446 520 LINE SMOOTH",
"56 520 LINE SMOOTH",
"56 496 LINE SMOOTH",
"446 496 LINE SMOOTH"
);
},
{
closed = 1;
nodes = (
"375 -7 OFFCURVE",
"337 -43 OFFCURVE",
"337 -86 CURVE SMOOTH",
"337 -138 OFFCURVE",
"393 -169 OFFCURVE",
"458 -169 CURVE SMOOTH",
"513 -169 OFFCURVE",
"553 -149 OFFCURVE",
"582 -131 CURVE",
"572 -111 LINE",
"545 -128 OFFCURVE",
"507 -146 OFFCURVE",
"458 -146 CURVE SMOOTH",
"407 -146 OFFCURVE",
"363 -123 OFFCURVE",
"363 -83 CURVE SMOOTH",
"363 -43 OFFCURVE",
"399 -17 OFFCURVE",
"446 -1 CURVE",
"438 9 LINE"
);
}
);
userData = {
com.typemytype.robofont.layerData = {
bkgd = {
anchors = (
);
components = (
);
contours = (
);
lib = {
};
name = Iogonek;
unicodes = (
);
width = 502;
};
mask = {
anchors = (
);
components = (
);
contours = (
);
lib = {
};
name = Iogonek;
unicodes = (
);
width = 502;
};
};
};
width = 502;
}
);
unicode = 012E;
},
{
glyphname = J;
layers = (
{
anchors = (
{
name = bottom;
position = "{340, 165}";
},
{
name = top;
position = "{340, 686}";
}
);
layerId = "8D1DA624-BCA2-432D-8EAC-BD2525041625";
paths = (
{
closed = 1;
nodes = (
"473 64 OFFCURVE",
"473 185 CURVE SMOOTH",
"473 507 LINE",
"448 507 LINE",
"448 185 LINE SMOOTH",
"448 67 OFFCURVE",
"356 12 OFFCURVE",
"250 12 CURVE SMOOTH",
"149 12 OFFCURVE",
"77 71 OFFCURVE",
"36 126 CURVE",
"20 110 LINE",
"59 54 OFFCURVE",
"131 -11 OFFCURVE",
"250 -11 CURVE SMOOTH",
"382 -11 OFFCURVE"
);
},
{
closed = 1;
nodes = (
"655 520 LINE",
"207 520 LINE",
"207 496 LINE",
"655 496 LINE"
);
}
);
userData = {
com.typemytype.robofont.layerData = {
bkgd = {
anchors = (
);
components = (
);
contours = (
);
lib = {
};
name = J;
unicodes = (
);
width = 655;
};
mask = {
anchors = (
);
components = (
);
contours = (
);
lib = {
};
name = J;
unicodes = (
);
width = 655;
};
};
};
width = 655;
}
);
unicode = 004A;
},
{
glyphname = K;
layers = (
{
anchors = (
{
name = bottom;
position = "{527, 165}";
},
{
name = top;
position = "{527, 686}";
}
);
layerId = "8D1DA624-BCA2-432D-8EAC-BD2525041625";
paths = (
{
closed = 1;
nodes = (
"787 507 LINE",
"251 155 LINE",
"251 129 LINE",
"827 507 LINE"
);
},
{
closed = 1;
nodes = (
"446 22 LINE SMOOTH",
"56 22 LINE SMOOTH",
"56 -1 LINE SMOOTH",
"446 -1 LINE SMOOTH"
);
},
{
closed = 1;
nodes = (
"264 507 LINE SMOOTH",
"239 507 LINE SMOOTH",
"239 12 LINE SMOOTH",
"264 12 LINE SMOOTH"
);
},
{
closed = 1;
nodes = (
"964 22 LINE SMOOTH",
"612 22 LINE SMOOTH",
"612 -1 LINE SMOOTH",
"964 -1 LINE SMOOTH"
);
},
{
closed = 1;
nodes = (
"483 294 LINE",
"467 278 LINE",
"797 9 LINE",
"833 9 LINE"
);
},
{
closed = 1;
nodes = (
"446 520 LINE SMOOTH",
"56 520 LINE SMOOTH",
"56 496 LINE SMOOTH",
"446 496 LINE SMOOTH"
);
},
{
closed = 1;
nodes = (
"955 520 LINE SMOOTH",
"602 520 LINE SMOOTH",
"602 496 LINE SMOOTH",
"955 496 LINE SMOOTH"
);
}
);
userData = {
com.typemytype.robofont.layerData = {
bkgd = {
anchors = (
);
components = (
);
contours = (
);
lib = {
};
name = K;
unicodes = (
);
width = 1000;
};
mask = {
anchors = (
);
components = (
);
contours = (
);
lib = {
};
name = K;
unicodes = (
);
width = 1000;
};
};
};
width = 1000;
}
);
unicode = 004B;
},
{
glyphname = Kcommaaccent;
layers = (
{
anchors = (
{
name = bottom;
position = "{527, 165}";
},
{
name = top;
position = "{527, 686}";
}
);
layerId = "8D1DA624-BCA2-432D-8EAC-BD2525041625";
paths = (
{
closed = 1;
nodes = (
"787 507 LINE",
"251 155 LINE",
"251 129 LINE",
"827 507 LINE"
);
},
{
closed = 1;
nodes = (
"446 22 LINE SMOOTH",
"56 22 LINE SMOOTH",
"56 -1 LINE SMOOTH",
"446 -1 LINE SMOOTH"
);
},
{
closed = 1;
nodes = (
"264 507 LINE SMOOTH",
"239 507 LINE SMOOTH",
"239 12 LINE SMOOTH",
"264 12 LINE SMOOTH"
);
},
{
closed = 1;
nodes = (
"964 22 LINE SMOOTH",
"612 22 LINE SMOOTH",
"612 -1 LINE SMOOTH",
"964 -1 LINE SMOOTH"
);
},
{
closed = 1;
nodes = (
"483 294 LINE",
"467 278 LINE",
"797 9 LINE",
"833 9 LINE"
);
},
{
closed = 1;
nodes = (
"446 520 LINE SMOOTH",
"56 520 LINE SMOOTH",
"56 496 LINE SMOOTH",
"446 496 LINE SMOOTH"
);
},
{
closed = 1;
nodes = (
"955 520 LINE SMOOTH",
"602 520 LINE SMOOTH",
"602 496 LINE SMOOTH",
"955 496 LINE SMOOTH"
);
},
{
closed = 1;
nodes = (
"556 -86 OFFCURVE",
"527 -86 CURVE SMOOTH",
"499 -86 OFFCURVE",
"482 -101 OFFCURVE",
"482 -118 CURVE SMOOTH",
"482 -135 OFFCURVE",
"499 -146 OFFCURVE",
"521 -146 CURVE SMOOTH",
"534 -146 OFFCURVE",
"545 -143 OFFCURVE",
"556 -142 CURVE",
"549 -186 OFFCURVE",
"517 -222 OFFCURVE",
"467 -267 CURVE",
"478 -279 LINE",
"540 -232 OFFCURVE",
"576 -177 OFFCURVE",
"576 -134 CURVE SMOOTH",
"576 -105 OFFCURVE"
);
}
);
userData = {
com.typemytype.robofont.layerData = {
bkgd = {
anchors = (
);
components = (
);
contours = (
);
lib = {
};
name = Kcommaaccent;
unicodes = (
);
width = 1000;
};
mask = {
anchors = (
);
components = (
);
contours = (
);
lib = {
};
name = Kcommaaccent;
unicodes = (
);
width = 1000;
};
};
};
width = 1000;
}
);
unicode = 0136;
},
{
glyphname = L;
layers = (
{
anchors = (
{
name = bottom;
position = "{451, 165}";
},
{
name = center;
position = "{413, 410}";
},
{
name = top;
position = "{237, 686}";
},
{
name = topright;
position = "{450, 504}";
}
);
layerId = "8D1DA624-BCA2-432D-8EAC-BD2525041625";
paths = (
{
closed = 1;
nodes = (
"792 183 LINE",
"767 183 LINE",
"767 22 LINE",
"56 22 LINE",
"56 -1 LINE",
"792 -1 LINE"
);
},
{
closed = 1;
nodes = (
"264 507 LINE",
"239 507 LINE",
"239 12 LINE",
"264 12 LINE"
);
},
{
closed = 1;
nodes = (
"446 520 LINE",
"56 520 LINE",
"56 496 LINE",
"446 496 LINE"
);
}
);
userData = {
com.typemytype.robofont.layerData = {
bkgd = {
anchors = (
);
components = (
);
contours = (
);
lib = {
};
name = L;
unicodes = (
);
width = 842;
};
mask = {
anchors = (
);
components = (
);
contours = (
);
lib = {
};
name = L;
unicodes = (
);
width = 842;
};
};
};
width = 842;
}
);
unicode = 004C;
},
{
glyphname = Lacute;
layers = (
{
anchors = (
{
name = bottom;
position = "{451, 165}";
},
{
name = center;
position = "{413, 410}";
},
{
name = top;
position = "{237, 686}";
},
{
name = topright;
position = "{450, 504}";
}
);
layerId = "8D1DA624-BCA2-432D-8EAC-BD2525041625";
paths = (
{
closed = 1;
nodes = (
"792 183 LINE",
"767 183 LINE",
"767 22 LINE",
"56 22 LINE",
"56 -1 LINE",
"792 -1 LINE"
);
},
{
closed = 1;
nodes = (
"264 507 LINE",
"239 507 LINE",
"239 12 LINE",
"264 12 LINE"
);
},
{
closed = 1;
nodes = (
"446 520 LINE",
"56 520 LINE",
"56 496 LINE",
"446 496 LINE"
);
},
{
closed = 1;
nodes = (
"420 715 LINE",
"178 585 LINE",
"169 601 LINE",
"404 742 LINE"
);
}
);
userData = {
com.typemytype.robofont.layerData = {
bkgd = {
anchors = (
);
components = (
);
contours = (
);
lib = {
};
name = Lacute;
unicodes = (
);
width = 842;
};
mask = {
anchors = (
);
components = (
);
contours = (
);
lib = {
};
name = Lacute;
unicodes = (
);
width = 842;
};
};
};
width = 842;
}
);
unicode = 0139;
},
{
glyphname = Lcaron;
layers = (
{
anchors = (
{
name = bottom;
position = "{451, 165}";
},
{
name = center;
position = "{413, 410}";
},
{
name = top;
position = "{237, 686}";
},
{
name = topright;
position = "{450, 504}";
}
);
layerId = "8D1DA624-BCA2-432D-8EAC-BD2525041625";
paths = (
{
closed = 1;
nodes = (
"792 183 LINE",
"767 183 LINE",
"767 22 LINE",
"56 22 LINE",
"56 -1 LINE",
"792 -1 LINE"
);
},
{
closed = 1;
nodes = (
"264 507 LINE",
"239 507 LINE",
"239 12 LINE",
"264 12 LINE"
);
},
{
closed = 1;
nodes = (
"446 520 LINE",
"56 520 LINE",
"56 496 LINE",
"446 496 LINE"
);
},
{
closed = 1;
nodes = (
"547 385 OFFCURVE",
"482 309 CURVE",
"494 298 LINE",
"570 373 OFFCURVE",
"603 446 OFFCURVE",
"600 523 CURVE",
"574 525 LINE",
"574 447 OFFCURVE"
);
}
);
userData = {
com.typemytype.robofont.layerData = {
bkgd = {
anchors = (
);
components = (
);
contours = (
);
lib = {
};
name = Lcaron;
unicodes = (
);
width = 842;
};
mask = {
anchors = (
);
components = (
);
contours = (
);
lib = {
};
name = Lcaron;
unicodes = (
);
width = 842;
};
};
};
width = 842;
}
);
unicode = 013D;
},
{
glyphname = Lcommaaccent;
layers = (
{
anchors = (
{
name = bottom;
position = "{451, 165}";
},
{
name = center;
position = "{413, 410}";
},
{
name = top;
position = "{237, 686}";
},
{
name = topright;
position = "{450, 504}";
}
);
layerId = "8D1DA624-BCA2-432D-8EAC-BD2525041625";
paths = (
{
closed = 1;
nodes = (
"792 183 LINE",
"767 183 LINE",
"767 22 LINE",
"56 22 LINE",
"56 -1 LINE",
"792 -1 LINE"
);
},
{
closed = 1;
nodes = (
"264 507 LINE",
"239 507 LINE",
"239 12 LINE",
"264 12 LINE"
);
},
{
closed = 1;
nodes = (
"446 520 LINE",
"56 520 LINE",
"56 496 LINE",
"446 496 LINE"
);
},
{
closed = 1;
nodes = (
"480 -86 OFFCURVE",
"451 -86 CURVE SMOOTH",
"423 -86 OFFCURVE",
"406 -101 OFFCURVE",
"406 -118 CURVE SMOOTH",
"406 -135 OFFCURVE",
"423 -146 OFFCURVE",
"445 -146 CURVE SMOOTH",
"458 -146 OFFCURVE",
"469 -143 OFFCURVE",
"480 -142 CURVE",
"473 -186 OFFCURVE",
"441 -222 OFFCURVE",
"391 -267 CURVE",
"402 -279 LINE",
"464 -232 OFFCURVE",
"500 -177 OFFCURVE",
"500 -134 CURVE SMOOTH",
"500 -105 OFFCURVE"
);
}
);
userData = {
com.typemytype.robofont.layerData = {
bkgd = {
anchors = (
);
components = (
);
contours = (
);
lib = {
};
name = Lcommaaccent;
unicodes = (
);
width = 842;
};
mask = {
anchors = (
);
components = (
);
contours = (
);
lib = {
};
name = Lcommaaccent;
unicodes = (
);
width = 842;
};
};
};
width = 842;
}
);
unicode = 013B;
},
{
glyphname = Ldot;
layers = (
{
anchors = (
{
name = bottom;
position = "{451, 165}";
},
{
name = center;
position = "{413, 410}";
},
{
name = top;
position = "{237, 686}";
},
{
name = topright;
position = "{450, 504}";
}
);
layerId = "8D1DA624-BCA2-432D-8EAC-BD2525041625";
paths = (
{
closed = 1;
nodes = (
"792 183 LINE",
"767 183 LINE",
"767 22 LINE",
"56 22 LINE",
"56 -1 LINE",
"792 -1 LINE"
);
},
{
closed = 1;
nodes = (
"264 507 LINE",
"239 507 LINE",
"239 12 LINE",
"264 12 LINE"
);
},
{
closed = 1;
nodes = (
"446 520 LINE",
"56 520 LINE",
"56 496 LINE",
"446 496 LINE"
);
},
{
closed = 1;
nodes = (
"724 311 OFFCURVE",
"724 329 CURVE",
"724 348 OFFCURVE",
"708 362 OFFCURVE",
"676 362 CURVE",
"644 362 OFFCURVE",
"626 348 OFFCURVE",
"626 329 CURVE",
"626 311 OFFCURVE",
"644 298 OFFCURVE",
"676 298 CURVE",
"708 298 OFFCURVE"
);
}
);
userData = {
com.typemytype.robofont.layerData = {
bkgd = {
anchors = (
);
components = (
);
contours = (
);
lib = {
};
name = Ldot;
unicodes = (
);
width = 842;
};
mask = {
anchors = (
);
components = (
);
contours = (
);
lib = {
};
name = Ldot;
unicodes = (
);
width = 842;
};
};
};
width = 842;
}
);
unicode = 013F;
},
{
glyphname = Lslash;
layers = (
{
anchors = (
{
name = bottom;
position = "{451, 165}";
},
{
name = center;
position = "{413, 410}";
},
{
name = top;
position = "{237, 686}";
},
{
name = topright;
position = "{450, 504}";
}
);
layerId = "8D1DA624-BCA2-432D-8EAC-BD2525041625";
paths = (
{
closed = 1;
nodes = (
"445 328 LINE",
"57 184 LINE",
"57 159 LINE",
"445 303 LINE"
);
},
{
closed = 1;
nodes = (
"792 183 LINE",
"767 183 LINE",
"767 22 LINE",
"56 22 LINE",
"56 -1 LINE",
"792 -1 LINE"
);
},
{
closed = 1;
nodes = (
"264 507 LINE",
"239 507 LINE",
"239 12 LINE",
"264 12 LINE"
);
},
{
closed = 1;
nodes = (
"446 520 LINE",
"56 520 LINE",
"56 496 LINE",
"446 496 LINE"
);
}
);
userData = {
com.typemytype.robofont.layerData = {
bkgd = {
anchors = (
);
components = (
);
contours = (
);
lib = {
};
name = Lslash;
unicodes = (
);
width = 872;
};
mask = {
anchors = (
);
components = (
);
contours = (
);
lib = {
};
name = Lslash;
unicodes = (
);
width = 872;
};
};
};
width = 872;
}
);
unicode = 0141;
},
{
glyphname = M;
layers = (
{
anchors = (
{
name = bottom;
position = "{621, 145}";
},
{
name = top;
position = "{621, 656}";
}
);
layerId = "8D1DA624-BCA2-432D-8EAC-BD2525041625";
paths = (
{
closed = 1;
nodes = (
"632 13 LINE",
"264 520 LINE",
"233 520 LINE",
"618 -12 LINE",
"623 -12 LINE"
);
},
{
closed = 1;
nodes = (
"415 22 LINE",
"56 22 LINE",
"56 -1 LINE",
"415 -1 LINE"
);
},
{
closed = 1;
nodes = (
"264 453 LINE",
"264 475 OFFCURVE",
"264 499 OFFCURVE",
"264 520 CURVE",
"239 520 LINE",
"239 10 LINE",
"264 10 LINE"
);
},
{
closed = 1;
nodes = (
"264 520 LINE",
"56 520 LINE",
"56 496 LINE",
"264 496 LINE"
);
},
{
closed = 1;
nodes = (
"1185 22 LINE",
"827 22 LINE",
"827 -1 LINE",
"1185 -1 LINE"
);
},
{
closed = 1;
nodes = (
"1009 520 LINE",
"977 520 LINE",
"613 13 LINE",
"619 -12 LINE",
"624 -12 LINE"
);
},
{
closed = 1;
nodes = (
"1002 520 LINE",
"977 520 LINE",
"977 499 OFFCURVE",
"977 475 OFFCURVE",
"977 453 CURVE",
"977 10 LINE",
"1002 10 LINE"
);
},
{
closed = 1;
nodes = (
"1185 520 LINE",
"977 520 LINE",
"977 496 LINE",
"1185 496 LINE"
);
}
);
userData = {
com.typemytype.robofont.layerData = {
bkgd = {
anchors = (
);
components = (
);
contours = (
);
lib = {
};
name = M;
unicodes = (
);
width = 1241;
};
mask = {
anchors = (
);
components = (
);
contours = (
);
lib = {
};
name = M;
unicodes = (
);
width = 1241;
};
};
};
width = 1241;
}
);
unicode = 004D;
},
{
glyphname = N;
layers = (
{
anchors = (
{
name = bottom;
position = "{623, 175}";
},
{
name = top;
position = "{523, 676}";
}
);
layerId = "8D1DA624-BCA2-432D-8EAC-BD2525041625";
paths = (
{
closed = 1;
nodes = (
"913 507 LINE",
"888 507 LINE",
"888 42 LINE",
"264 520 LINE",
"220 520 LINE",
"908 -7 LINE",
"913 -7 LINE"
);
},
{
closed = 1;
nodes = (
"446 22 LINE",
"56 22 LINE",
"56 -1 LINE",
"446 -1 LINE"
);
},
{
closed = 1;
nodes = (
"264 520 LINE",
"239 520 LINE",
"239 10 LINE",
"264 10 LINE"
);
},
{
closed = 1;
nodes = (
"264 520 LINE",
"56 520 LINE",
"56 496 LINE",
"264 496 LINE"
);
},
{
closed = 1;
nodes = (
"1095 520 LINE",
"705 520 LINE",
"705 496 LINE",
"1095 496 LINE"
);
}
);
userData = {
com.typemytype.robofont.layerData = {
bkgd = {
anchors = (
);
components = (
);
contours = (
);
lib = {
};
name = N;
unicodes = (
);
width = 1110;
};
mask = {
anchors = (
);
components = (
);
contours = (
);
lib = {
};
name = N;
unicodes = (
);
width = 1110;
};
};
};
width = 1110;
}
);
unicode = 004E;
},
{
glyphname = Nacute;
layers = (
{
anchors = (
{
name = bottom;
position = "{623, 175}";
},
{
name = top;
position = "{523, 676}";
}
);
layerId = "8D1DA624-BCA2-432D-8EAC-BD2525041625";
paths = (
{
closed = 1;
nodes = (
"913 507 LINE",
"888 507 LINE",
"888 42 LINE",
"264 520 LINE",
"220 520 LINE",
"908 -7 LINE",
"913 -7 LINE"
);
},
{
closed = 1;
nodes = (
"446 22 LINE",
"56 22 LINE",
"56 -1 LINE",
"446 -1 LINE"
);
},
{
closed = 1;
nodes = (
"264 520 LINE",
"239 520 LINE",
"239 10 LINE",
"264 10 LINE"
);
},
{
closed = 1;
nodes = (
"264 520 LINE",
"56 520 LINE",
"56 496 LINE",
"264 496 LINE"
);
},
{
closed = 1;
nodes = (
"1095 520 LINE",
"705 520 LINE",
"705 496 LINE",
"1095 496 LINE"
);
},
{
closed = 1;
nodes = (
"705 705 LINE",
"464 575 LINE",
"454 591 LINE",
"690 732 LINE"
);
}
);
userData = {
com.typemytype.robofont.layerData = {
bkgd = {
anchors = (
);
components = (
);
contours = (
);
lib = {
};
name = Nacute;
unicodes = (
);
width = 1110;
};
mask = {
anchors = (
);
components = (
);
contours = (
);
lib = {
};
name = Nacute;
unicodes = (
);
width = 1110;
};
};
};
width = 1110;
}
);
unicode = 0143;
},
{
glyphname = Ncaron;
layers = (
{
anchors = (
{
name = bottom;
position = "{623, 175}";
},
{
name = top;
position = "{523, 676}";
}
);
layerId = "8D1DA624-BCA2-432D-8EAC-BD2525041625";
paths = (
{
closed = 1;
nodes = (
"913 507 LINE",
"888 507 LINE",
"888 42 LINE",
"264 520 LINE",
"220 520 LINE",
"908 -7 LINE",
"913 -7 LINE"
);
},
{
closed = 1;
nodes = (
"446 22 LINE",
"56 22 LINE",
"56 -1 LINE",
"446 -1 LINE"
);
},
{
closed = 1;
nodes = (
"264 520 LINE",
"239 520 LINE",
"239 10 LINE",
"264 10 LINE"
);
},
{
closed = 1;
nodes = (
"264 520 LINE",
"56 520 LINE",
"56 496 LINE",
"264 496 LINE"
);
},
{
closed = 1;
nodes = (
"1095 520 LINE",
"705 520 LINE",
"705 496 LINE",
"1095 496 LINE"
);
},
{
closed = 1;
nodes = (
"356 734 LINE",
"346 721 LINE",
"513 579 LINE",
"533 579 LINE",
"701 721 LINE",
"690 734 LINE",
"523 607 LINE"
);
}
);
userData = {
com.typemytype.robofont.layerData = {
bkgd = {
anchors = (
);
components = (
);
contours = (
);
lib = {
};
name = Ncaron;
unicodes = (
);
width = 1110;
};
mask = {
anchors = (
);
components = (
);
contours = (
);
lib = {
};
name = Ncaron;
unicodes = (
);
width = 1110;
};
};
};
width = 1110;
}
);
unicode = 0147;
},
{
glyphname = Ncommaaccent;
layers = (
{
anchors = (
{
name = bottom;
position = "{623, 175}";
},
{
name = top;
position = "{523, 676}";
}
);
layerId = "8D1DA624-BCA2-432D-8EAC-BD2525041625";
paths = (
{
closed = 1;
nodes = (
"913 507 LINE",
"888 507 LINE",
"888 42 LINE",
"264 520 LINE",
"220 520 LINE",
"908 -7 LINE",
"913 -7 LINE"
);
},
{
closed = 1;
nodes = (
"446 22 LINE",
"56 22 LINE",
"56 -1 LINE",
"446 -1 LINE"
);
},
{
closed = 1;
nodes = (
"264 520 LINE",
"239 520 LINE",
"239 10 LINE",
"264 10 LINE"
);
},
{
closed = 1;
nodes = (
"264 520 LINE",
"56 520 LINE",
"56 496 LINE",
"264 496 LINE"
);
},
{
closed = 1;
nodes = (
"1095 520 LINE",
"705 520 LINE",
"705 496 LINE",
"1095 496 LINE"
);
},
{
closed = 1;
nodes = (
"653 -77 OFFCURVE",
"623 -77 CURVE SMOOTH",
"596 -77 OFFCURVE",
"578 -91 OFFCURVE",
"578 -108 CURVE SMOOTH",
"578 -125 OFFCURVE",
"595 -136 OFFCURVE",
"618 -136 CURVE SMOOTH",
"631 -136 OFFCURVE",
"641 -134 OFFCURVE",
"653 -132 CURVE",
"646 -176 OFFCURVE",
"613 -212 OFFCURVE",
"563 -257 CURVE",
"575 -269 LINE",
"636 -222 OFFCURVE",
"673 -167 OFFCURVE",
"673 -124 CURVE SMOOTH",
"673 -95 OFFCURVE"
);
}
);
userData = {
com.typemytype.robofont.layerData = {
bkgd = {
anchors = (
);
components = (
);
contours = (
);
lib = {
};
name = Ncommaaccent;
unicodes = (
);
width = 1110;
};
mask = {
anchors = (
);
components = (
);
contours = (
);
lib = {
};
name = Ncommaaccent;
unicodes = (
);
width = 1110;
};
};
};
width = 1110;
}
);
unicode = 0145;
},
{
glyphname = Eng;
layers = (
{
anchors = (
{
name = bottom;
position = "{613, 175}";
},
{
name = top;
position = "{553, 676}";
}
);
layerId = "8D1DA624-BCA2-432D-8EAC-BD2525041625";
paths = (
{
closed = 1;
nodes = (
"913 507 LINE",
"888 507 LINE",
"888 42 LINE",
"264 520 LINE",
"220 520 LINE",
"908 -7 LINE",
"913 25 LINE"
);
},
{
closed = 1;
nodes = (
"396 22 LINE",
"56 22 LINE",
"56 -1 LINE",
"396 -1 LINE"
);
},
{
closed = 1;
nodes = (
"264 520 LINE",
"239 520 LINE",
"239 10 LINE",
"264 10 LINE"
);
},
{
closed = 1;
nodes = (
"264 520 LINE",
"56 520 LINE",
"56 497 LINE",
"264 497 LINE"
);
},
{
closed = 1;
nodes = (
"1095 520 LINE",
"705 520 LINE",
"705 497 LINE",
"1095 497 LINE"
);
},
{
closed = 1;
nodes = (
"913 -117 OFFCURVE",
"913 5 CURVE SMOOTH",
"913 326 LINE",
"888 326 LINE",
"888 5 LINE SMOOTH",
"888 -113 OFFCURVE",
"796 -169 OFFCURVE",
"691 -169 CURVE SMOOTH",
"588 -169 OFFCURVE",
"518 -110 OFFCURVE",
"477 -55 CURVE",
"461 -71 LINE",
"500 -127 OFFCURVE",
"572 -192 OFFCURVE",
"691 -192 CURVE SMOOTH",
"822 -192 OFFCURVE"
);
}
);
userData = {
com.typemytype.robofont.layerData = {
bkgd = {
anchors = (
);
components = (
);
contours = (
);
lib = {
};
name = Eng;
unicodes = (
);
width = 1110;
};
mask = {
anchors = (
);
components = (
);
contours = (
);
lib = {
};
name = Eng;
unicodes = (
);
width = 1110;
};
};
};
width = 1110;
}
);
unicode = 014A;
},
{
glyphname = Ntilde;
layers = (
{
anchors = (
{
name = bottom;
position = "{623, 175}";
},
{
name = top;
position = "{523, 676}";
}
);
layerId = "8D1DA624-BCA2-432D-8EAC-BD2525041625";
paths = (
{
closed = 1;
nodes = (
"913 507 LINE",
"888 507 LINE",
"888 42 LINE",
"264 520 LINE",
"220 520 LINE",
"908 -7 LINE",
"913 -7 LINE"
);
},
{
closed = 1;
nodes = (
"446 22 LINE",
"56 22 LINE",
"56 -1 LINE",
"446 -1 LINE"
);
},
{
closed = 1;
nodes = (
"264 520 LINE",
"239 520 LINE",
"239 10 LINE",
"264 10 LINE"
);
},
{
closed = 1;
nodes = (
"264 520 LINE",
"56 520 LINE",
"56 496 LINE",
"264 496 LINE"
);
},
{
closed = 1;
nodes = (
"1095 520 LINE",
"705 520 LINE",
"705 496 LINE",
"1095 496 LINE"
);
},
{
closed = 1;
nodes = (
"714 662 OFFCURVE",
"726 730 CURVE",
"705 733 LINE",
"693 666 OFFCURVE",
"658 639 OFFCURVE",
"621 639 CURVE SMOOTH",
"587 639 OFFCURVE",
"556 660 OFFCURVE",
"523 683 CURVE SMOOTH",
"488 707 OFFCURVE",
"455 733 OFFCURVE",
"410 733 CURVE SMOOTH",
"350 733 OFFCURVE",
"312 687 OFFCURVE",
"301 619 CURVE",
"322 615 LINE",
"333 683 OFFCURVE",
"368 711 OFFCURVE",
"407 711 CURVE SMOOTH",
"442 711 OFFCURVE",
"472 690 OFFCURVE",
"504 667 CURVE SMOOTH",
"539 642 OFFCURVE",
"574 617 OFFCURVE",
"618 617 CURVE SMOOTH",
"677 617 OFFCURVE"
);
}
);
userData = {
com.typemytype.robofont.layerData = {
bkgd = {
anchors = (
);
components = (
);
contours = (
);
lib = {
};
name = Ntilde;
unicodes = (
);
width = 1110;
};
mask = {
anchors = (
);
components = (
);
contours = (
);
lib = {
};
name = Ntilde;
unicodes = (
);
width = 1110;
};
};
};
width = 1110;
}
);
unicode = 00D1;
},
{
glyphname = O;
layers = (
{
anchors = (
{
name = bottom;
position = "{460, 155}";
},
{
name = center;
position = "{460, 410}";
},
{
name = ogonek;
position = "{461, 156}";
},
{
name = top;
position = "{460, 697}";
},
{
name = topright;
position = "{894, 656}";
}
);
layerId = "8D1DA624-BCA2-432D-8EAC-BD2525041625";
paths = (
{
closed = 1;
nodes = (
"844 88 OFFCURVE",
"844 259 CURVE",
"844 431 OFFCURVE",
"676 531 OFFCURVE",
"460 531 CURVE",
"242 531 OFFCURVE",
"75 431 OFFCURVE",
"75 259 CURVE",
"75 88 OFFCURVE",
"242 -11 OFFCURVE",
"460 -11 CURVE",
"676 -11 OFFCURVE"
);
},
{
closed = 1;
nodes = (
"100 105 OFFCURVE",
"100 259 CURVE",
"100 414 OFFCURVE",
"252 507 OFFCURVE",
"460 507 CURVE",
"666 507 OFFCURVE",
"819 414 OFFCURVE",
"819 259 CURVE",
"819 105 OFFCURVE",
"666 12 OFFCURVE",
"460 12 CURVE",
"252 12 OFFCURVE"
);
}
);
userData = {
com.typemytype.robofont.layerData = {
bkgd = {
anchors = (
);
components = (
);
contours = (
);
lib = {
};
name = O;
unicodes = (
);
width = 919;
};
mask = {
anchors = (
);
components = (
);
contours = (
);
lib = {
};
name = O;
unicodes = (
);
width = 919;
};
};
};
width = 919;
}
);
unicode = 004F;
},
{
glyphname = Oacute;
layers = (
{
anchors = (
{
name = bottom;
position = "{460, 155}";
},
{
name = center;
position = "{460, 410}";
},
{
name = ogonek;
position = "{461, 156}";
},
{
name = top;
position = "{460, 697}";
},
{
name = topright;
position = "{894, 656}";
}
);
layerId = "8D1DA624-BCA2-432D-8EAC-BD2525041625";
paths = (
{
closed = 1;
nodes = (
"844 88 OFFCURVE",
"844 259 CURVE",
"844 431 OFFCURVE",
"676 531 OFFCURVE",
"460 531 CURVE",
"242 531 OFFCURVE",
"75 431 OFFCURVE",
"75 259 CURVE",
"75 88 OFFCURVE",
"242 -11 OFFCURVE",
"460 -11 CURVE",
"676 -11 OFFCURVE"
);
},
{
closed = 1;
nodes = (
"100 105 OFFCURVE",
"100 259 CURVE",
"100 414 OFFCURVE",
"252 507 OFFCURVE",
"460 507 CURVE",
"666 507 OFFCURVE",
"819 414 OFFCURVE",
"819 259 CURVE",
"819 105 OFFCURVE",
"666 12 OFFCURVE",
"460 12 CURVE",
"252 12 OFFCURVE"
);
},
{
closed = 1;
nodes = (
"642 725 LINE",
"401 595 LINE",
"391 611 LINE",
"627 753 LINE"
);
}
);
userData = {
com.typemytype.robofont.layerData = {
bkgd = {
anchors = (
);
components = (
);
contours = (
);
lib = {
};
name = Oacute;
unicodes = (
);
width = 919;
};
mask = {
anchors = (
);
components = (
);
contours = (
);
lib = {
};
name = Oacute;
unicodes = (
);
width = 919;
};
};
};
width = 919;
}
);
unicode = 00D3;
},
{
glyphname = Ocircumflex;
layers = (
{
anchors = (
{
name = bottom;
position = "{460, 155}";
},
{
name = center;
position = "{460, 410}";
},
{
name = ogonek;
position = "{461, 156}";
},
{
name = top;
position = "{460, 697}";
},
{
name = topright;
position = "{894, 656}";
}
);
layerId = "8D1DA624-BCA2-432D-8EAC-BD2525041625";
paths = (
{
closed = 1;
nodes = (
"844 88 OFFCURVE",
"844 259 CURVE",
"844 431 OFFCURVE",
"676 531 OFFCURVE",
"460 531 CURVE",
"242 531 OFFCURVE",
"75 431 OFFCURVE",
"75 259 CURVE",
"75 88 OFFCURVE",
"242 -11 OFFCURVE",
"460 -11 CURVE",
"676 -11 OFFCURVE"
);
},
{
closed = 1;
nodes = (
"100 105 OFFCURVE",
"100 259 CURVE",
"100 414 OFFCURVE",
"252 507 OFFCURVE",
"460 507 CURVE",
"666 507 OFFCURVE",
"819 414 OFFCURVE",
"819 259 CURVE",
"819 105 OFFCURVE",
"666 12 OFFCURVE",
"460 12 CURVE",
"252 12 OFFCURVE"
);
},
{
closed = 1;
nodes = (
"627 583 LINE",
"638 596 LINE",
"470 738 LINE",
"450 738 LINE",
"283 596 LINE",
"293 583 LINE",
"460 711 LINE"
);
}
);
userData = {
com.typemytype.robofont.layerData = {
bkgd = {
anchors = (
);
components = (
);
contours = (
);
lib = {
};
name = Ocircumflex;
unicodes = (
);
width = 919;
};
mask = {
anchors = (
);
components = (
);
contours = (
);
lib = {
};
name = Ocircumflex;
unicodes = (
);
width = 919;
};
};
};
width = 919;
}
);
unicode = 00D4;
},
{
glyphname = Odieresis;
layers = (
{
anchors = (
{
name = bottom;
position = "{460, 155}";
},
{
name = center;
position = "{460, 410}";
},
{
name = ogonek;
position = "{461, 156}";
},
{
name = top;
position = "{460, 697}";
},
{
name = topright;
position = "{894, 656}";
}
);
layerId = "8D1DA624-BCA2-432D-8EAC-BD2525041625";
paths = (
{
closed = 1;
nodes = (
"844 88 OFFCURVE",
"844 259 CURVE",
"844 431 OFFCURVE",
"676 531 OFFCURVE",
"460 531 CURVE",
"242 531 OFFCURVE",
"75 431 OFFCURVE",
"75 259 CURVE",
"75 88 OFFCURVE",
"242 -11 OFFCURVE",
"460 -11 CURVE",
"676 -11 OFFCURVE"
);
},
{
closed = 1;
nodes = (
"100 105 OFFCURVE",
"100 259 CURVE",
"100 414 OFFCURVE",
"252 507 OFFCURVE",
"460 507 CURVE",
"666 507 OFFCURVE",
"819 414 OFFCURVE",
"819 259 CURVE",
"819 105 OFFCURVE",
"666 12 OFFCURVE",
"460 12 CURVE",
"252 12 OFFCURVE"
);
},
{
closed = 1;
nodes = (
"612 658 OFFCURVE",
"612 675 CURVE",
"612 692 OFFCURVE",
"597 703 OFFCURVE",
"567 703 CURVE",
"540 703 OFFCURVE",
"522 692 OFFCURVE",
"522 675 CURVE",
"522 658 OFFCURVE",
"540 645 OFFCURVE",
"567 645 CURVE",
"597 645 OFFCURVE"
);
},
{
closed = 1;
nodes = (
"390 658 OFFCURVE",
"390 675 CURVE",
"390 692 OFFCURVE",
"374 703 OFFCURVE",
"345 703 CURVE",
"316 703 OFFCURVE",
"300 692 OFFCURVE",
"300 675 CURVE",
"300 658 OFFCURVE",
"316 645 OFFCURVE",
"345 645 CURVE",
"374 645 OFFCURVE"
);
}
);
userData = {
com.typemytype.robofont.layerData = {
bkgd = {
anchors = (
);
components = (
);
contours = (
);
lib = {
};
name = Odieresis;
unicodes = (
);
width = 919;
};
mask = {
anchors = (
);
components = (
);
contours = (
);
lib = {
};
name = Odieresis;
unicodes = (
);
width = 919;
};
};
};
width = 919;
}
);
unicode = 00D6;
},
{
glyphname = Ograve;
layers = (
{
anchors = (
{
name = bottom;
position = "{460, 155}";
},
{
name = center;
position = "{460, 410}";
},
{
name = ogonek;
position = "{461, 156}";
},
{
name = top;
position = "{460, 697}";
},
{
name = topright;
position = "{894, 656}";
}
);
layerId = "8D1DA624-BCA2-432D-8EAC-BD2525041625";
paths = (
{
closed = 1;
nodes = (
"844 88 OFFCURVE",
"844 259 CURVE",
"844 431 OFFCURVE",
"676 531 OFFCURVE",
"460 531 CURVE",
"242 531 OFFCURVE",
"75 431 OFFCURVE",
"75 259 CURVE",
"75 88 OFFCURVE",
"242 -11 OFFCURVE",
"460 -11 CURVE",
"676 -11 OFFCURVE"
);
},
{
closed = 1;
nodes = (
"100 105 OFFCURVE",
"100 259 CURVE",
"100 414 OFFCURVE",
"252 507 OFFCURVE",
"460 507 CURVE",
"666 507 OFFCURVE",
"819 414 OFFCURVE",
"819 259 CURVE",
"819 105 OFFCURVE",
"666 12 OFFCURVE",
"460 12 CURVE",
"252 12 OFFCURVE"
);
},
{
closed = 1;
nodes = (
"277 725 LINE",
"293 753 LINE",
"528 611 LINE",
"519 595 LINE"
);
}
);
userData = {
com.typemytype.robofont.layerData = {
bkgd = {
anchors = (
);
components = (
);
contours = (
);
lib = {
};
name = Ograve;
unicodes = (
);
width = 919;
};
mask = {
anchors = (
);
components = (
);
contours = (
);
lib = {
};
name = Ograve;
unicodes = (
);
width = 919;
};
};
};
width = 919;
}
);
unicode = 00D2;
},
{
glyphname = Ohungarumlaut;
layers = (
{
anchors = (
{
name = bottom;
position = "{460, 155}";
},
{
name = center;
position = "{460, 410}";
},
{
name = ogonek;
position = "{461, 156}";
},
{
name = top;
position = "{460, 697}";
},
{
name = topright;
position = "{894, 656}";
}
);
layerId = "8D1DA624-BCA2-432D-8EAC-BD2525041625";
paths = (
{
closed = 1;
nodes = (
"844 88 OFFCURVE",
"844 259 CURVE",
"844 431 OFFCURVE",
"676 531 OFFCURVE",
"460 531 CURVE",
"242 531 OFFCURVE",
"75 431 OFFCURVE",
"75 259 CURVE",
"75 88 OFFCURVE",
"242 -11 OFFCURVE",
"460 -11 CURVE",
"676 -11 OFFCURVE"
);
},
{
closed = 1;
nodes = (
"100 105 OFFCURVE",
"100 259 CURVE",
"100 414 OFFCURVE",
"252 507 OFFCURVE",
"460 507 CURVE",
"666 507 OFFCURVE",
"819 414 OFFCURVE",
"819 259 CURVE",
"819 105 OFFCURVE",
"666 12 OFFCURVE",
"460 12 CURVE",
"252 12 OFFCURVE"
);
},
{
closed = 1;
nodes = (
"667 795 LINE",
"499 627 LINE",
"508 617 LINE",
"683 775 LINE"
);
},
{
closed = 1;
nodes = (
"470 795 LINE",
"302 627 LINE",
"312 617 LINE",
"487 775 LINE"
);
}
);
userData = {
com.typemytype.robofont.layerData = {
bkgd = {
anchors = (
);
components = (
);
contours = (
);
lib = {
};
name = Ohungarumlaut;
unicodes = (
);
width = 919;
};
mask = {
anchors = (
);
components = (
);
contours = (
);
lib = {
};
name = Ohungarumlaut;
unicodes = (
);
width = 919;
};
};
};
width = 919;
}
);
unicode = 0150;
},
{
glyphname = Omacron;
layers = (
{
anchors = (
{
name = bottom;
position = "{460, 155}";
},
{
name = center;
position = "{460, 410}";
},
{
name = ogonek;
position = "{461, 156}";
},
{
name = top;
position = "{460, 697}";
},
{
name = topright;
position = "{894, 656}";
}
);
layerId = "8D1DA624-BCA2-432D-8EAC-BD2525041625";
paths = (
{
closed = 1;
nodes = (
"844 88 OFFCURVE",
"844 259 CURVE",
"844 431 OFFCURVE",
"676 531 OFFCURVE",
"460 531 CURVE",
"242 531 OFFCURVE",
"75 431 OFFCURVE",
"75 259 CURVE",
"75 88 OFFCURVE",
"242 -11 OFFCURVE",
"460 -11 CURVE",
"676 -11 OFFCURVE"
);
},
{
closed = 1;
nodes = (
"100 105 OFFCURVE",
"100 259 CURVE",
"100 414 OFFCURVE",
"252 507 OFFCURVE",
"460 507 CURVE",
"666 507 OFFCURVE",
"819 414 OFFCURVE",
"819 259 CURVE",
"819 105 OFFCURVE",
"666 12 OFFCURVE",
"460 12 CURVE",
"252 12 OFFCURVE"
);
},
{
closed = 1;
nodes = (
"215 664 LINE",
"694 664 LINE",
"694 688 LINE",
"215 688 LINE"
);
}
);
userData = {
com.typemytype.robofont.layerData = {
bkgd = {
anchors = (
);
components = (
);
contours = (
);
lib = {
};
name = Omacron;
unicodes = (
);
width = 919;
};
mask = {
anchors = (
);
components = (
);
contours = (
);
lib = {
};
name = Omacron;
unicodes = (
);
width = 919;
};
};
};
width = 919;
}
);
unicode = 014C;
},
{
glyphname = Oslash;
layers = (
{
anchors = (
{
name = bottom;
position = "{460, 155}";
},
{
name = center;
position = "{460, 410}";
},
{
name = ogonek;
position = "{461, 156}";
},
{
name = top;
position = "{460, 697}";
},
{
name = topright;
position = "{894, 656}";
}
);
layerId = "8D1DA624-BCA2-432D-8EAC-BD2525041625";
paths = (
{
closed = 1;
nodes = (
"340 14 LINE",
"593 503 LINE",
"597 510 LINE",
"634 582 LINE",
"606 582 LINE",
"571 515 LINE",
"567 507 LINE",
"315 22 LINE",
"309 13 LINE",
"272 -61 LINE",
"300 -61 LINE",
"336 8 LINE"
);
},
{
closed = 1;
nodes = (
"844 88 OFFCURVE",
"844 259 CURVE",
"844 431 OFFCURVE",
"676 531 OFFCURVE",
"460 531 CURVE",
"242 531 OFFCURVE",
"75 431 OFFCURVE",
"75 259 CURVE",
"75 88 OFFCURVE",
"242 -11 OFFCURVE",
"460 -11 CURVE",
"676 -11 OFFCURVE"
);
},
{
closed = 1;
nodes = (
"100 105 OFFCURVE",
"100 259 CURVE",
"100 414 OFFCURVE",
"252 507 OFFCURVE",
"460 507 CURVE",
"666 507 OFFCURVE",
"819 414 OFFCURVE",
"819 259 CURVE",
"819 105 OFFCURVE",
"666 12 OFFCURVE",
"460 12 CURVE",
"252 12 OFFCURVE"
);
}
);
userData = {
com.typemytype.robofont.layerData = {
bkgd = {
anchors = (
);
components = (
);
contours = (
);
lib = {
};
name = Oslash;
unicodes = (
);
width = 909;
};
mask = {
anchors = (
);
components = (
);
contours = (
);
lib = {
};
name = Oslash;
unicodes = (
);
width = 909;
};
};
};
width = 909;
}
);
unicode = 00D8;
},
{
glyphname = Otilde;
layers = (
{
anchors = (
{
name = bottom;
position = "{460, 155}";
},
{
name = center;
position = "{460, 410}";
},
{
name = ogonek;
position = "{461, 156}";
},
{
name = top;
position = "{460, 697}";
},
{
name = topright;
position = "{894, 656}";
}
);
layerId = "8D1DA624-BCA2-432D-8EAC-BD2525041625";
paths = (
{
closed = 1;
nodes = (
"844 88 OFFCURVE",
"844 259 CURVE",
"844 431 OFFCURVE",
"676 531 OFFCURVE",
"460 531 CURVE",
"242 531 OFFCURVE",
"75 431 OFFCURVE",
"75 259 CURVE",
"75 88 OFFCURVE",
"242 -11 OFFCURVE",
"460 -11 CURVE",
"676 -11 OFFCURVE"
);
},
{
closed = 1;
nodes = (
"100 105 OFFCURVE",
"100 259 CURVE",
"100 414 OFFCURVE",
"252 507 OFFCURVE",
"460 507 CURVE",
"666 507 OFFCURVE",
"819 414 OFFCURVE",
"819 259 CURVE",
"819 105 OFFCURVE",
"666 12 OFFCURVE",
"460 12 CURVE",
"252 12 OFFCURVE"
);
},
{
closed = 1;
nodes = (
"651 683 OFFCURVE",
"663 750 CURVE",
"641 753 LINE",
"630 686 OFFCURVE",
"595 660 OFFCURVE",
"558 660 CURVE SMOOTH",
"524 660 OFFCURVE",
"492 680 OFFCURVE",
"460 703 CURVE SMOOTH",
"425 727 OFFCURVE",
"392 753 OFFCURVE",
"347 753 CURVE SMOOTH",
"287 753 OFFCURVE",
"249 708 OFFCURVE",
"238 639 CURVE",
"259 636 LINE",
"270 703 OFFCURVE",
"305 731 OFFCURVE",
"344 731 CURVE SMOOTH",
"379 731 OFFCURVE",
"409 711 OFFCURVE",
"441 687 CURVE SMOOTH",
"476 663 OFFCURVE",
"511 637 OFFCURVE",
"555 637 CURVE SMOOTH",
"614 637 OFFCURVE"
);
}
);
userData = {
com.typemytype.robofont.layerData = {
bkgd = {
anchors = (
);
components = (
);
contours = (
);
lib = {
};
name = Otilde;
unicodes = (
);
width = 919;
};
mask = {
anchors = (
);
components = (
);
contours = (
);
lib = {
};
name = Otilde;
unicodes = (
);
width = 919;
};
};
};
width = 919;
}
);
unicode = 00D5;
},
{
glyphname = OE;
layers = (
{
anchors = (
{
name = bottom;
position = "{763, 165}";
},
{
name = center;
position = "{763, 410}";
},
{
name = ogonek;
position = "{1329, 165}";
},
{
name = top;
position = "{763, 686}";
}
);
layerId = "8D1DA624-BCA2-432D-8EAC-BD2525041625";
paths = (
{
closed = 1;
nodes = (
"1329 183 LINE",
"1305 183 LINE",
"1305 22 LINE",
"420 22 LINE SMOOTH",
"226 22 OFFCURVE",
"100 100 OFFCURVE",
"100 259 CURVE SMOOTH",
"100 418 OFFCURVE",
"226 497 OFFCURVE",
"420 497 CURVE SMOOTH",
"1304 497 LINE",
"1304 336 LINE",
"1329 336 LINE",
"1329 520 LINE",
"420 520 LINE SMOOTH",
"215 520 OFFCURVE",
"75 435 OFFCURVE",
"75 259 CURVE SMOOTH",
"75 84 OFFCURVE",
"215 -1 OFFCURVE",
"420 -1 CURVE SMOOTH",
"1329 -1 LINE"
);
},
{
closed = 1;
nodes = (
"728 507 LINE",
"703 507 LINE",
"703 12 LINE",
"728 12 LINE"
);
},
{
closed = 1;
nodes = (
"1050 284 LINE",
"726 284 LINE",
"726 260 LINE",
"1050 260 LINE"
);
},
{
closed = 1;
nodes = (
"1062 392 LINE",
"1037 392 LINE",
"1037 152 LINE",
"1062 152 LINE"
);
}
);
userData = {
com.typemytype.robofont.layerData = {
bkgd = {
anchors = (
);
components = (
);
contours = (
);
lib = {
};
name = OE;
unicodes = (
);
width = 1460;
};
mask = {
anchors = (
);
components = (
);
contours = (
);
lib = {
};
name = OE;
unicodes = (
);
width = 1460;
};
};
};
width = 1460;
}
);
unicode = 0152;
},
{
glyphname = P;
layers = (
{
anchors = (
{
name = bottom;
position = "{463, 165}";
},
{
name = top;
position = "{463, 686}";
}
);
layerId = "8D1DA624-BCA2-432D-8EAC-BD2525041625";
paths = (
{
closed = 1;
nodes = (
"809 213 OFFCURVE",
"877 278 OFFCURVE",
"877 365 CURVE SMOOTH",
"877 461 OFFCURVE",
"807 520 OFFCURVE",
"696 520 CURVE SMOOTH",
"56 520 LINE",
"56 496 LINE",
"703 496 LINE SMOOTH",
"793 496 OFFCURVE",
"852 445 OFFCURVE",
"852 365 CURVE SMOOTH",
"852 286 OFFCURVE",
"789 237 OFFCURVE",
"703 237 CURVE SMOOTH",
"252 237 LINE",
"252 213 LINE",
"696 213 LINE SMOOTH"
);
},
{
closed = 1;
nodes = (
"457 22 LINE",
"56 22 LINE",
"56 -1 LINE",
"457 -1 LINE"
);
},
{
closed = 1;
nodes = (
"264 507 LINE",
"239 507 LINE",
"239 12 LINE",
"264 12 LINE"
);
}
);
userData = {
com.typemytype.robofont.layerData = {
bkgd = {
anchors = (
);
components = (
);
contours = (
);
lib = {
};
name = P;
unicodes = (
);
width = 937;
};
mask = {
anchors = (
);
components = (
);
contours = (
);
lib = {
};
name = P;
unicodes = (
);
width = 937;
};
};
};
width = 937;
}
);
unicode = 0050;
},
{
glyphname = Thorn;
layers = (
{
layerId = "8D1DA624-BCA2-432D-8EAC-BD2525041625";
paths = (
{
closed = 1;
nodes = (
"767 142 OFFCURVE",
"825 188 OFFCURVE",
"825 259 CURVE SMOOTH",
"825 332 OFFCURVE",
"767 376 OFFCURVE",
"674 376 CURVE SMOOTH",
"250 376 LINE",
"250 354 LINE",
"682 354 LINE SMOOTH",
"747 354 OFFCURVE",
"800 323 OFFCURVE",
"800 259 CURVE SMOOTH",
"800 196 OFFCURVE",
"747 165 OFFCURVE",
"682 165 CURVE SMOOTH",
"250 165 LINE",
"250 142 LINE",
"674 142 LINE SMOOTH"
);
},
{
closed = 1;
nodes = (
"446 22 LINE",
"255 22 LINE",
"247 22 LINE",
"56 22 LINE",
"56 -1 LINE",
"446 -1 LINE"
);
},
{
closed = 1;
nodes = (
"264 507 LINE SMOOTH",
"239 507 LINE SMOOTH",
"239 12 LINE SMOOTH",
"264 12 LINE SMOOTH"
);
},
{
closed = 1;
nodes = (
"252 497 LINE",
"446 497 LINE SMOOTH",
"446 520 LINE SMOOTH",
"56 520 LINE SMOOTH",
"56 497 LINE SMOOTH",
"245 497 LINE"
);
}
);
userData = {
com.typemytype.robofont.layerData = {
bkgd = {
anchors = (
);
components = (
);
contours = (
);
lib = {
};
name = Thorn;
unicodes = (
);
width = 885;
};
mask = {
anchors = (
);
components = (
);
contours = (
);
lib = {
};
name = Thorn;
unicodes = (
);
width = 885;
};
};
};
width = 885;
}
);
unicode = 00DE;
},
{
glyphname = Q;
layers = (
{
anchors = (
{
name = bottom;
position = "{458, 155}";
},
{
name = top;
position = "{458, 697}";
}
);
layerId = "8D1DA624-BCA2-432D-8EAC-BD2525041625";
paths = (
{
closed = 1;
nodes = (
"844 88 OFFCURVE",
"844 259 CURVE",
"844 431 OFFCURVE",
"676 531 OFFCURVE",
"460 531 CURVE",
"242 531 OFFCURVE",
"75 431 OFFCURVE",
"75 259 CURVE",
"75 88 OFFCURVE",
"242 -11 OFFCURVE",
"460 -11 CURVE",
"676 -11 OFFCURVE"
);
},
{
closed = 1;
nodes = (
"894 -101 OFFCURVE",
"904 -15 CURVE",
"882 -10 LINE",
"872 -88 OFFCURVE",
"816 -137 OFFCURVE",
"738 -137 CURVE SMOOTH",
"660 -137 OFFCURVE",
"603 -82 OFFCURVE",
"535 0 CURVE SMOOTH",
"517 22 LINE SMOOTH",
"423 133 OFFCURVE",
"356 223 OFFCURVE",
"180 223 CURVE SMOOTH",
"99 223 LINE",
"99 199 LINE",
"180 199 LINE SMOOTH",
"342 199 OFFCURVE",
"410 113 OFFCURVE",
"492 15 CURVE SMOOTH",
"505 -1 LINE SMOOTH",
"587 -101 OFFCURVE",
"646 -160 OFFCURVE",
"738 -160 CURVE SMOOTH",
"831 -160 OFFCURVE"
);
},
{
closed = 1;
nodes = (
"100 105 OFFCURVE",
"100 259 CURVE",
"100 414 OFFCURVE",
"252 507 OFFCURVE",
"460 507 CURVE",
"666 507 OFFCURVE",
"819 414 OFFCURVE",
"819 259 CURVE",
"819 105 OFFCURVE",
"666 12 OFFCURVE",
"460 12 CURVE",
"252 12 OFFCURVE"
);
}
);
userData = {
com.typemytype.robofont.layerData = {
bkgd = {
anchors = (
);
components = (
);
contours = (
);
lib = {
};
name = Q;
unicodes = (
);
width = 920;
};
mask = {
anchors = (
);
components = (
);
contours = (
);
lib = {
};
name = Q;
unicodes = (
);
width = 920;
};
};
};
width = 920;
}
);
unicode = 0051;
},
{
glyphname = R;
layers = (
{
anchors = (
{
name = bottom;
position = "{566, 165}";
},
{
name = top;
position = "{526, 686}";
}
);
layerId = "8D1DA624-BCA2-432D-8EAC-BD2525041625";
paths = (
{
closed = 1;
nodes = (
"844 240 OFFCURVE",
"903 309 OFFCURVE",
"903 378 CURVE SMOOTH",
"903 457 OFFCURVE",
"843 520 OFFCURVE",
"719 520 CURVE SMOOTH",
"56 520 LINE",
"56 496 LINE",
"719 496 LINE SMOOTH",
"828 496 OFFCURVE",
"878 441 OFFCURVE",
"878 378 CURVE SMOOTH",
"878 316 OFFCURVE",
"826 263 OFFCURVE",
"719 263 CURVE SMOOTH",
"259 263 LINE",
"259 240 LINE",
"719 240 LINE SMOOTH"
);
},
{
closed = 1;
nodes = (
"446 23 LINE",
"56 21 LINE",
"56 -2 LINE",
"446 -1 LINE"
);
},
{
closed = 1;
nodes = (
"264 507 LINE",
"239 507 LINE",
"239 12 LINE",
"264 12 LINE"
);
},
{
closed = 1;
nodes = (
"1015 63 OFFCURVE",
"1015 154 CURVE SMOOTH",
"1015 175 LINE",
"990 175 LINE",
"990 154 LINE SMOOTH",
"990 74 OFFCURVE",
"934 12 OFFCURVE",
"857 12 CURVE SMOOTH",
"777 12 OFFCURVE",
"736 66 OFFCURVE",
"677 138 CURVE SMOOTH",
"603 226 OFFCURVE",
"570 252 OFFCURVE",
"461 252 CURVE SMOOTH",
"259 252 LINE",
"259 239 LINE",
"473 239 LINE SMOOTH",
"558 239 OFFCURVE",
"597 200 OFFCURVE",
"657 124 CURVE SMOOTH",
"716 48 OFFCURVE",
"768 -11 OFFCURVE",
"857 -11 CURVE SMOOTH",
"952 -11 OFFCURVE"
);
}
);
userData = {
com.typemytype.robofont.layerData = {
bkgd = {
anchors = (
);
components = (
);
contours = (
);
lib = {
};
name = R;
unicodes = (
);
width = 1060;
};
mask = {
anchors = (
);
components = (
);
contours = (
);
lib = {
};
name = R;
unicodes = (
);
width = 1060;
};
};
};
width = 1060;
}
);
unicode = 0052;
},
{
glyphname = Racute;
layers = (
{
anchors = (
{
name = bottom;
position = "{566, 165}";
},
{
name = top;
position = "{526, 686}";
}
);
layerId = "8D1DA624-BCA2-432D-8EAC-BD2525041625";
paths = (
{
closed = 1;
nodes = (
"844 240 OFFCURVE",
"903 309 OFFCURVE",
"903 378 CURVE SMOOTH",
"903 457 OFFCURVE",
"843 520 OFFCURVE",
"719 520 CURVE SMOOTH",
"56 520 LINE",
"56 496 LINE",
"719 496 LINE SMOOTH",
"828 496 OFFCURVE",
"878 441 OFFCURVE",
"878 378 CURVE SMOOTH",
"878 316 OFFCURVE",
"826 263 OFFCURVE",
"719 263 CURVE SMOOTH",
"259 263 LINE",
"259 240 LINE",
"719 240 LINE SMOOTH"
);
},
{
closed = 1;
nodes = (
"446 23 LINE",
"56 21 LINE",
"56 -2 LINE",
"446 -1 LINE"
);
},
{
closed = 1;
nodes = (
"264 507 LINE",
"239 507 LINE",
"239 12 LINE",
"264 12 LINE"
);
},
{
closed = 1;
nodes = (
"1015 63 OFFCURVE",
"1015 154 CURVE SMOOTH",
"1015 175 LINE",
"990 175 LINE",
"990 154 LINE SMOOTH",
"990 74 OFFCURVE",
"934 12 OFFCURVE",
"857 12 CURVE SMOOTH",
"777 12 OFFCURVE",
"736 66 OFFCURVE",
"677 138 CURVE SMOOTH",
"603 226 OFFCURVE",
"570 252 OFFCURVE",
"461 252 CURVE SMOOTH",
"259 252 LINE",
"259 239 LINE",
"473 239 LINE SMOOTH",
"558 239 OFFCURVE",
"597 200 OFFCURVE",
"657 124 CURVE SMOOTH",
"716 48 OFFCURVE",
"768 -11 OFFCURVE",
"857 -11 CURVE SMOOTH",
"952 -11 OFFCURVE"
);
},
{
closed = 1;
nodes = (
"708 715 LINE",
"467 585 LINE",
"458 601 LINE",
"693 742 LINE"
);
}
);
userData = {
com.typemytype.robofont.layerData = {
bkgd = {
anchors = (
);
components = (
);
contours = (
);
lib = {
};
name = Racute;
unicodes = (
);
width = 1060;
};
mask = {
anchors = (
);
components = (
);
contours = (
);
lib = {
};
name = Racute;
unicodes = (
);
width = 1060;
};
};
};
width = 1060;
}
);
unicode = 0154;
},
{
glyphname = Rcaron;
layers = (
{
anchors = (
{
name = bottom;
position = "{566, 165}";
},
{
name = top;
position = "{526, 686}";
}
);
layerId = "8D1DA624-BCA2-432D-8EAC-BD2525041625";
paths = (
{
closed = 1;
nodes = (
"844 240 OFFCURVE",
"903 309 OFFCURVE",
"903 378 CURVE SMOOTH",
"903 457 OFFCURVE",
"843 520 OFFCURVE",
"719 520 CURVE SMOOTH",
"56 520 LINE",
"56 496 LINE",
"719 496 LINE SMOOTH",
"828 496 OFFCURVE",
"878 441 OFFCURVE",
"878 378 CURVE SMOOTH",
"878 316 OFFCURVE",
"826 263 OFFCURVE",
"719 263 CURVE SMOOTH",
"259 263 LINE",
"259 240 LINE",
"719 240 LINE SMOOTH"
);
},
{
closed = 1;
nodes = (
"446 23 LINE",
"56 21 LINE",
"56 -2 LINE",
"446 -1 LINE"
);
},
{
closed = 1;
nodes = (
"264 507 LINE",
"239 507 LINE",
"239 12 LINE",
"264 12 LINE"
);
},
{
closed = 1;
nodes = (
"1015 63 OFFCURVE",
"1015 154 CURVE SMOOTH",
"1015 175 LINE",
"990 175 LINE",
"990 154 LINE SMOOTH",
"990 74 OFFCURVE",
"934 12 OFFCURVE",
"857 12 CURVE SMOOTH",
"777 12 OFFCURVE",
"736 66 OFFCURVE",
"677 138 CURVE SMOOTH",
"603 226 OFFCURVE",
"570 252 OFFCURVE",
"461 252 CURVE SMOOTH",
"259 252 LINE",
"259 239 LINE",
"473 239 LINE SMOOTH",
"558 239 OFFCURVE",
"597 200 OFFCURVE",
"657 124 CURVE SMOOTH",
"716 48 OFFCURVE",
"768 -11 OFFCURVE",
"857 -11 CURVE SMOOTH",
"952 -11 OFFCURVE"
);
},
{
closed = 1;
nodes = (
"359 744 LINE",
"349 731 LINE",
"516 589 LINE",
"536 589 LINE",
"704 731 LINE",
"693 744 LINE",
"526 617 LINE"
);
}
);
userData = {
com.typemytype.robofont.layerData = {
bkgd = {
anchors = (
);
components = (
);
contours = (
);
lib = {
};
name = Rcaron;
unicodes = (
);
width = 1060;
};
mask = {
anchors = (
);
components = (
);
contours = (
);
lib = {
};
name = Rcaron;
unicodes = (
);
width = 1060;
};
};
};
width = 1060;
}
);
unicode = 0158;
},
{
glyphname = Rcommaaccent;
layers = (
{
anchors = (
{
name = bottom;
position = "{566, 165}";
},
{
name = top;
position = "{526, 686}";
}
);
layerId = "8D1DA624-BCA2-432D-8EAC-BD2525041625";
paths = (
{
closed = 1;
nodes = (
"844 240 OFFCURVE",
"903 309 OFFCURVE",
"903 378 CURVE SMOOTH",
"903 457 OFFCURVE",
"843 520 OFFCURVE",
"719 520 CURVE SMOOTH",
"56 520 LINE",
"56 496 LINE",
"719 496 LINE SMOOTH",
"828 496 OFFCURVE",
"878 441 OFFCURVE",
"878 378 CURVE SMOOTH",
"878 316 OFFCURVE",
"826 263 OFFCURVE",
"719 263 CURVE SMOOTH",
"259 263 LINE",
"259 240 LINE",
"719 240 LINE SMOOTH"
);
},
{
closed = 1;
nodes = (
"446 23 LINE",
"56 21 LINE",
"56 -2 LINE",
"446 -1 LINE"
);
},
{
closed = 1;
nodes = (
"264 507 LINE",
"239 507 LINE",
"239 12 LINE",
"264 12 LINE"
);
},
{
closed = 1;
nodes = (
"1015 63 OFFCURVE",
"1015 154 CURVE SMOOTH",
"1015 175 LINE",
"990 175 LINE",
"990 154 LINE SMOOTH",
"990 74 OFFCURVE",
"934 12 OFFCURVE",
"857 12 CURVE SMOOTH",
"777 12 OFFCURVE",
"736 66 OFFCURVE",
"677 138 CURVE SMOOTH",
"603 226 OFFCURVE",
"570 252 OFFCURVE",
"461 252 CURVE SMOOTH",
"259 252 LINE",
"259 239 LINE",
"473 239 LINE SMOOTH",
"558 239 OFFCURVE",
"597 200 OFFCURVE",
"657 124 CURVE SMOOTH",
"716 48 OFFCURVE",
"768 -11 OFFCURVE",
"857 -11 CURVE SMOOTH",
"952 -11 OFFCURVE"
);
},
{
closed = 1;
nodes = (
"596 -86 OFFCURVE",
"566 -86 CURVE SMOOTH",
"539 -86 OFFCURVE",
"521 -101 OFFCURVE",
"521 -118 CURVE SMOOTH",
"521 -135 OFFCURVE",
"538 -146 OFFCURVE",
"561 -146 CURVE SMOOTH",
"574 -146 OFFCURVE",
"584 -143 OFFCURVE",
"596 -142 CURVE",
"589 -186 OFFCURVE",
"556 -222 OFFCURVE",
"506 -267 CURVE",
"518 -279 LINE",
"579 -232 OFFCURVE",
"616 -177 OFFCURVE",
"616 -134 CURVE SMOOTH",
"616 -105 OFFCURVE"
);
}
);
userData = {
com.typemytype.robofont.layerData = {
bkgd = {
anchors = (
);
components = (
);
contours = (
);
lib = {
};
name = Rcommaaccent;
unicodes = (
);
width = 1060;
};
mask = {
anchors = (
);
components = (
);
contours = (
);
lib = {
};
name = Rcommaaccent;
unicodes = (
);
width = 1060;
};
};
};
width = 1060;
}
);
unicode = 0156;
},
{
glyphname = S;
layers = (
{
anchors = (
{
name = bottom;
position = "{471, 155}";
},
{
name = top;
position = "{451, 697}";
}
);
layerId = "8D1DA624-BCA2-432D-8EAC-BD2525041625";
paths = (
{
closed = 1;
nodes = (
"779 33 OFFCURVE",
"779 123 CURVE SMOOTH",
"779 218 OFFCURVE",
"682 249 OFFCURVE",
"442 268 CURVE SMOOTH",
"217 285 OFFCURVE",
"142 316 OFFCURVE",
"142 385 CURVE SMOOTH",
"142 468 OFFCURVE",
"234 507 OFFCURVE",
"373 507 CURVE SMOOTH",
"541 507 OFFCURVE",
"652 444 OFFCURVE",
"738 344 CURVE",
"744 346 LINE",
"744 520 LINE",
"720 520 LINE",
"720 378 LINE",
"736 378 LINE",
"668 453 OFFCURVE",
"560 531 OFFCURVE",
"375 531 CURVE SMOOTH",
"212 531 OFFCURVE",
"117 480 OFFCURVE",
"117 385 CURVE SMOOTH",
"117 305 OFFCURVE",
"195 260 OFFCURVE",
"441 243 CURVE SMOOTH",
"667 227 OFFCURVE",
"755 200 OFFCURVE",
"755 123 CURVE SMOOTH",
"755 46 OFFCURVE",
"659 12 OFFCURVE",
"535 12 CURVE SMOOTH",
"385 12 OFFCURVE",
"211 72 OFFCURVE",
"122 176 CURVE",
"116 174 LINE",
"116 -1 LINE",
"139 -1 LINE",
"139 139 LINE",
"124 139 LINE",
"197 64 OFFCURVE",
"361 -11 OFFCURVE",
"534 -11 CURVE SMOOTH",
"676 -11 OFFCURVE"
);
}
);
userData = {
com.typemytype.robofont.layerData = {
bkgd = {
anchors = (
);
components = (
);
contours = (
);
lib = {
};
name = S;
unicodes = (
);
width = 869;
};
mask = {
anchors = (
);
components = (
);
contours = (
);
lib = {
};
name = S;
unicodes = (
);
width = 869;
};
};
};
width = 869;
}
);
unicode = 0053;
},
{
glyphname = Sacute;
layers = (
{
anchors = (
{
name = bottom;
position = "{471, 155}";
},
{
name = top;
position = "{451, 697}";
}
);
layerId = "8D1DA624-BCA2-432D-8EAC-BD2525041625";
paths = (
{
closed = 1;
nodes = (
"779 33 OFFCURVE",
"779 123 CURVE SMOOTH",
"779 218 OFFCURVE",
"682 249 OFFCURVE",
"442 268 CURVE SMOOTH",
"217 285 OFFCURVE",
"142 316 OFFCURVE",
"142 385 CURVE SMOOTH",
"142 468 OFFCURVE",
"234 507 OFFCURVE",
"373 507 CURVE SMOOTH",
"541 507 OFFCURVE",
"652 444 OFFCURVE",
"738 344 CURVE",
"744 346 LINE",
"744 520 LINE",
"720 520 LINE",
"720 378 LINE",
"736 378 LINE",
"668 453 OFFCURVE",
"560 531 OFFCURVE",
"375 531 CURVE SMOOTH",
"212 531 OFFCURVE",
"117 480 OFFCURVE",
"117 385 CURVE SMOOTH",
"117 305 OFFCURVE",
"195 260 OFFCURVE",
"441 243 CURVE SMOOTH",
"667 227 OFFCURVE",
"755 200 OFFCURVE",
"755 123 CURVE SMOOTH",
"755 46 OFFCURVE",
"659 12 OFFCURVE",
"535 12 CURVE SMOOTH",
"385 12 OFFCURVE",
"211 72 OFFCURVE",
"122 176 CURVE",
"116 174 LINE",
"116 -1 LINE",
"139 -1 LINE",
"139 139 LINE",
"124 139 LINE",
"197 64 OFFCURVE",
"361 -11 OFFCURVE",
"534 -11 CURVE SMOOTH",
"676 -11 OFFCURVE"
);
},
{
closed = 1;
nodes = (
"634 725 LINE",
"392 595 LINE",
"383 611 LINE",
"619 753 LINE"
);
}
);
userData = {
com.typemytype.robofont.layerData = {
bkgd = {
anchors = (
);
components = (
);
contours = (
);
lib = {
};
name = Sacute;
unicodes = (
);
width = 869;
};
mask = {
anchors = (
);
components = (
);
contours = (
);
lib = {
};
name = Sacute;
unicodes = (
);
width = 869;
};
};
};
width = 869;
}
);
unicode = 015A;
},
{
glyphname = Scaron;
layers = (
{
anchors = (
{
name = bottom;
position = "{471, 155}";
},
{
name = top;
position = "{451, 697}";
}
);
layerId = "8D1DA624-BCA2-432D-8EAC-BD2525041625";
paths = (
{
closed = 1;
nodes = (
"779 33 OFFCURVE",
"779 123 CURVE SMOOTH",
"779 218 OFFCURVE",
"682 249 OFFCURVE",
"442 268 CURVE SMOOTH",
"217 285 OFFCURVE",
"142 316 OFFCURVE",
"142 385 CURVE SMOOTH",
"142 468 OFFCURVE",
"234 507 OFFCURVE",
"373 507 CURVE SMOOTH",
"541 507 OFFCURVE",
"652 444 OFFCURVE",
"738 344 CURVE",
"744 346 LINE",
"744 520 LINE",
"720 520 LINE",
"720 378 LINE",
"736 378 LINE",
"668 453 OFFCURVE",
"560 531 OFFCURVE",
"375 531 CURVE SMOOTH",
"212 531 OFFCURVE",
"117 480 OFFCURVE",
"117 385 CURVE SMOOTH",
"117 305 OFFCURVE",
"195 260 OFFCURVE",
"441 243 CURVE SMOOTH",
"667 227 OFFCURVE",
"755 200 OFFCURVE",
"755 123 CURVE SMOOTH",
"755 46 OFFCURVE",
"659 12 OFFCURVE",
"535 12 CURVE SMOOTH",
"385 12 OFFCURVE",
"211 72 OFFCURVE",
"122 176 CURVE",
"116 174 LINE",
"116 -1 LINE",
"139 -1 LINE",
"139 139 LINE",
"124 139 LINE",
"197 64 OFFCURVE",
"361 -11 OFFCURVE",
"534 -11 CURVE SMOOTH",
"676 -11 OFFCURVE"
);
},
{
closed = 1;
nodes = (
"285 755 LINE",
"274 742 LINE",
"442 600 LINE",
"461 600 LINE",
"629 742 LINE",
"619 755 LINE",
"451 627 LINE"
);
}
);
userData = {
com.typemytype.robofont.layerData = {
bkgd = {
anchors = (
);
components = (
);
contours = (
);
lib = {
};
name = Scaron;
unicodes = (
);
width = 869;
};
mask = {
anchors = (
);
components = (
);
contours = (
);
lib = {
};
name = Scaron;
unicodes = (
);
width = 869;
};
};
};
width = 869;
}
);
unicode = 0160;
},
{
glyphname = Scedilla;
layers = (
{
anchors = (
{
name = bottom;
position = "{471, 155}";
},
{
name = top;
position = "{451, 697}";
}
);
layerId = "8D1DA624-BCA2-432D-8EAC-BD2525041625";
paths = (
{
closed = 1;
nodes = (
"779 33 OFFCURVE",
"779 123 CURVE SMOOTH",
"779 218 OFFCURVE",
"682 249 OFFCURVE",
"442 268 CURVE SMOOTH",
"217 285 OFFCURVE",
"142 316 OFFCURVE",
"142 385 CURVE SMOOTH",
"142 468 OFFCURVE",
"234 507 OFFCURVE",
"373 507 CURVE SMOOTH",
"541 507 OFFCURVE",
"652 444 OFFCURVE",
"738 344 CURVE",
"744 346 LINE",
"744 520 LINE",
"720 520 LINE",
"720 378 LINE",
"736 378 LINE",
"668 453 OFFCURVE",
"560 531 OFFCURVE",
"375 531 CURVE SMOOTH",
"212 531 OFFCURVE",
"117 480 OFFCURVE",
"117 385 CURVE SMOOTH",
"117 305 OFFCURVE",
"195 260 OFFCURVE",
"441 243 CURVE SMOOTH",
"667 227 OFFCURVE",
"755 200 OFFCURVE",
"755 123 CURVE SMOOTH",
"755 46 OFFCURVE",
"659 12 OFFCURVE",
"535 12 CURVE SMOOTH",
"385 12 OFFCURVE",
"211 72 OFFCURVE",
"122 176 CURVE",
"116 174 LINE",
"116 -1 LINE",
"139 -1 LINE",
"139 139 LINE",
"124 139 LINE",
"197 64 OFFCURVE",
"361 -11 OFFCURVE",
"534 -11 CURVE SMOOTH",
"676 -11 OFFCURVE"
);
},
{
closed = 1;
nodes = (
"595 -165 OFFCURVE",
"595 -127 CURVE SMOOTH",
"595 -90 OFFCURVE",
"558 -68 OFFCURVE",
"502 -68 CURVE SMOOTH",
"480 -68 OFFCURVE",
"465 -70 OFFCURVE",
"449 -71 CURVE",
"475 4 LINE",
"454 4 LINE",
"422 -87 LINE",
"427 -93 LINE",
"448 -91 OFFCURVE",
"470 -89 OFFCURVE",
"502 -89 CURVE SMOOTH",
"548 -89 OFFCURVE",
"572 -102 OFFCURVE",
"572 -127 CURVE SMOOTH",
"572 -153 OFFCURVE",
"540 -165 OFFCURVE",
"485 -165 CURVE SMOOTH",
"424 -165 OFFCURVE",
"380 -148 OFFCURVE",
"355 -136 CURVE",
"346 -156 LINE",
"374 -169 OFFCURVE",
"419 -187 OFFCURVE",
"485 -187 CURVE SMOOTH",
"556 -187 OFFCURVE"
);
}
);
userData = {
com.typemytype.robofont.layerData = {
bkgd = {
anchors = (
);
components = (
);
contours = (
);
lib = {
};
name = Scedilla;
unicodes = (
);
width = 869;
};
mask = {
anchors = (
);
components = (
);
contours = (
);
lib = {
};
name = Scedilla;
unicodes = (
);
width = 869;
};
};
};
width = 869;
}
);
unicode = 015E;
},
{
glyphname = Scommaaccent;
layers = (
{
anchors = (
{
name = bottom;
position = "{471, 155}";
},
{
name = top;
position = "{451, 697}";
}
);
layerId = "8D1DA624-BCA2-432D-8EAC-BD2525041625";
paths = (
{
closed = 1;
nodes = (
"779 33 OFFCURVE",
"779 123 CURVE SMOOTH",
"779 218 OFFCURVE",
"682 249 OFFCURVE",
"442 268 CURVE SMOOTH",
"217 285 OFFCURVE",
"142 316 OFFCURVE",
"142 385 CURVE SMOOTH",
"142 468 OFFCURVE",
"234 507 OFFCURVE",
"373 507 CURVE SMOOTH",
"541 507 OFFCURVE",
"652 444 OFFCURVE",
"738 344 CURVE",
"744 346 LINE",
"744 520 LINE",
"720 520 LINE",
"720 378 LINE",
"736 378 LINE",
"668 453 OFFCURVE",
"560 531 OFFCURVE",
"375 531 CURVE SMOOTH",
"212 531 OFFCURVE",
"117 480 OFFCURVE",
"117 385 CURVE SMOOTH",
"117 305 OFFCURVE",
"195 260 OFFCURVE",
"441 243 CURVE SMOOTH",
"667 227 OFFCURVE",
"755 200 OFFCURVE",
"755 123 CURVE SMOOTH",
"755 46 OFFCURVE",
"659 12 OFFCURVE",
"535 12 CURVE SMOOTH",
"385 12 OFFCURVE",
"211 72 OFFCURVE",
"122 176 CURVE",
"116 174 LINE",
"116 -1 LINE",
"139 -1 LINE",
"139 139 LINE",
"124 139 LINE",
"197 64 OFFCURVE",
"361 -11 OFFCURVE",
"534 -11 CURVE SMOOTH",
"676 -11 OFFCURVE"
);
},
{
closed = 1;
nodes = (
"501 -96 OFFCURVE",
"471 -96 CURVE SMOOTH",
"444 -96 OFFCURVE",
"426 -111 OFFCURVE",
"426 -128 CURVE SMOOTH",
"426 -145 OFFCURVE",
"443 -156 OFFCURVE",
"466 -156 CURVE SMOOTH",
"479 -156 OFFCURVE",
"489 -153 OFFCURVE",
"501 -152 CURVE",
"494 -196 OFFCURVE",
"461 -232 OFFCURVE",
"411 -277 CURVE",
"423 -289 LINE",
"484 -242 OFFCURVE",
"521 -187 OFFCURVE",
"521 -143 CURVE SMOOTH",
"521 -115 OFFCURVE"
);
}
);
userData = {
com.typemytype.robofont.layerData = {
bkgd = {
anchors = (
);
components = (
);
contours = (
);
lib = {
};
name = Scommaaccent;
unicodes = (
);
width = 869;
};
mask = {
anchors = (
);
components = (
);
contours = (
);
lib = {
};
name = Scommaaccent;
unicodes = (
);
width = 869;
};
};
};
width = 869;
}
);
unicode = 0218;
},
{
glyphname = Germandbls;
layers = (
{
layerId = "8D1DA624-BCA2-432D-8EAC-BD2525041625";
paths = (
{
closed = 1;
nodes = (
"392 129 LINE",
"377 129 LINE",
"451 54 OFFCURVE",
"570 -21 OFFCURVE",
"708 -21 CURVE SMOOTH",
"809 -21 OFFCURVE",
"888 23 OFFCURVE",
"888 97 CURVE SMOOTH",
"888 181 OFFCURVE",
"792 233 OFFCURVE",
"537 252 CURVE",
"856 499 LINE",
"843 518 LINE",
"483 238 LINE",
"800 214 OFFCURVE",
"863 159 OFFCURVE",
"863 97 CURVE SMOOTH",
"863 35 OFFCURVE",
"793 2 OFFCURVE",
"708 2 CURVE SMOOTH",
"594 2 OFFCURVE",
"471 59 OFFCURVE",
"375 164 CURVE",
"369 163 LINE",
"369 -1 LINE",
"392 -1 LINE"
);
},
{
closed = 1;
nodes = (
"182 443 OFFCURVE",
"182 300 CURVE SMOOTH",
"182 22 LINE",
"0 22 LINE",
"0 -1 LINE",
"207 -1 LINE",
"207 301 LINE SMOOTH",
"207 430 OFFCURVE",
"285 509 OFFCURVE",
"421 509 CURVE SMOOTH",
"543 509 OFFCURVE",
"630 441 OFFCURVE",
"695 385 CURVE",
"714 400 LINE",
"649 458 OFFCURVE",
"546 532 OFFCURVE",
"423 532 CURVE SMOOTH",
"268 532 OFFCURVE"
);
}
);
userData = {
com.typemytype.robofont.layerData = {
bkgd = {
anchors = (
);
components = (
);
contours = (
);
lib = {
};
name = Germandbls;
unicodes = (
);
width = 938;
};
mask = {
anchors = (
);
components = (
);
contours = (
);
lib = {
};
name = Germandbls;
unicodes = (
);
width = 938;
};
};
};
width = 938;
}
);
},
{
glyphname = T;
layers = (
{
anchors = (
{
name = bottom;
position = "{477, 165}";
},
{
name = center;
position = "{477, 410}";
},
{
name = top;
position = "{477, 686}";
}
);
layerId = "8D1DA624-BCA2-432D-8EAC-BD2525041625";
paths = (
{
closed = 1;
nodes = (
"116 497 LINE",
"839 497 LINE",
"839 336 LINE",
"864 336 LINE",
"864 520 LINE",
"90 520 LINE",
"90 336 LINE",
"116 336 LINE"
);
},
{
closed = 1;
nodes = (
"682 22 LINE",
"272 22 LINE",
"272 -1 LINE",
"682 -1 LINE"
);
},
{
closed = 1;
nodes = (
"490 507 LINE",
"465 507 LINE",
"465 12 LINE",
"490 12 LINE"
);
}
);
userData = {
com.typemytype.robofont.layerData = {
bkgd = {
anchors = (
);
components = (
);
contours = (
);
lib = {
};
name = T;
unicodes = (
);
width = 955;
};
mask = {
anchors = (
);
components = (
);
contours = (
);
lib = {
};
name = T;
unicodes = (
);
width = 955;
};
};
};
width = 955;
}
);
unicode = 0054;
},
{
glyphname = Tbar;
layers = (
{
anchors = (
{
name = bottom;
position = "{477, 165}";
},
{
name = center;
position = "{477, 410}";
},
{
name = top;
position = "{477, 686}";
}
);
layerId = "8D1DA624-BCA2-432D-8EAC-BD2525041625";
paths = (
{
closed = 1;
nodes = (
"686 240 LINE",
"237 240 LINE",
"237 218 LINE",
"686 218 LINE"
);
},
{
closed = 1;
nodes = (
"116 497 LINE",
"839 497 LINE",
"839 336 LINE",
"864 336 LINE",
"864 520 LINE",
"90 520 LINE",
"90 336 LINE",
"116 336 LINE"
);
},
{
closed = 1;
nodes = (
"682 22 LINE",
"272 22 LINE",
"272 -1 LINE",
"682 -1 LINE"
);
},
{
closed = 1;
nodes = (
"490 507 LINE",
"465 507 LINE",
"465 12 LINE",
"490 12 LINE"
);
}
);
userData = {
com.typemytype.robofont.layerData = {
bkgd = {
anchors = (
);
components = (
);
contours = (
);
lib = {
};
name = Tbar;
unicodes = (
);
width = 924;
};
mask = {
anchors = (
);
components = (
);
contours = (
);
lib = {
};
name = Tbar;
unicodes = (
);
width = 924;
};
};
};
width = 924;
}
);
unicode = 0166;
},
{
glyphname = Tcaron;
layers = (
{
anchors = (
{
name = bottom;
position = "{477, 165}";
},
{
name = center;
position = "{477, 410}";
},
{
name = top;
position = "{477, 686}";
}
);
layerId = "8D1DA624-BCA2-432D-8EAC-BD2525041625";
paths = (
{
closed = 1;
nodes = (
"116 497 LINE",
"839 497 LINE",
"839 336 LINE",
"864 336 LINE",
"864 520 LINE",
"90 520 LINE",
"90 336 LINE",
"116 336 LINE"
);
},
{
closed = 1;
nodes = (
"682 22 LINE",
"272 22 LINE",
"272 -1 LINE",
"682 -1 LINE"
);
},
{
closed = 1;
nodes = (
"490 507 LINE",
"465 507 LINE",
"465 12 LINE",
"490 12 LINE"
);
},
{
closed = 1;
nodes = (
"311 744 LINE",
"300 731 LINE",
"467 589 LINE",
"487 589 LINE",
"655 731 LINE",
"644 744 LINE",
"477 617 LINE"
);
}
);
userData = {
com.typemytype.robofont.layerData = {
bkgd = {
anchors = (
);
components = (
);
contours = (
);
lib = {
};
name = Tcaron;
unicodes = (
);
width = 955;
};
mask = {
anchors = (
);
components = (
);
contours = (
);
lib = {
};
name = Tcaron;
unicodes = (
);
width = 955;
};
};
};
width = 955;
}
);
unicode = 0164;
},
{
glyphname = Tcedilla;
layers = (
{
anchors = (
{
name = bottom;
position = "{477, 165}";
},
{
name = center;
position = "{477, 410}";
},
{
name = top;
position = "{477, 686}";
}
);
layerId = "8D1DA624-BCA2-432D-8EAC-BD2525041625";
paths = (
{
closed = 1;
nodes = (
"116 497 LINE",
"839 497 LINE",
"839 336 LINE",
"864 336 LINE",
"864 520 LINE",
"90 520 LINE",
"90 336 LINE",
"116 336 LINE"
);
},
{
closed = 1;
nodes = (
"682 22 LINE",
"272 22 LINE",
"272 -1 LINE",
"682 -1 LINE"
);
},
{
closed = 1;
nodes = (
"490 507 LINE",
"465 507 LINE",
"465 12 LINE",
"490 12 LINE"
);
},
{
closed = 1;
nodes = (
"601 -155 OFFCURVE",
"601 -117 CURVE SMOOTH",
"601 -80 OFFCURVE",
"564 -58 OFFCURVE",
"508 -58 CURVE SMOOTH",
"486 -58 OFFCURVE",
"471 -60 OFFCURVE",
"455 -61 CURVE",
"481 14 LINE",
"461 14 LINE",
"428 -77 LINE",
"433 -83 LINE",
"454 -81 OFFCURVE",
"476 -79 OFFCURVE",
"508 -79 CURVE SMOOTH",
"554 -79 OFFCURVE",
"578 -93 OFFCURVE",
"578 -117 CURVE SMOOTH",
"578 -143 OFFCURVE",
"546 -155 OFFCURVE",
"491 -155 CURVE SMOOTH",
"430 -155 OFFCURVE",
"386 -138 OFFCURVE",
"361 -126 CURVE",
"352 -147 LINE",
"380 -159 OFFCURVE",
"425 -177 OFFCURVE",
"491 -177 CURVE SMOOTH",
"562 -177 OFFCURVE"
);
}
);
userData = {
com.typemytype.robofont.layerData = {
bkgd = {
anchors = (
);
components = (
);
contours = (
);
lib = {
};
name = Tcedilla;
unicodes = (
);
width = 955;
};
mask = {
anchors = (
);
components = (
);
contours = (
);
lib = {
};
name = Tcedilla;
unicodes = (
);
width = 955;
};
};
};
width = 955;
}
);
unicode = 0162;
},
{
glyphname = Tcommaaccent;
layers = (
{
anchors = (
{
name = bottom;
position = "{477, 165}";
},
{
name = center;
position = "{477, 410}";
},
{
name = top;
position = "{477, 686}";
}
);
layerId = "8D1DA624-BCA2-432D-8EAC-BD2525041625";
paths = (
{
closed = 1;
nodes = (
"116 497 LINE",
"839 497 LINE",
"839 336 LINE",
"864 336 LINE",
"864 520 LINE",
"90 520 LINE",
"90 336 LINE",
"116 336 LINE"
);
},
{
closed = 1;
nodes = (
"682 22 LINE",
"272 22 LINE",
"272 -1 LINE",
"682 -1 LINE"
);
},
{
closed = 1;
nodes = (
"490 507 LINE",
"465 507 LINE",
"465 12 LINE",
"490 12 LINE"
);
},
{
closed = 1;
nodes = (
"507 -86 OFFCURVE",
"477 -86 CURVE SMOOTH",
"450 -86 OFFCURVE",
"432 -101 OFFCURVE",
"432 -118 CURVE SMOOTH",
"432 -135 OFFCURVE",
"449 -146 OFFCURVE",
"472 -146 CURVE SMOOTH",
"485 -146 OFFCURVE",
"496 -143 OFFCURVE",
"507 -142 CURVE",
"500 -186 OFFCURVE",
"467 -222 OFFCURVE",
"417 -267 CURVE",
"429 -279 LINE",
"490 -232 OFFCURVE",
"527 -177 OFFCURVE",
"527 -134 CURVE SMOOTH",
"527 -105 OFFCURVE"
);
}
);
userData = {
com.typemytype.robofont.layerData = {
bkgd = {
anchors = (
);
components = (
);
contours = (
);
lib = {
};
name = Tcommaaccent;
unicodes = (
);
width = 955;
};
mask = {
anchors = (
);
components = (
);
contours = (
);
lib = {
};
name = Tcommaaccent;
unicodes = (
);
width = 955;
};
};
};
width = 955;
}
);
unicode = "021A,0162";
},
{
glyphname = U;
layers = (
{
anchors = (
{
name = bottom;
position = "{502, 155}";
},
{
name = ogonek;
position = "{502, 155}";
},
{
name = top;
position = "{502, 676}";
},
{
name = topright;
position = "{995, 656}";
}
);
layerId = "8D1DA624-BCA2-432D-8EAC-BD2525041625";
paths = (
{
closed = 1;
nodes = (
"822 78 OFFCURVE",
"822 254 CURVE SMOOTH",
"822 507 LINE",
"800 507 LINE",
"796 241 LINE SMOOTH",
"794 88 OFFCURVE",
"677 12 OFFCURVE",
"502 12 CURVE",
"327 12 OFFCURVE",
"210 88 OFFCURVE",
"207 243 CURVE SMOOTH",
"205 507 LINE",
"182 507 LINE",
"182 254 LINE SMOOTH",
"182 78 OFFCURVE",
"309 -11 OFFCURVE",
"502 -11 CURVE",
"696 -11 OFFCURVE"
);
},
{
closed = 1;
nodes = (
"387 520 LINE",
"0 520 LINE",
"0 496 LINE",
"387 496 LINE"
);
},
{
closed = 1;
nodes = (
"1004 520 LINE",
"617 520 LINE",
"617 496 LINE",
"1004 496 LINE"
);
}
);
userData = {
com.typemytype.robofont.layerData = {
bkgd = {
anchors = (
);
components = (
);
contours = (
);
lib = {
};
name = U;
unicodes = (
);
width = 1004;
};
mask = {
anchors = (
);
components = (
);
contours = (
);
lib = {
};
name = U;
unicodes = (
);
width = 1004;
};
};
};
width = 1004;
}
);
unicode = 0055;
},
{
glyphname = Uacute;
layers = (
{
anchors = (
{
name = bottom;
position = "{502, 155}";
},
{
name = ogonek;
position = "{502, 155}";
},
{
name = top;
position = "{502, 676}";
},
{
name = topright;
position = "{995, 656}";
}
);
layerId = "8D1DA624-BCA2-432D-8EAC-BD2525041625";
paths = (
{
closed = 1;
nodes = (
"822 78 OFFCURVE",
"822 254 CURVE SMOOTH",
"822 507 LINE",
"800 507 LINE",
"796 241 LINE SMOOTH",
"794 88 OFFCURVE",
"677 12 OFFCURVE",
"502 12 CURVE",
"327 12 OFFCURVE",
"210 88 OFFCURVE",
"207 243 CURVE SMOOTH",
"205 507 LINE",
"182 507 LINE",
"182 254 LINE SMOOTH",
"182 78 OFFCURVE",
"309 -11 OFFCURVE",
"502 -11 CURVE",
"696 -11 OFFCURVE"
);
},
{
closed = 1;
nodes = (
"387 520 LINE",
"0 520 LINE",
"0 496 LINE",
"387 496 LINE"
);
},
{
closed = 1;
nodes = (
"1004 520 LINE",
"617 520 LINE",
"617 496 LINE",
"1004 496 LINE"
);
},
{
closed = 1;
nodes = (
"685 705 LINE",
"443 575 LINE",
"434 591 LINE",
"670 732 LINE"
);
}
);
userData = {
com.typemytype.robofont.layerData = {
bkgd = {
anchors = (
);
components = (
);
contours = (
);
lib = {
};
name = Uacute;
unicodes = (
);
width = 1004;
};
mask = {
anchors = (
);
components = (
);
contours = (
);
lib = {
};
name = Uacute;
unicodes = (
);
width = 1004;
};
};
};
width = 1004;
}
);
unicode = 00DA;
},
{
glyphname = Ucircumflex;
layers = (
{
anchors = (
{
name = bottom;
position = "{502, 155}";
},
{
name = ogonek;
position = "{502, 155}";
},
{
name = top;
position = "{502, 676}";
},
{
name = topright;
position = "{995, 656}";
}
);
layerId = "8D1DA624-BCA2-432D-8EAC-BD2525041625";
paths = (
{
closed = 1;
nodes = (
"822 78 OFFCURVE",
"822 254 CURVE SMOOTH",
"822 507 LINE",
"800 507 LINE",
"796 241 LINE SMOOTH",
"794 88 OFFCURVE",
"677 12 OFFCURVE",
"502 12 CURVE",
"327 12 OFFCURVE",
"210 88 OFFCURVE",
"207 243 CURVE SMOOTH",
"205 507 LINE",
"182 507 LINE",
"182 254 LINE SMOOTH",
"182 78 OFFCURVE",
"309 -11 OFFCURVE",
"502 -11 CURVE",
"696 -11 OFFCURVE"
);
},
{
closed = 1;
nodes = (
"387 520 LINE",
"0 520 LINE",
"0 496 LINE",
"387 496 LINE"
);
},
{
closed = 1;
nodes = (
"1004 520 LINE",
"617 520 LINE",
"617 496 LINE",
"1004 496 LINE"
);
},
{
closed = 1;
nodes = (
"670 563 LINE",
"680 575 LINE",
"512 718 LINE",
"492 718 LINE",
"325 575 LINE",
"336 563 LINE",
"502 690 LINE"
);
}
);
userData = {
com.typemytype.robofont.layerData = {
bkgd = {
anchors = (
);
components = (
);
contours = (
);
lib = {
};
name = Ucircumflex;
unicodes = (
);
width = 1004;
};
mask = {
anchors = (
);
components = (
);
contours = (
);
lib = {
};
name = Ucircumflex;
unicodes = (
);
width = 1004;
};
};
};
width = 1004;
}
);
unicode = 00DB;
},
{
glyphname = Udieresis;
layers = (
{
anchors = (
{
name = bottom;
position = "{502, 155}";
},
{
name = ogonek;
position = "{502, 155}";
},
{
name = top;
position = "{502, 676}";
},
{
name = topright;
position = "{995, 656}";
}
);
layerId = "8D1DA624-BCA2-432D-8EAC-BD2525041625";
paths = (
{
closed = 1;
nodes = (
"822 78 OFFCURVE",
"822 254 CURVE SMOOTH",
"822 507 LINE",
"800 507 LINE",
"796 241 LINE SMOOTH",
"794 88 OFFCURVE",
"677 12 OFFCURVE",
"502 12 CURVE",
"327 12 OFFCURVE",
"210 88 OFFCURVE",
"207 243 CURVE SMOOTH",
"205 507 LINE",
"182 507 LINE",
"182 254 LINE SMOOTH",
"182 78 OFFCURVE",
"309 -11 OFFCURVE",
"502 -11 CURVE",
"696 -11 OFFCURVE"
);
},
{
closed = 1;
nodes = (
"387 520 LINE",
"0 520 LINE",
"0 496 LINE",
"387 496 LINE"
);
},
{
closed = 1;
nodes = (
"1004 520 LINE",
"617 520 LINE",
"617 496 LINE",
"1004 496 LINE"
);
},
{
closed = 1;
nodes = (
"654 638 OFFCURVE",
"654 655 CURVE",
"654 671 OFFCURVE",
"639 683 OFFCURVE",
"610 683 CURVE",
"582 683 OFFCURVE",
"565 671 OFFCURVE",
"565 655 CURVE",
"565 638 OFFCURVE",
"582 625 OFFCURVE",
"610 625 CURVE",
"639 625 OFFCURVE"
);
},
{
closed = 1;
nodes = (
"432 638 OFFCURVE",
"432 655 CURVE",
"432 671 OFFCURVE",
"416 683 OFFCURVE",
"388 683 CURVE",
"359 683 OFFCURVE",
"343 671 OFFCURVE",
"343 655 CURVE",
"343 638 OFFCURVE",
"359 625 OFFCURVE",
"388 625 CURVE",
"416 625 OFFCURVE"
);
}
);
userData = {
com.typemytype.robofont.layerData = {
bkgd = {
anchors = (
);
components = (
);
contours = (
);
lib = {
};
name = Udieresis;
unicodes = (
);
width = 1004;
};
mask = {
anchors = (
);
components = (
);
contours = (
);
lib = {
};
name = Udieresis;
unicodes = (
);
width = 1004;
};
};
};
width = 1004;
}
);
unicode = 00DC;
},
{
glyphname = Ugrave;
layers = (
{
anchors = (
{
name = bottom;
position = "{502, 155}";
},
{
name = ogonek;
position = "{502, 155}";
},
{
name = top;
position = "{502, 676}";
},
{
name = topright;
position = "{995, 656}";
}
);
layerId = "8D1DA624-BCA2-432D-8EAC-BD2525041625";
paths = (
{
closed = 1;
nodes = (
"822 78 OFFCURVE",
"822 254 CURVE SMOOTH",
"822 507 LINE",
"800 507 LINE",
"796 241 LINE SMOOTH",
"794 88 OFFCURVE",
"677 12 OFFCURVE",
"502 12 CURVE",
"327 12 OFFCURVE",
"210 88 OFFCURVE",
"207 243 CURVE SMOOTH",
"205 507 LINE",
"182 507 LINE",
"182 254 LINE SMOOTH",
"182 78 OFFCURVE",
"309 -11 OFFCURVE",
"502 -11 CURVE",
"696 -11 OFFCURVE"
);
},
{
closed = 1;
nodes = (
"387 520 LINE",
"0 520 LINE",
"0 496 LINE",
"387 496 LINE"
);
},
{
closed = 1;
nodes = (
"1004 520 LINE",
"617 520 LINE",
"617 496 LINE",
"1004 496 LINE"
);
},
{
closed = 1;
nodes = (
"320 705 LINE",
"335 732 LINE",
"571 591 LINE",
"562 575 LINE"
);
}
);
userData = {
com.typemytype.robofont.layerData = {
bkgd = {
anchors = (
);
components = (
);
contours = (
);
lib = {
};
name = Ugrave;
unicodes = (
);
width = 1004;
};
mask = {
anchors = (
);
components = (
);
contours = (
);
lib = {
};
name = Ugrave;
unicodes = (
);
width = 1004;
};
};
};
width = 1004;
}
);
unicode = 00D9;
},
{
glyphname = Uhungarumlaut;
layers = (
{
anchors = (
{
name = bottom;
position = "{502, 155}";
},
{
name = ogonek;
position = "{502, 155}";
},
{
name = top;
position = "{502, 676}";
},
{
name = topright;
position = "{995, 656}";
}
);
layerId = "8D1DA624-BCA2-432D-8EAC-BD2525041625";
paths = (
{
closed = 1;
nodes = (
"822 78 OFFCURVE",
"822 254 CURVE SMOOTH",
"822 507 LINE",
"800 507 LINE",
"796 241 LINE SMOOTH",
"794 88 OFFCURVE",
"677 12 OFFCURVE",
"502 12 CURVE",
"327 12 OFFCURVE",
"210 88 OFFCURVE",
"207 243 CURVE SMOOTH",
"205 507 LINE",
"182 507 LINE",
"182 254 LINE SMOOTH",
"182 78 OFFCURVE",
"309 -11 OFFCURVE",
"502 -11 CURVE",
"696 -11 OFFCURVE"
);
},
{
closed = 1;
nodes = (
"387 520 LINE",
"0 520 LINE",
"0 496 LINE",
"387 496 LINE"
);
},
{
closed = 1;
nodes = (
"1004 520 LINE",
"617 520 LINE",
"617 496 LINE",
"1004 496 LINE"
);
},
{
closed = 1;
nodes = (
"709 775 LINE",
"541 607 LINE",
"550 597 LINE",
"726 755 LINE"
);
},
{
closed = 1;
nodes = (
"512 775 LINE",
"345 607 LINE",
"354 597 LINE",
"530 755 LINE"
);
}
);
userData = {
com.typemytype.robofont.layerData = {
bkgd = {
anchors = (
);
components = (
);
contours = (
);
lib = {
};
name = Uhungarumlaut;
unicodes = (
);
width = 1004;
};
mask = {
anchors = (
);
components = (
);
contours = (
);
lib = {
};
name = Uhungarumlaut;
unicodes = (
);
width = 1004;
};
};
};
width = 1004;
}
);
unicode = 0170;
},
{
glyphname = Umacron;
layers = (
{
anchors = (
{
name = bottom;
position = "{502, 155}";
},
{
name = ogonek;
position = "{502, 155}";
},
{
name = top;
position = "{502, 676}";
},
{
name = topright;
position = "{995, 656}";
}
);
layerId = "8D1DA624-BCA2-432D-8EAC-BD2525041625";
paths = (
{
closed = 1;
nodes = (
"822 78 OFFCURVE",
"822 254 CURVE SMOOTH",
"822 507 LINE",
"800 507 LINE",
"796 241 LINE SMOOTH",
"794 88 OFFCURVE",
"677 12 OFFCURVE",
"502 12 CURVE",
"327 12 OFFCURVE",
"210 88 OFFCURVE",
"207 243 CURVE SMOOTH",
"205 507 LINE",
"182 507 LINE",
"182 254 LINE SMOOTH",
"182 78 OFFCURVE",
"309 -11 OFFCURVE",
"502 -11 CURVE",
"696 -11 OFFCURVE"
);
},
{
closed = 1;
nodes = (
"387 520 LINE",
"0 520 LINE",
"0 496 LINE",
"387 496 LINE"
);
},
{
closed = 1;
nodes = (
"1004 520 LINE",
"617 520 LINE",
"617 496 LINE",
"1004 496 LINE"
);
},
{
closed = 1;
nodes = (
"258 644 LINE",
"736 644 LINE",
"736 667 LINE",
"258 667 LINE"
);
}
);
userData = {
com.typemytype.robofont.layerData = {
bkgd = {
anchors = (
);
components = (
);
contours = (
);
lib = {
};
name = Umacron;
unicodes = (
);
width = 1004;
};
mask = {
anchors = (
);
components = (
);
contours = (
);
lib = {
};
name = Umacron;
unicodes = (
);
width = 1004;
};
};
};
width = 1004;
}
);
unicode = 016A;
},
{
glyphname = Uogonek;
layers = (
{
anchors = (
{
name = bottom;
position = "{502, 155}";
},
{
name = ogonek;
position = "{502, 155}";
},
{
name = top;
position = "{502, 676}";
},
{
name = topright;
position = "{995, 656}";
}
);
layerId = "8D1DA624-BCA2-432D-8EAC-BD2525041625";
paths = (
{
closed = 1;
nodes = (
"822 78 OFFCURVE",
"822 254 CURVE SMOOTH",
"822 507 LINE",
"800 507 LINE",
"796 241 LINE SMOOTH",
"794 88 OFFCURVE",
"677 12 OFFCURVE",
"502 12 CURVE",
"327 12 OFFCURVE",
"210 88 OFFCURVE",
"207 243 CURVE SMOOTH",
"205 507 LINE",
"182 507 LINE",
"182 254 LINE SMOOTH",
"182 78 OFFCURVE",
"309 -11 OFFCURVE",
"502 -11 CURVE",
"696 -11 OFFCURVE"
);
},
{
closed = 1;
nodes = (
"387 520 LINE",
"0 520 LINE",
"0 496 LINE",
"387 496 LINE"
);
},
{
closed = 1;
nodes = (
"1004 520 LINE",
"617 520 LINE",
"617 496 LINE",
"1004 496 LINE"
);
},
{
closed = 1;
nodes = (
"431 -17 OFFCURVE",
"394 -53 OFFCURVE",
"394 -96 CURVE SMOOTH",
"394 -148 OFFCURVE",
"449 -178 OFFCURVE",
"515 -178 CURVE SMOOTH",
"569 -178 OFFCURVE",
"610 -159 OFFCURVE",
"638 -141 CURVE",
"628 -121 LINE",
"601 -137 OFFCURVE",
"563 -156 OFFCURVE",
"515 -156 CURVE SMOOTH",
"463 -156 OFFCURVE",
"419 -133 OFFCURVE",
"419 -93 CURVE SMOOTH",
"419 -53 OFFCURVE",
"455 -27 OFFCURVE",
"502 -11 CURVE",
"494 -1 LINE"
);
}
);
userData = {
com.typemytype.robofont.layerData = {
bkgd = {
anchors = (
);
components = (
);
contours = (
);
lib = {
};
name = Uogonek;
unicodes = (
);
width = 1004;
};
mask = {
anchors = (
);
components = (
);
contours = (
);
lib = {
};
name = Uogonek;
unicodes = (
);
width = 1004;
};
};
};
width = 1004;
}
);
unicode = 0172;
},
{
glyphname = Uring;
layers = (
{
anchors = (
{
name = bottom;
position = "{502, 155}";
},
{
name = ogonek;
position = "{502, 155}";
},
{
name = top;
position = "{502, 676}";
},
{
name = topright;
position = "{995, 656}";
}
);
layerId = "8D1DA624-BCA2-432D-8EAC-BD2525041625";
paths = (
{
closed = 1;
nodes = (
"822 78 OFFCURVE",
"822 254 CURVE SMOOTH",
"822 507 LINE",
"800 507 LINE",
"796 241 LINE SMOOTH",
"794 88 OFFCURVE",
"677 12 OFFCURVE",
"502 12 CURVE",
"327 12 OFFCURVE",
"210 88 OFFCURVE",
"207 243 CURVE SMOOTH",
"205 507 LINE",
"182 507 LINE",
"182 254 LINE SMOOTH",
"182 78 OFFCURVE",
"309 -11 OFFCURVE",
"502 -11 CURVE",
"696 -11 OFFCURVE"
);
},
{
closed = 1;
nodes = (
"387 520 LINE",
"0 520 LINE",
"0 496 LINE",
"387 496 LINE"
);
},
{
closed = 1;
nodes = (
"1004 520 LINE",
"617 520 LINE",
"617 496 LINE",
"1004 496 LINE"
);
},
{
closed = 1;
nodes = (
"638 651 OFFCURVE",
"638 711 CURVE",
"638 775 OFFCURVE",
"581 816 OFFCURVE",
"502 816 CURVE",
"427 816 OFFCURVE",
"366 775 OFFCURVE",
"366 711 CURVE",
"366 651 OFFCURVE",
"427 605 OFFCURVE",
"502 605 CURVE",
"581 605 OFFCURVE"
);
},
{
closed = 1;
nodes = (
"389 665 OFFCURVE",
"389 711 CURVE",
"389 759 OFFCURVE",
"438 794 OFFCURVE",
"502 794 CURVE",
"570 794 OFFCURVE",
"615 759 OFFCURVE",
"615 711 CURVE",
"615 665 OFFCURVE",
"570 626 OFFCURVE",
"502 626 CURVE",
"438 626 OFFCURVE"
);
}
);
userData = {
com.typemytype.robofont.layerData = {
bkgd = {
anchors = (
);
components = (
);
contours = (
);
lib = {
};
name = Uring;
unicodes = (
);
width = 1004;
};
mask = {
anchors = (
);
components = (
);
contours = (
);
lib = {
};
name = Uring;
unicodes = (
);
width = 1004;
};
};
};
width = 1004;
}
);
unicode = 016E;
},
{
glyphname = V;
layers = (
{
anchors = (
{
name = bottom;
position = "{470, 155}";
},
{
name = top;
position = "{470, 656}";
}
);
layerId = "8D1DA624-BCA2-432D-8EAC-BD2525041625";
paths = (
{
closed = 1;
nodes = (
"-5 496 LINE",
"333 496 LINE",
"333 520 LINE",
"-5 520 LINE"
);
},
{
closed = 1;
nodes = (
"606 496 LINE",
"944 496 LINE",
"944 520 LINE",
"606 520 LINE"
);
},
{
closed = 1;
nodes = (
"789 507 LINE",
"761 507 LINE",
"470 29 LINE",
"182 507 LINE",
"150 507 LINE",
"467 -11 LINE",
"473 -11 LINE"
);
}
);
userData = {
com.typemytype.robofont.layerData = {
bkgd = {
anchors = (
);
components = (
);
contours = (
);
lib = {
};
name = V;
unicodes = (
);
width = 939;
};
mask = {
anchors = (
);
components = (
);
contours = (
);
lib = {
};
name = V;
unicodes = (
);
width = 939;
};
};
};
width = 939;
}
);
unicode = 0056;
},
{
glyphname = W;
layers = (
{
anchors = (
{
name = bottom;
position = "{625, 165}";
},
{
name = top;
position = "{632, 686}";
}
);
layerId = "8D1DA624-BCA2-432D-8EAC-BD2525041625";
paths = (
{
closed = 1;
nodes = (
"381 20 LINE",
"181 507 LINE",
"151 507 LINE",
"366 -11 LINE",
"372 -11 LINE"
);
},
{
closed = 1;
nodes = (
"620 480 LINE",
"609 507 LINE",
"605 507 LINE",
"363 18 LINE",
"370 -11 LINE",
"375 -11 LINE"
);
},
{
closed = 1;
nodes = (
"852 20 LINE",
"613 507 LINE",
"607 507 LINE",
"597 480 LINE",
"839 -11 LINE",
"844 -11 LINE"
);
},
{
closed = 1;
nodes = (
"1063 507 LINE",
"1034 507 LINE",
"836 20 LINE",
"843 -11 LINE",
"847 -11 LINE"
);
},
{
closed = 1;
nodes = (
"883 496 LINE",
"1221 496 LINE",
"1221 520 LINE",
"883 520 LINE"
);
},
{
closed = 1;
nodes = (
"333 496 LINE",
"333 520 LINE",
"-5 520 LINE",
"-5 496 LINE"
);
}
);
userData = {
com.typemytype.robofont.layerData = {
bkgd = {
anchors = (
);
components = (
);
contours = (
);
lib = {
};
name = W;
unicodes = (
);
width = 1215;
};
mask = {
anchors = (
);
components = (
);
contours = (
);
lib = {
};
name = W;
unicodes = (
);
width = 1215;
};
};
};
width = 1215;
}
);
unicode = 0057;
},
{
glyphname = Wacute;
layers = (
{
anchors = (
{
name = bottom;
position = "{625, 165}";
},
{
name = top;
position = "{632, 686}";
}
);
layerId = "8D1DA624-BCA2-432D-8EAC-BD2525041625";
paths = (
{
closed = 1;
nodes = (
"381 20 LINE",
"181 507 LINE",
"151 507 LINE",
"366 -11 LINE",
"372 -11 LINE"
);
},
{
closed = 1;
nodes = (
"620 480 LINE",
"609 507 LINE",
"605 507 LINE",
"363 18 LINE",
"370 -11 LINE",
"375 -11 LINE"
);
},
{
closed = 1;
nodes = (
"852 20 LINE",
"613 507 LINE",
"607 507 LINE",
"597 480 LINE",
"839 -11 LINE",
"844 -11 LINE"
);
},
{
closed = 1;
nodes = (
"1063 507 LINE",
"1034 507 LINE",
"836 20 LINE",
"843 -11 LINE",
"847 -11 LINE"
);
},
{
closed = 1;
nodes = (
"883 496 LINE",
"1221 496 LINE",
"1221 520 LINE",
"883 520 LINE"
);
},
{
closed = 1;
nodes = (
"333 496 LINE",
"333 520 LINE",
"-5 520 LINE",
"-5 496 LINE"
);
},
{
closed = 1;
nodes = (
"815 715 LINE",
"573 585 LINE",
"564 601 LINE",
"800 742 LINE"
);
}
);
userData = {
com.typemytype.robofont.layerData = {
bkgd = {
anchors = (
);
components = (
);
contours = (
);
lib = {
};
name = Wacute;
unicodes = (
);
width = 1215;
};
mask = {
anchors = (
);
components = (
);
contours = (
);
lib = {
};
name = Wacute;
unicodes = (
);
width = 1215;
};
};
};
width = 1215;
}
);
unicode = 1E82;
},
{
glyphname = Wcircumflex;
layers = (
{
anchors = (
{
name = bottom;
position = "{625, 165}";
},
{
name = top;
position = "{632, 686}";
}
);
layerId = "8D1DA624-BCA2-432D-8EAC-BD2525041625";
paths = (
{
closed = 1;
nodes = (
"381 20 LINE",
"181 507 LINE",
"151 507 LINE",
"366 -11 LINE",
"372 -11 LINE"
);
},
{
closed = 1;
nodes = (
"620 480 LINE",
"609 507 LINE",
"605 507 LINE",
"363 18 LINE",
"370 -11 LINE",
"375 -11 LINE"
);
},
{
closed = 1;
nodes = (
"852 20 LINE",
"613 507 LINE",
"607 507 LINE",
"597 480 LINE",
"839 -11 LINE",
"844 -11 LINE"
);
},
{
closed = 1;
nodes = (
"1063 507 LINE",
"1034 507 LINE",
"836 20 LINE",
"843 -11 LINE",
"847 -11 LINE"
);
},
{
closed = 1;
nodes = (
"883 496 LINE",
"1221 496 LINE",
"1221 520 LINE",
"883 520 LINE"
);
},
{
closed = 1;
nodes = (
"333 496 LINE",
"333 520 LINE",
"-5 520 LINE",
"-5 496 LINE"
);
},
{
closed = 1;
nodes = (
"800 572 LINE",
"810 585 LINE",
"642 727 LINE",
"622 727 LINE",
"455 585 LINE",
"466 572 LINE",
"632 700 LINE"
);
}
);
userData = {
com.typemytype.robofont.layerData = {
bkgd = {
anchors = (
);
components = (
);
contours = (
);
lib = {
};
name = Wcircumflex;
unicodes = (
);
width = 1215;
};
mask = {
anchors = (
);
components = (
);
contours = (
);
lib = {
};
name = Wcircumflex;
unicodes = (
);
width = 1215;
};
};
};
width = 1215;
}
);
unicode = 0174;
},
{
glyphname = Wdieresis;
layers = (
{
anchors = (
{
name = bottom;
position = "{625, 165}";
},
{
name = top;
position = "{632, 686}";
}
);
layerId = "8D1DA624-BCA2-432D-8EAC-BD2525041625";
paths = (
{
closed = 1;
nodes = (
"381 20 LINE",
"181 507 LINE",
"151 507 LINE",
"366 -11 LINE",
"372 -11 LINE"
);
},
{
closed = 1;
nodes = (
"620 480 LINE",
"609 507 LINE",
"605 507 LINE",
"363 18 LINE",
"370 -11 LINE",
"375 -11 LINE"
);
},
{
closed = 1;
nodes = (
"852 20 LINE",
"613 507 LINE",
"607 507 LINE",
"597 480 LINE",
"839 -11 LINE",
"844 -11 LINE"
);
},
{
closed = 1;
nodes = (
"1063 507 LINE",
"1034 507 LINE",
"836 20 LINE",
"843 -11 LINE",
"847 -11 LINE"
);
},
{
closed = 1;
nodes = (
"883 496 LINE",
"1221 496 LINE",
"1221 520 LINE",
"883 520 LINE"
);
},
{
closed = 1;
nodes = (
"333 496 LINE",
"333 520 LINE",
"-5 520 LINE",
"-5 496 LINE"
);
},
{
closed = 1;
nodes = (
"784 648 OFFCURVE",
"784 664 CURVE",
"784 681 OFFCURVE",
"769 693 OFFCURVE",
"739 693 CURVE",
"712 693 OFFCURVE",
"695 681 OFFCURVE",
"695 664 CURVE",
"695 648 OFFCURVE",
"712 635 OFFCURVE",
"739 635 CURVE",
"769 635 OFFCURVE"
);
},
{
closed = 1;
nodes = (
"562 648 OFFCURVE",
"562 664 CURVE",
"562 681 OFFCURVE",
"546 693 OFFCURVE",
"518 693 CURVE",
"489 693 OFFCURVE",
"473 681 OFFCURVE",
"473 664 CURVE",
"473 648 OFFCURVE",
"489 635 OFFCURVE",
"518 635 CURVE",
"546 635 OFFCURVE"
);
}
);
userData = {
com.typemytype.robofont.layerData = {
bkgd = {
anchors = (
);
components = (
);
contours = (
);
lib = {
};
name = Wdieresis;
unicodes = (
);
width = 1215;
};
mask = {
anchors = (
);
components = (
);
contours = (
);
lib = {
};
name = Wdieresis;
unicodes = (
);
width = 1215;
};
};
};
width = 1215;
}
);
unicode = 1E84;
},
{
glyphname = Wgrave;
layers = (
{
anchors = (
{
name = bottom;
position = "{625, 165}";
},
{
name = top;
position = "{632, 686}";
}
);
layerId = "8D1DA624-BCA2-432D-8EAC-BD2525041625";
paths = (
{
closed = 1;
nodes = (
"381 20 LINE",
"181 507 LINE",
"151 507 LINE",
"366 -11 LINE",
"372 -11 LINE"
);
},
{
closed = 1;
nodes = (
"620 480 LINE",
"609 507 LINE",
"605 507 LINE",
"363 18 LINE",
"370 -11 LINE",
"375 -11 LINE"
);
},
{
closed = 1;
nodes = (
"852 20 LINE",
"613 507 LINE",
"607 507 LINE",
"597 480 LINE",
"839 -11 LINE",
"844 -11 LINE"
);
},
{
closed = 1;
nodes = (
"1063 507 LINE",
"1034 507 LINE",
"836 20 LINE",
"843 -11 LINE",
"847 -11 LINE"
);
},
{
closed = 1;
nodes = (
"883 496 LINE",
"1221 496 LINE",
"1221 520 LINE",
"883 520 LINE"
);
},
{
closed = 1;
nodes = (
"333 496 LINE",
"333 520 LINE",
"-5 520 LINE",
"-5 496 LINE"
);
},
{
closed = 1;
nodes = (
"450 715 LINE",
"465 742 LINE",
"701 601 LINE",
"692 585 LINE"
);
}
);
userData = {
com.typemytype.robofont.layerData = {
bkgd = {
anchors = (
);
components = (
);
contours = (
);
lib = {
};
name = Wgrave;
unicodes = (
);
width = 1215;
};
mask = {
anchors = (
);
components = (
);
contours = (
);
lib = {
};
name = Wgrave;
unicodes = (
);
width = 1215;
};
};
};
width = 1215;
}
);
unicode = 1E80;
},
{
glyphname = X;
layers = (
{
anchors = (
{
name = bottom;
position = "{477, 165}";
},
{
name = top;
position = "{477, 656}";
}
);
layerId = "8D1DA624-BCA2-432D-8EAC-BD2525041625";
paths = (
{
closed = 1;
nodes = (
"908 22 LINE",
"738 22 LINE",
"726 22 LINE",
"571 22 LINE",
"571 -1 LINE",
"908 -1 LINE"
);
},
{
closed = 1;
nodes = (
"382 22 LINE",
"231 22 LINE",
"216 22 LINE",
"45 22 LINE",
"45 -1 LINE",
"382 -1 LINE"
);
},
{
closed = 1;
nodes = (
"487 260 LINE",
"485 260 LINE",
"215 507 LINE",
"177 507 LINE",
"466 246 LINE",
"468 246 LINE",
"724 10 LINE",
"762 10 LINE"
);
},
{
closed = 1;
nodes = (
"485 246 LINE",
"487 246 LINE",
"776 507 LINE",
"741 507 LINE",
"470 260 LINE",
"467 260 LINE",
"194 10 LINE",
"229 10 LINE"
);
},
{
closed = 1;
nodes = (
"211 496 LINE",
"383 496 LINE",
"383 520 LINE SMOOTH",
"45 520 LINE",
"45 496 LINE",
"199 496 LINE"
);
},
{
closed = 1;
nodes = (
"754 496 LINE",
"908 496 LINE",
"908 520 LINE",
"570 520 LINE SMOOTH",
"570 496 LINE",
"741 496 LINE"
);
}
);
userData = {
com.typemytype.robofont.layerData = {
bkgd = {
anchors = (
);
components = (
);
contours = (
);
lib = {
};
name = X;
unicodes = (
);
width = 953;
};
mask = {
anchors = (
);
components = (
);
contours = (
);
lib = {
};
name = X;
unicodes = (
);
width = 953;
};
};
};
width = 953;
}
);
unicode = 0058;
},
{
glyphname = Y;
layers = (
{
anchors = (
{
name = bottom;
position = "{461, 165}";
},
{
name = top;
position = "{461, 676}";
}
);
layerId = "8D1DA624-BCA2-432D-8EAC-BD2525041625";
paths = (
{
closed = 1;
nodes = (
"767 509 LINE",
"733 509 LINE",
"462 205 LINE",
"195 506 LINE",
"159 506 LINE",
"452 177 LINE",
"470 177 LINE"
);
},
{
closed = 1;
nodes = (
"657 22 LINE",
"267 22 LINE",
"267 -1 LINE",
"657 -1 LINE"
);
},
{
closed = 1;
nodes = (
"475 204 LINE",
"450 204 LINE",
"450 -1 LINE",
"475 -1 LINE"
);
},
{
closed = 1;
nodes = (
"343 520 LINE",
"5 520 LINE",
"5 496 LINE",
"343 496 LINE"
);
},
{
closed = 1;
nodes = (
"918 520 LINE",
"581 520 LINE",
"581 496 LINE",
"918 496 LINE"
);
}
);
userData = {
com.typemytype.robofont.layerData = {
bkgd = {
anchors = (
);
components = (
);
contours = (
);
lib = {
};
name = Y;
unicodes = (
);
width = 923;
};
mask = {
anchors = (
);
components = (
);
contours = (
);
lib = {
};
name = Y;
unicodes = (
);
width = 923;
};
};
};
width = 923;
}
);
unicode = 0059;
},
{
glyphname = Yacute;
layers = (
{
anchors = (
{
name = bottom;
position = "{461, 165}";
},
{
name = top;
position = "{461, 676}";
}
);
layerId = "8D1DA624-BCA2-432D-8EAC-BD2525041625";
paths = (
{
closed = 1;
nodes = (
"767 509 LINE",
"733 509 LINE",
"462 205 LINE",
"195 506 LINE",
"159 506 LINE",
"452 177 LINE",
"470 177 LINE"
);
},
{
closed = 1;
nodes = (
"657 22 LINE",
"267 22 LINE",
"267 -1 LINE",
"657 -1 LINE"
);
},
{
closed = 1;
nodes = (
"475 204 LINE",
"450 204 LINE",
"450 -1 LINE",
"475 -1 LINE"
);
},
{
closed = 1;
nodes = (
"343 520 LINE",
"5 520 LINE",
"5 496 LINE",
"343 496 LINE"
);
},
{
closed = 1;
nodes = (
"918 520 LINE",
"581 520 LINE",
"581 496 LINE",
"918 496 LINE"
);
},
{
closed = 1;
nodes = (
"644 705 LINE",
"402 575 LINE",
"393 591 LINE",
"629 732 LINE"
);
}
);
userData = {
com.typemytype.robofont.layerData = {
bkgd = {
anchors = (
);
components = (
);
contours = (
);
lib = {
};
name = Yacute;
unicodes = (
);
width = 923;
};
mask = {
anchors = (
);
components = (
);
contours = (
);
lib = {
};
name = Yacute;
unicodes = (
);
width = 923;
};
};
};
width = 923;
}
);
unicode = 00DD;
},
{
glyphname = Ycircumflex;
layers = (
{
anchors = (
{
name = bottom;
position = "{461, 165}";
},
{
name = top;
position = "{461, 676}";
}
);
layerId = "8D1DA624-BCA2-432D-8EAC-BD2525041625";
paths = (
{
closed = 1;
nodes = (
"767 509 LINE",
"733 509 LINE",
"462 205 LINE",
"195 506 LINE",
"159 506 LINE",
"452 177 LINE",
"470 177 LINE"
);
},
{
closed = 1;
nodes = (
"657 22 LINE",
"267 22 LINE",
"267 -1 LINE",
"657 -1 LINE"
);
},
{
closed = 1;
nodes = (
"475 204 LINE",
"450 204 LINE",
"450 -1 LINE",
"475 -1 LINE"
);
},
{
closed = 1;
nodes = (
"343 520 LINE",
"5 520 LINE",
"5 496 LINE",
"343 496 LINE"
);
},
{
closed = 1;
nodes = (
"918 520 LINE",
"581 520 LINE",
"581 496 LINE",
"918 496 LINE"
);
},
{
closed = 1;
nodes = (
"629 563 LINE",
"639 575 LINE",
"471 718 LINE",
"451 718 LINE",
"284 575 LINE",
"295 563 LINE",
"461 690 LINE"
);
}
);
userData = {
com.typemytype.robofont.layerData = {
bkgd = {
anchors = (
);
components = (
);
contours = (
);
lib = {
};
name = Ycircumflex;
unicodes = (
);
width = 923;
};
mask = {
anchors = (
);
components = (
);
contours = (
);
lib = {
};
name = Ycircumflex;
unicodes = (
);
width = 923;
};
};
};
width = 923;
}
);
unicode = 0176;
},
{
glyphname = Ydieresis;
layers = (
{
anchors = (
{
name = bottom;
position = "{461, 165}";
},
{
name = top;
position = "{461, 676}";
}
);
layerId = "8D1DA624-BCA2-432D-8EAC-BD2525041625";
paths = (
{
closed = 1;
nodes = (
"767 509 LINE",
"733 509 LINE",
"462 205 LINE",
"195 506 LINE",
"159 506 LINE",
"452 177 LINE",
"470 177 LINE"
);
},
{
closed = 1;
nodes = (
"657 22 LINE",
"267 22 LINE",
"267 -1 LINE",
"657 -1 LINE"
);
},
{
closed = 1;
nodes = (
"475 204 LINE",
"450 204 LINE",
"450 -1 LINE",
"475 -1 LINE"
);
},
{
closed = 1;
nodes = (
"343 520 LINE",
"5 520 LINE",
"5 496 LINE",
"343 496 LINE"
);
},
{
closed = 1;
nodes = (
"918 520 LINE",
"581 520 LINE",
"581 496 LINE",
"918 496 LINE"
);
},
{
closed = 1;
nodes = (
"613 638 OFFCURVE",
"613 655 CURVE",
"613 671 OFFCURVE",
"598 683 OFFCURVE",
"568 683 CURVE",
"541 683 OFFCURVE",
"524 671 OFFCURVE",
"524 655 CURVE",
"524 638 OFFCURVE",
"541 625 OFFCURVE",
"568 625 CURVE",
"598 625 OFFCURVE"
);
},
{
closed = 1;
nodes = (
"391 638 OFFCURVE",
"391 655 CURVE",
"391 671 OFFCURVE",
"375 683 OFFCURVE",
"347 683 CURVE",
"318 683 OFFCURVE",
"302 671 OFFCURVE",
"302 655 CURVE",
"302 638 OFFCURVE",
"318 625 OFFCURVE",
"347 625 CURVE",
"375 625 OFFCURVE"
);
}
);
userData = {
com.typemytype.robofont.layerData = {
bkgd = {
anchors = (
);
components = (
);
contours = (
);
lib = {
};
name = Ydieresis;
unicodes = (
);
width = 923;
};
mask = {
anchors = (
);
components = (
);
contours = (
);
lib = {
};
name = Ydieresis;
unicodes = (
);
width = 923;
};
};
};
width = 923;
}
);
unicode = 0178;
},
{
glyphname = Ygrave;
layers = (
{
anchors = (
{
name = bottom;
position = "{461, 165}";
},
{
name = top;
position = "{461, 676}";
}
);
layerId = "8D1DA624-BCA2-432D-8EAC-BD2525041625";
paths = (
{
closed = 1;
nodes = (
"767 509 LINE",
"733 509 LINE",
"462 205 LINE",
"195 506 LINE",
"159 506 LINE",
"452 177 LINE",
"470 177 LINE"
);
},
{
closed = 1;
nodes = (
"657 22 LINE",
"267 22 LINE",
"267 -1 LINE",
"657 -1 LINE"
);
},
{
closed = 1;
nodes = (
"475 204 LINE",
"450 204 LINE",
"450 -1 LINE",
"475 -1 LINE"
);
},
{
closed = 1;
nodes = (
"343 520 LINE",
"5 520 LINE",
"5 496 LINE",
"343 496 LINE"
);
},
{
closed = 1;
nodes = (
"918 520 LINE",
"581 520 LINE",
"581 496 LINE",
"918 496 LINE"
);
},
{
closed = 1;
nodes = (
"279 705 LINE",
"294 732 LINE",
"530 591 LINE",
"521 575 LINE"
);
}
);
userData = {
com.typemytype.robofont.layerData = {
bkgd = {
anchors = (
);
components = (
);
contours = (
);
lib = {
};
name = Ygrave;
unicodes = (
);
width = 923;
};
mask = {
anchors = (
);
components = (
);
contours = (
);
lib = {
};
name = Ygrave;
unicodes = (
);
width = 923;
};
};
};
width = 923;
}
);
unicode = 1EF2;
},
{
glyphname = Z;
layers = (
{
anchors = (
{
name = bottom;
position = "{435, 165}";
},
{
name = top;
position = "{435, 686}";
}
);
layerId = "8D1DA624-BCA2-432D-8EAC-BD2525041625";
paths = (
{
closed = 1;
nodes = (
"766 183 LINE",
"741 183 LINE",
"741 22 LINE",
"179 22 LINE SMOOTH",
"166 22 OFFCURVE",
"155 18 OFFCURVE",
"150 18 CURVE",
"150 18 LINE",
"155 21 OFFCURVE",
"165 24 OFFCURVE",
"174 32 CURVE SMOOTH",
"762 507 LINE",
"762 520 LINE",
"106 520 LINE",
"106 336 LINE",
"131 336 LINE",
"131 497 LINE",
"689 497 LINE SMOOTH",
"705 497 OFFCURVE",
"718 500 OFFCURVE",
"722 501 CURVE",
"722 500 LINE",
"718 499 OFFCURVE",
"707 493 OFFCURVE",
"695 484 CURVE SMOOTH",
"109 12 LINE",
"109 -1 LINE",
"766 -1 LINE"
);
}
);
userData = {
com.typemytype.robofont.layerData = {
bkgd = {
anchors = (
);
components = (
);
contours = (
);
lib = {
};
name = Z;
unicodes = (
);
width = 866;
};
mask = {
anchors = (
);
components = (
);
contours = (
);
lib = {
};
name = Z;
unicodes = (
);
width = 866;
};
};
};
width = 866;
}
);
unicode = 005A;
},
{
glyphname = Zacute;
layers = (
{
anchors = (
{
name = bottom;
position = "{435, 165}";
},
{
name = top;
position = "{435, 686}";
}
);
layerId = "8D1DA624-BCA2-432D-8EAC-BD2525041625";
paths = (
{
closed = 1;
nodes = (
"766 183 LINE",
"741 183 LINE",
"741 22 LINE",
"179 22 LINE SMOOTH",
"166 22 OFFCURVE",
"155 18 OFFCURVE",
"150 18 CURVE",
"150 18 LINE",
"155 21 OFFCURVE",
"165 24 OFFCURVE",
"174 32 CURVE SMOOTH",
"762 507 LINE",
"762 520 LINE",
"106 520 LINE",
"106 336 LINE",
"131 336 LINE",
"131 497 LINE",
"689 497 LINE SMOOTH",
"705 497 OFFCURVE",
"718 500 OFFCURVE",
"722 501 CURVE",
"722 500 LINE",
"718 499 OFFCURVE",
"707 493 OFFCURVE",
"695 484 CURVE SMOOTH",
"109 12 LINE",
"109 -1 LINE",
"766 -1 LINE"
);
},
{
closed = 1;
nodes = (
"618 715 LINE",
"376 585 LINE",
"367 601 LINE",
"603 742 LINE"
);
}
);
userData = {
com.typemytype.robofont.layerData = {
bkgd = {
anchors = (
);
components = (
);
contours = (
);
lib = {
};
name = Zacute;
unicodes = (
);
width = 866;
};
mask = {
anchors = (
);
components = (
);
contours = (
);
lib = {
};
name = Zacute;
unicodes = (
);
width = 866;
};
};
};
width = 866;
}
);
unicode = 0179;
},
{
glyphname = Zcaron;
layers = (
{
anchors = (
{
name = bottom;
position = "{435, 165}";
},
{
name = top;
position = "{435, 686}";
}
);
layerId = "8D1DA624-BCA2-432D-8EAC-BD2525041625";
paths = (
{
closed = 1;
nodes = (
"766 183 LINE",
"741 183 LINE",
"741 22 LINE",
"179 22 LINE SMOOTH",
"166 22 OFFCURVE",
"155 18 OFFCURVE",
"150 18 CURVE",
"150 18 LINE",
"155 21 OFFCURVE",
"165 24 OFFCURVE",
"174 32 CURVE SMOOTH",
"762 507 LINE",
"762 520 LINE",
"106 520 LINE",
"106 336 LINE",
"131 336 LINE",
"131 497 LINE",
"689 497 LINE SMOOTH",
"705 497 OFFCURVE",
"718 500 OFFCURVE",
"722 501 CURVE",
"722 500 LINE",
"718 499 OFFCURVE",
"707 493 OFFCURVE",
"695 484 CURVE SMOOTH",
"109 12 LINE",
"109 -1 LINE",
"766 -1 LINE"
);
},
{
closed = 1;
nodes = (
"269 744 LINE",
"258 731 LINE",
"426 589 LINE",
"445 589 LINE",
"613 731 LINE",
"603 744 LINE",
"435 617 LINE"
);
}
);
userData = {
com.typemytype.robofont.layerData = {
bkgd = {
anchors = (
);
components = (
);
contours = (
);
lib = {
};
name = Zcaron;
unicodes = (
);
width = 866;
};
mask = {
anchors = (
);
components = (
);
contours = (
);
lib = {
};
name = Zcaron;
unicodes = (
);
width = 866;
};
};
};
width = 866;
}
);
unicode = 017D;
},
{
glyphname = Zdotaccent;
layers = (
{
anchors = (
{
name = bottom;
position = "{435, 165}";
},
{
name = top;
position = "{435, 686}";
}
);
layerId = "8D1DA624-BCA2-432D-8EAC-BD2525041625";
paths = (
{
closed = 1;
nodes = (
"766 183 LINE",
"741 183 LINE",
"741 22 LINE",
"179 22 LINE SMOOTH",
"166 22 OFFCURVE",
"155 18 OFFCURVE",
"150 18 CURVE",
"150 18 LINE",
"155 21 OFFCURVE",
"165 24 OFFCURVE",
"174 32 CURVE SMOOTH",
"762 507 LINE",
"762 520 LINE",
"106 520 LINE",
"106 336 LINE",
"131 336 LINE",
"131 497 LINE",
"689 497 LINE SMOOTH",
"705 497 OFFCURVE",
"718 500 OFFCURVE",
"722 501 CURVE",
"722 500 LINE",
"718 499 OFFCURVE",
"707 493 OFFCURVE",
"695 484 CURVE SMOOTH",
"109 12 LINE",
"109 -1 LINE",
"766 -1 LINE"
);
},
{
closed = 1;
nodes = (
"483 647 OFFCURVE",
"483 664 CURVE",
"483 682 OFFCURVE",
"467 695 OFFCURVE",
"435 695 CURVE",
"406 695 OFFCURVE",
"389 682 OFFCURVE",
"389 664 CURVE",
"389 647 OFFCURVE",
"406 634 OFFCURVE",
"435 634 CURVE",
"467 634 OFFCURVE"
);
}
);
userData = {
com.typemytype.robofont.layerData = {
bkgd = {
anchors = (
);
components = (
);
contours = (
);
lib = {
};
name = Zdotaccent;
unicodes = (
);
width = 866;
};
mask = {
anchors = (
);
components = (
);
contours = (
);
lib = {
};
name = Zdotaccent;
unicodes = (
);
width = 866;
};
};
};
width = 866;
}
);
unicode = 017B;
},
{
glyphname = A.alt;
layers = (
{
anchors = (
{
name = bottom;
position = "{515, 165}";
},
{
name = hook;
position = "{605, 751}";
},
{
name = ogonek;
position = "{1033, 165}";
},
{
name = top;
position = "{513, 686}";
}
);
layerId = "8D1DA624-BCA2-432D-8EAC-BD2525041625";
paths = (
{
closed = 1;
nodes = (
"156 12 LINE",
"185 12 LINE",
"523 502 LINE",
"511 502 LINE",
"847 12 LINE",
"877 12 LINE",
"520 531 LINE",
"513 531 LINE"
);
},
{
closed = 1;
nodes = (
"1031 22 LINE",
"693 22 LINE",
"693 -1 LINE",
"1031 -1 LINE"
);
},
{
closed = 1;
nodes = (
"337 22 LINE",
"0 22 LINE",
"0 -1 LINE",
"337 -1 LINE"
);
},
{
closed = 1;
nodes = (
"310 205 LINE",
"291 183 LINE",
"738 183 LINE",
"724 205 LINE"
);
}
);
userData = {
com.typemytype.robofont.layerData = {
bkgd = {
anchors = (
);
components = (
);
contours = (
);
lib = {
};
name = A.alt;
unicodes = (
);
width = 1031;
};
mask = {
anchors = (
);
components = (
);
contours = (
);
lib = {
};
name = A.alt;
unicodes = (
);
width = 1031;
};
};
};
width = 1031;
}
);
},
{
glyphname = Aacute.alt;
layers = (
{
anchors = (
{
name = bottom;
position = "{515, 165}";
},
{
name = hook;
position = "{605, 751}";
},
{
name = ogonek;
position = "{1033, 165}";
},
{
name = top;
position = "{513, 686}";
}
);
layerId = "8D1DA624-BCA2-432D-8EAC-BD2525041625";
paths = (
{
closed = 1;
nodes = (
"156 12 LINE",
"185 12 LINE",
"523 502 LINE",
"511 502 LINE",
"847 12 LINE",
"877 12 LINE",
"520 531 LINE",
"513 531 LINE"
);
},
{
closed = 1;
nodes = (
"1031 22 LINE",
"693 22 LINE",
"693 -1 LINE",
"1031 -1 LINE"
);
},
{
closed = 1;
nodes = (
"337 22 LINE",
"0 22 LINE",
"0 -1 LINE",
"337 -1 LINE"
);
},
{
closed = 1;
nodes = (
"310 205 LINE",
"291 183 LINE",
"738 183 LINE",
"724 205 LINE"
);
},
{
closed = 1;
nodes = (
"695 715 LINE",
"454 585 LINE",
"445 601 LINE",
"680 742 LINE"
);
}
);
userData = {
com.typemytype.robofont.layerData = {
bkgd = {
anchors = (
);
components = (
);
contours = (
);
lib = {
};
name = Aacute.alt;
unicodes = (
);
width = 1031;
};
mask = {
anchors = (
);
components = (
);
contours = (
);
lib = {
};
name = Aacute.alt;
unicodes = (
);
width = 1031;
};
};
};
width = 1031;
}
);
},
{
glyphname = Abreve.alt;
layers = (
{
anchors = (
{
name = bottom;
position = "{515, 165}";
},
{
name = hook;
position = "{605, 751}";
},
{
name = ogonek;
position = "{1033, 165}";
},
{
name = top;
position = "{513, 686}";
}
);
layerId = "8D1DA624-BCA2-432D-8EAC-BD2525041625";
paths = (
{
closed = 1;
nodes = (
"156 12 LINE",
"185 12 LINE",
"523 502 LINE",
"511 502 LINE",
"847 12 LINE",
"877 12 LINE",
"520 531 LINE",
"513 531 LINE"
);
},
{
closed = 1;
nodes = (
"1031 22 LINE",
"693 22 LINE",
"693 -1 LINE",
"1031 -1 LINE"
);
},
{
closed = 1;
nodes = (
"337 22 LINE",
"0 22 LINE",
"0 -1 LINE",
"337 -1 LINE"
);
},
{
closed = 1;
nodes = (
"310 205 LINE",
"291 183 LINE",
"738 183 LINE",
"724 205 LINE"
);
},
{
closed = 1;
nodes = (
"671 680 OFFCURVE",
"686 750 CURVE",
"667 756 LINE",
"646 685 OFFCURVE",
"587 632 OFFCURVE",
"514 632 CURVE",
"441 632 OFFCURVE",
"379 685 OFFCURVE",
"359 756 CURVE",
"339 750 LINE",
"354 680 OFFCURVE",
"416 609 OFFCURVE",
"513 609 CURVE",
"610 609 OFFCURVE"
);
}
);
userData = {
com.typemytype.robofont.layerData = {
bkgd = {
anchors = (
);
components = (
);
contours = (
);
lib = {
};
name = Abreve.alt;
unicodes = (
);
width = 1031;
};
mask = {
anchors = (
);
components = (
);
contours = (
);
lib = {
};
name = Abreve.alt;
unicodes = (
);
width = 1031;
};
};
};
width = 1031;
}
);
},
{
glyphname = Acircumflex.alt;
layers = (
{
anchors = (
{
name = bottom;
position = "{515, 165}";
},
{
name = hook;
position = "{605, 751}";
},
{
name = ogonek;
position = "{1033, 165}";
},
{
name = top;
position = "{513, 686}";
}
);
layerId = "8D1DA624-BCA2-432D-8EAC-BD2525041625";
paths = (
{
closed = 1;
nodes = (
"156 12 LINE",
"185 12 LINE",
"523 502 LINE",
"511 502 LINE",
"847 12 LINE",
"877 12 LINE",
"520 531 LINE",
"513 531 LINE"
);
},
{
closed = 1;
nodes = (
"1031 22 LINE",
"693 22 LINE",
"693 -1 LINE",
"1031 -1 LINE"
);
},
{
closed = 1;
nodes = (
"337 22 LINE",
"0 22 LINE",
"0 -1 LINE",
"337 -1 LINE"
);
},
{
closed = 1;
nodes = (
"310 205 LINE",
"291 183 LINE",
"738 183 LINE",
"724 205 LINE"
);
},
{
closed = 1;
nodes = (
"680 572 LINE",
"691 585 LINE",
"523 727 LINE",
"503 727 LINE",
"336 585 LINE",
"347 572 LINE",
"513 700 LINE"
);
}
);
userData = {
com.typemytype.robofont.layerData = {
bkgd = {
anchors = (
);
components = (
);
contours = (
);
lib = {
};
name = Acircumflex.alt;
unicodes = (
);
width = 1031;
};
mask = {
anchors = (
);
components = (
);
contours = (
);
lib = {
};
name = Acircumflex.alt;
unicodes = (
);
width = 1031;
};
};
};
width = 1031;
}
);
},
{
glyphname = Acircumflexhookabove.alt;
layers = (
{
anchors = (
{
name = bottom;
position = "{515, 165}";
},
{
name = hook;
position = "{605, 751}";
},
{
name = ogonek;
position = "{1033, 165}";
},
{
name = top;
position = "{513, 686}";
}
);
layerId = "8D1DA624-BCA2-432D-8EAC-BD2525041625";
paths = (
{
closed = 1;
nodes = (
"156 12 LINE",
"185 12 LINE",
"523 502 LINE",
"511 502 LINE",
"847 12 LINE",
"877 12 LINE",
"520 531 LINE",
"513 531 LINE"
);
},
{
closed = 1;
nodes = (
"1031 22 LINE",
"693 22 LINE",
"693 -1 LINE",
"1031 -1 LINE"
);
},
{
closed = 1;
nodes = (
"337 22 LINE",
"0 22 LINE",
"0 -1 LINE",
"337 -1 LINE"
);
},
{
closed = 1;
nodes = (
"310 205 LINE",
"291 183 LINE",
"738 183 LINE",
"724 205 LINE"
);
},
{
closed = 1;
nodes = (
"680 572 LINE",
"691 585 LINE",
"523 727 LINE",
"503 727 LINE",
"336 585 LINE",
"347 572 LINE",
"513 700 LINE"
);
},
{
closed = 1;
nodes = (
"713 704 OFFCURVE",
"736 732 OFFCURVE",
"736 769 CURVE SMOOTH",
"736 814 OFFCURVE",
"695 844 OFFCURVE",
"635 844 CURVE SMOOTH",
"585 844 OFFCURVE",
"546 824 OFFCURVE",
"518 804 CURVE",
"530 787 LINE",
"558 803 OFFCURVE",
"592 821 OFFCURVE",
"635 821 CURVE SMOOTH",
"682 821 OFFCURVE",
"711 798 OFFCURVE",
"711 766 CURVE SMOOTH",
"711 732 OFFCURVE",
"687 708 OFFCURVE",
"670 681 CURVE",
"680 672 LINE"
);
}
);
userData = {
com.typemytype.robofont.layerData = {
bkgd = {
anchors = (
);
components = (
);
contours = (
);
lib = {
};
name = Acircumflexhookabove.alt;
unicodes = (
);
width = 1031;
};
mask = {
anchors = (
);
components = (
);
contours = (
);
lib = {
};
name = Acircumflexhookabove.alt;
unicodes = (
);
width = 1031;
};
};
};
width = 1031;
}
);
},
{
glyphname = Adieresis.alt;
layers = (
{
anchors = (
{
name = bottom;
position = "{515, 165}";
},
{
name = hook;
position = "{605, 751}";
},
{
name = ogonek;
position = "{1033, 165}";
},
{
name = top;
position = "{513, 686}";
}
);
layerId = "8D1DA624-BCA2-432D-8EAC-BD2525041625";
paths = (
{
closed = 1;
nodes = (
"156 12 LINE",
"185 12 LINE",
"523 502 LINE",
"511 502 LINE",
"847 12 LINE",
"877 12 LINE",
"520 531 LINE",
"513 531 LINE"
);
},
{
closed = 1;
nodes = (
"1031 22 LINE",
"693 22 LINE",
"693 -1 LINE",
"1031 -1 LINE"
);
},
{
closed = 1;
nodes = (
"337 22 LINE",
"0 22 LINE",
"0 -1 LINE",
"337 -1 LINE"
);
},
{
closed = 1;
nodes = (
"310 205 LINE",
"291 183 LINE",
"738 183 LINE",
"724 205 LINE"
);
},
{
closed = 1;
nodes = (
"665 648 OFFCURVE",
"665 664 CURVE",
"665 681 OFFCURVE",
"650 693 OFFCURVE",
"620 693 CURVE",
"593 693 OFFCURVE",
"575 681 OFFCURVE",
"575 664 CURVE",
"575 648 OFFCURVE",
"593 635 OFFCURVE",
"620 635 CURVE",
"650 635 OFFCURVE"
);
},
{
closed = 1;
nodes = (
"443 648 OFFCURVE",
"443 664 CURVE",
"443 681 OFFCURVE",
"427 693 OFFCURVE",
"398 693 CURVE",
"369 693 OFFCURVE",
"353 681 OFFCURVE",
"353 664 CURVE",
"353 648 OFFCURVE",
"369 635 OFFCURVE",
"398 635 CURVE",
"427 635 OFFCURVE"
);
}
);
userData = {
com.typemytype.robofont.layerData = {
bkgd = {
anchors = (
);
components = (
);
contours = (
);
lib = {
};
name = Adieresis.alt;
unicodes = (
);
width = 1031;
};
mask = {
anchors = (
);
components = (
);
contours = (
);
lib = {
};
name = Adieresis.alt;
unicodes = (
);
width = 1031;
};
};
};
width = 1031;
}
);
},
{
glyphname = Agrave.alt;
layers = (
{
anchors = (
{
name = bottom;
position = "{515, 165}";
},
{
name = hook;
position = "{605, 751}";
},
{
name = ogonek;
position = "{1033, 165}";
},
{
name = top;
position = "{513, 686}";
}
);
layerId = "8D1DA624-BCA2-432D-8EAC-BD2525041625";
paths = (
{
closed = 1;
nodes = (
"156 12 LINE",
"185 12 LINE",
"523 502 LINE",
"511 502 LINE",
"847 12 LINE",
"877 12 LINE",
"520 531 LINE",
"513 531 LINE"
);
},
{
closed = 1;
nodes = (
"1031 22 LINE",
"693 22 LINE",
"693 -1 LINE",
"1031 -1 LINE"
);
},
{
closed = 1;
nodes = (
"337 22 LINE",
"0 22 LINE",
"0 -1 LINE",
"337 -1 LINE"
);
},
{
closed = 1;
nodes = (
"310 205 LINE",
"291 183 LINE",
"738 183 LINE",
"724 205 LINE"
);
},
{
closed = 1;
nodes = (
"331 715 LINE",
"346 742 LINE",
"581 601 LINE",
"572 585 LINE"
);
}
);
userData = {
com.typemytype.robofont.layerData = {
bkgd = {
anchors = (
);
components = (
);
contours = (
);
lib = {
};
name = Agrave.alt;
unicodes = (
);
width = 1031;
};
mask = {
anchors = (
);
components = (
);
contours = (
);
lib = {
};
name = Agrave.alt;
unicodes = (
);
width = 1031;
};
};
};
width = 1031;
}
);
},
{
glyphname = Amacron.alt;
layers = (
{
anchors = (
{
name = bottom;
position = "{515, 165}";
},
{
name = hook;
position = "{605, 751}";
},
{
name = ogonek;
position = "{1033, 165}";
},
{
name = top;
position = "{513, 686}";
}
);
layerId = "8D1DA624-BCA2-432D-8EAC-BD2525041625";
paths = (
{
closed = 1;
nodes = (
"156 12 LINE",
"185 12 LINE",
"523 502 LINE",
"511 502 LINE",
"847 12 LINE",
"877 12 LINE",
"520 531 LINE",
"513 531 LINE"
);
},
{
closed = 1;
nodes = (
"1031 22 LINE",
"693 22 LINE",
"693 -1 LINE",
"1031 -1 LINE"
);
},
{
closed = 1;
nodes = (
"337 22 LINE",
"0 22 LINE",
"0 -1 LINE",
"337 -1 LINE"
);
},
{
closed = 1;
nodes = (
"310 205 LINE",
"291 183 LINE",
"738 183 LINE",
"724 205 LINE"
);
},
{
closed = 1;
nodes = (
"268 654 LINE",
"747 654 LINE",
"747 677 LINE",
"268 677 LINE"
);
}
);
userData = {
com.typemytype.robofont.layerData = {
bkgd = {
anchors = (
);
components = (
);
contours = (
);
lib = {
};
name = Amacron.alt;
unicodes = (
);
width = 1031;
};
mask = {
anchors = (
);
components = (
);
contours = (
);
lib = {
};
name = Amacron.alt;
unicodes = (
);
width = 1031;
};
};
};
width = 1031;
}
);
},
{
glyphname = Aogonek.alt;
layers = (
{
anchors = (
{
name = bottom;
position = "{515, 165}";
},
{
name = hook;
position = "{605, 751}";
},
{
name = ogonek;
position = "{1033, 165}";
},
{
name = top;
position = "{513, 686}";
}
);
layerId = "8D1DA624-BCA2-432D-8EAC-BD2525041625";
paths = (
{
closed = 1;
nodes = (
"156 12 LINE",
"185 12 LINE",
"523 502 LINE",
"511 502 LINE",
"847 12 LINE",
"877 12 LINE",
"520 531 LINE",
"513 531 LINE"
);
},
{
closed = 1;
nodes = (
"1031 22 LINE",
"693 22 LINE",
"693 -1 LINE",
"1031 -1 LINE"
);
},
{
closed = 1;
nodes = (
"337 22 LINE",
"0 22 LINE",
"0 -1 LINE",
"337 -1 LINE"
);
},
{
closed = 1;
nodes = (
"310 205 LINE",
"291 183 LINE",
"738 183 LINE",
"724 205 LINE"
);
},
{
closed = 1;
nodes = (
"961 -7 OFFCURVE",
"924 -43 OFFCURVE",
"924 -86 CURVE SMOOTH",
"924 -138 OFFCURVE",
"980 -169 OFFCURVE",
"1045 -169 CURVE SMOOTH",
"1100 -169 OFFCURVE",
"1140 -149 OFFCURVE",
"1169 -131 CURVE",
"1158 -111 LINE",
"1132 -128 OFFCURVE",
"1094 -146 OFFCURVE",
"1045 -146 CURVE SMOOTH",
"993 -146 OFFCURVE",
"949 -123 OFFCURVE",
"949 -83 CURVE SMOOTH",
"949 -43 OFFCURVE",
"986 -17 OFFCURVE",
"1033 -1 CURVE",
"1024 9 LINE"
);
}
);
userData = {
com.typemytype.robofont.layerData = {
bkgd = {
anchors = (
);
components = (
);
contours = (
);
lib = {
};
name = Aogonek.alt;
unicodes = (
);
width = 1031;
};
mask = {
anchors = (
);
components = (
);
contours = (
);
lib = {
};
name = Aogonek.alt;
unicodes = (
);
width = 1031;
};
};
};
width = 1031;
}
);
},
{
glyphname = Aring.alt;
layers = (
{
anchors = (
{
name = bottom;
position = "{515, 165}";
},
{
name = hook;
position = "{605, 751}";
},
{
name = ogonek;
position = "{1033, 165}";
},
{
name = top;
position = "{513, 686}";
}
);
layerId = "8D1DA624-BCA2-432D-8EAC-BD2525041625";
paths = (
{
closed = 1;
nodes = (
"156 12 LINE",
"185 12 LINE",
"523 502 LINE",
"511 502 LINE",
"847 12 LINE",
"877 12 LINE",
"520 531 LINE",
"513 531 LINE"
);
},
{
closed = 1;
nodes = (
"1031 22 LINE",
"693 22 LINE",
"693 -1 LINE",
"1031 -1 LINE"
);
},
{
closed = 1;
nodes = (
"337 22 LINE",
"0 22 LINE",
"0 -1 LINE",
"337 -1 LINE"
);
},
{
closed = 1;
nodes = (
"310 205 LINE",
"291 183 LINE",
"738 183 LINE",
"724 205 LINE"
);
},
{
closed = 1;
nodes = (
"648 661 OFFCURVE",
"648 721 CURVE",
"648 784 OFFCURVE",
"592 826 OFFCURVE",
"513 826 CURVE",
"438 826 OFFCURVE",
"376 784 OFFCURVE",
"376 721 CURVE",
"376 661 OFFCURVE",
"438 615 OFFCURVE",
"513 615 CURVE",
"592 615 OFFCURVE"
);
},
{
closed = 1;
nodes = (
"400 675 OFFCURVE",
"400 721 CURVE",
"400 769 OFFCURVE",
"448 804 OFFCURVE",
"513 804 CURVE",
"581 804 OFFCURVE",
"625 769 OFFCURVE",
"625 721 CURVE",
"625 675 OFFCURVE",
"581 636 OFFCURVE",
"513 636 CURVE",
"448 636 OFFCURVE"
);
}
);
userData = {
com.typemytype.robofont.layerData = {
bkgd = {
anchors = (
);
components = (
);
contours = (
);
lib = {
};
name = Aring.alt;
unicodes = (
);
width = 1031;
};
mask = {
anchors = (
);
components = (
);
contours = (
);
lib = {
};
name = Aring.alt;
unicodes = (
);
width = 1031;
};
};
};
width = 1031;
}
);
},
{
glyphname = Atilde.alt;
layers = (
{
anchors = (
{
name = bottom;
position = "{515, 165}";
},
{
name = hook;
position = "{605, 751}";
},
{
name = ogonek;
position = "{1033, 165}";
},
{
name = top;
position = "{513, 686}";
}
);
layerId = "8D1DA624-BCA2-432D-8EAC-BD2525041625";
paths = (
{
closed = 1;
nodes = (
"156 12 LINE",
"185 12 LINE",
"523 502 LINE",
"511 502 LINE",
"847 12 LINE",
"877 12 LINE",
"520 531 LINE",
"513 531 LINE"
);
},
{
closed = 1;
nodes = (
"1031 22 LINE",
"693 22 LINE",
"693 -1 LINE",
"1031 -1 LINE"
);
},
{
closed = 1;
nodes = (
"337 22 LINE",
"0 22 LINE",
"0 -1 LINE",
"337 -1 LINE"
);
},
{
closed = 1;
nodes = (
"310 205 LINE",
"291 183 LINE",
"738 183 LINE",
"724 205 LINE"
);
},
{
closed = 1;
nodes = (
"705 672 OFFCURVE",
"716 740 CURVE",
"695 743 LINE",
"683 676 OFFCURVE",
"648 649 OFFCURVE",
"611 649 CURVE SMOOTH",
"577 649 OFFCURVE",
"546 670 OFFCURVE",
"513 693 CURVE SMOOTH",
"478 717 OFFCURVE",
"445 743 OFFCURVE",
"400 743 CURVE SMOOTH",
"340 743 OFFCURVE",
"302 697 OFFCURVE",
"291 629 CURVE",
"312 625 LINE",
"323 693 OFFCURVE",
"358 721 OFFCURVE",
"397 721 CURVE SMOOTH",
"432 721 OFFCURVE",
"462 700 OFFCURVE",
"494 677 CURVE SMOOTH",
"529 652 OFFCURVE",
"564 626 OFFCURVE",
"608 626 CURVE SMOOTH",
"667 626 OFFCURVE"
);
}
);
userData = {
com.typemytype.robofont.layerData = {
bkgd = {
anchors = (
);
components = (
);
contours = (
);
lib = {
};
name = Atilde.alt;
unicodes = (
);
width = 1031;
};
mask = {
anchors = (
);
components = (
);
contours = (
);
lib = {
};
name = Atilde.alt;
unicodes = (
);
width = 1031;
};
};
};
width = 1031;
}
);
},
{
color = 4;
glyphname = G.alt;
layers = (
{
anchors = (
{
name = bottom;
position = "{441, 155}";
},
{
name = top;
position = "{441, 697}";
}
);
layerId = "8D1DA624-BCA2-432D-8EAC-BD2525041625";
paths = (
{
closed = 1;
nodes = (
"812 105 OFFCURVE",
"812 251 CURVE SMOOTH",
"812 254 LINE",
"437 254 LINE",
"437 230 LINE",
"787 230 LINE",
"774 117 OFFCURVE",
"659 12 OFFCURVE",
"437 12 CURVE SMOOTH",
"255 12 OFFCURVE",
"106 106 OFFCURVE",
"106 259 CURVE SMOOTH",
"106 414 OFFCURVE",
"260 507 OFFCURVE",
"445 507 CURVE SMOOTH",
"584 507 OFFCURVE",
"701 461 OFFCURVE",
"792 330 CURVE",
"803 331 LINE",
"803 520 LINE",
"780 520 LINE",
"780 360 LINE",
"792 360 LINE",
"722 461 OFFCURVE",
"607 531 OFFCURVE",
"445 531 CURVE SMOOTH",
"252 531 OFFCURVE",
"81 431 OFFCURVE",
"81 259 CURVE SMOOTH",
"81 88 OFFCURVE",
"245 -11 OFFCURVE",
"437 -11 CURVE SMOOTH",
"666 -11 OFFCURVE"
);
}
);
userData = {
com.typemytype.robofont.layerData = {
bkgd = {
anchors = (
);
components = (
);
contours = (
);
lib = {
};
name = G.alt;
unicodes = (
);
width = 902;
};
mask = {
anchors = (
);
components = (
);
contours = (
);
lib = {
};
name = G.alt;
unicodes = (
);
width = 902;
};
};
};
width = 902;
}
);
},
{
glyphname = Gbreve.alt;
layers = (
{
anchors = (
{
name = bottom;
position = "{441, 155}";
},
{
name = top;
position = "{441, 697}";
}
);
layerId = "8D1DA624-BCA2-432D-8EAC-BD2525041625";
paths = (
{
closed = 1;
nodes = (
"812 105 OFFCURVE",
"812 251 CURVE SMOOTH",
"812 254 LINE",
"437 254 LINE",
"437 230 LINE",
"787 230 LINE",
"774 117 OFFCURVE",
"659 12 OFFCURVE",
"437 12 CURVE SMOOTH",
"255 12 OFFCURVE",
"106 106 OFFCURVE",
"106 259 CURVE SMOOTH",
"106 414 OFFCURVE",
"260 507 OFFCURVE",
"445 507 CURVE SMOOTH",
"584 507 OFFCURVE",
"701 461 OFFCURVE",
"792 330 CURVE",
"803 331 LINE",
"803 520 LINE",
"780 520 LINE",
"780 360 LINE",
"792 360 LINE",
"722 461 OFFCURVE",
"607 531 OFFCURVE",
"445 531 CURVE SMOOTH",
"252 531 OFFCURVE",
"81 431 OFFCURVE",
"81 259 CURVE SMOOTH",
"81 88 OFFCURVE",
"245 -11 OFFCURVE",
"437 -11 CURVE SMOOTH",
"666 -11 OFFCURVE"
);
},
{
closed = 1;
nodes = (
"599 691 OFFCURVE",
"614 761 CURVE",
"594 766 LINE",
"574 696 OFFCURVE",
"515 643 OFFCURVE",
"442 643 CURVE",
"369 643 OFFCURVE",
"307 696 OFFCURVE",
"287 766 CURVE",
"267 761 LINE",
"282 691 OFFCURVE",
"344 620 OFFCURVE",
"441 620 CURVE",
"538 620 OFFCURVE"
);
}
);
userData = {
com.typemytype.robofont.layerData = {
bkgd = {
anchors = (
);
components = (
);
contours = (
);
lib = {
};
name = Gbreve.alt;
unicodes = (
);
width = 902;
};
mask = {
anchors = (
);
components = (
);
contours = (
);
lib = {
};
name = Gbreve.alt;
unicodes = (
);
width = 902;
};
};
};
width = 902;
}
);
},
{
glyphname = Gcommaaccent.alt;
layers = (
{
anchors = (
{
name = bottom;
position = "{441, 155}";
},
{
name = top;
position = "{441, 697}";
}
);
layerId = "8D1DA624-BCA2-432D-8EAC-BD2525041625";
paths = (
{
closed = 1;
nodes = (
"812 105 OFFCURVE",
"812 251 CURVE SMOOTH",
"812 254 LINE",
"437 254 LINE",
"437 230 LINE",
"787 230 LINE",
"774 117 OFFCURVE",
"659 12 OFFCURVE",
"437 12 CURVE SMOOTH",
"255 12 OFFCURVE",
"106 106 OFFCURVE",
"106 259 CURVE SMOOTH",
"106 414 OFFCURVE",
"260 507 OFFCURVE",
"445 507 CURVE SMOOTH",
"584 507 OFFCURVE",
"701 461 OFFCURVE",
"792 330 CURVE",
"803 331 LINE",
"803 520 LINE",
"780 520 LINE",
"780 360 LINE",
"792 360 LINE",
"722 461 OFFCURVE",
"607 531 OFFCURVE",
"445 531 CURVE SMOOTH",
"252 531 OFFCURVE",
"81 431 OFFCURVE",
"81 259 CURVE SMOOTH",
"81 88 OFFCURVE",
"245 -11 OFFCURVE",
"437 -11 CURVE SMOOTH",
"666 -11 OFFCURVE"
);
},
{
closed = 1;
nodes = (
"470 -96 OFFCURVE",
"441 -96 CURVE SMOOTH",
"413 -96 OFFCURVE",
"396 -111 OFFCURVE",
"396 -128 CURVE SMOOTH",
"396 -145 OFFCURVE",
"413 -156 OFFCURVE",
"435 -156 CURVE SMOOTH",
"448 -156 OFFCURVE",
"459 -153 OFFCURVE",
"470 -152 CURVE",
"464 -196 OFFCURVE",
"431 -232 OFFCURVE",
"381 -277 CURVE",
"392 -289 LINE",
"454 -242 OFFCURVE",
"490 -187 OFFCURVE",
"490 -143 CURVE SMOOTH",
"490 -115 OFFCURVE"
);
}
);
userData = {
com.typemytype.robofont.layerData = {
bkgd = {
anchors = (
);
components = (
);
contours = (
);
lib = {
};
name = Gcommaaccent.alt;
unicodes = (
);
width = 902;
};
mask = {
anchors = (
);
components = (
);
contours = (
);
lib = {
};
name = Gcommaaccent.alt;
unicodes = (
);
width = 902;
};
};
};
width = 902;
}
);
},
{
glyphname = Gdotaccent.alt;
layers = (
{
anchors = (
{
name = bottom;
position = "{441, 155}";
},
{
name = top;
position = "{441, 697}";
}
);
layerId = "8D1DA624-BCA2-432D-8EAC-BD2525041625";
paths = (
{
closed = 1;
nodes = (
"812 105 OFFCURVE",
"812 251 CURVE SMOOTH",
"812 254 LINE",
"437 254 LINE",
"437 230 LINE",
"787 230 LINE",
"774 117 OFFCURVE",
"659 12 OFFCURVE",
"437 12 CURVE SMOOTH",
"255 12 OFFCURVE",
"106 106 OFFCURVE",
"106 259 CURVE SMOOTH",
"106 414 OFFCURVE",
"260 507 OFFCURVE",
"445 507 CURVE SMOOTH",
"584 507 OFFCURVE",
"701 461 OFFCURVE",
"792 330 CURVE",
"803 331 LINE",
"803 520 LINE",
"780 520 LINE",
"780 360 LINE",
"792 360 LINE",
"722 461 OFFCURVE",
"607 531 OFFCURVE",
"445 531 CURVE SMOOTH",
"252 531 OFFCURVE",
"81 431 OFFCURVE",
"81 259 CURVE SMOOTH",
"81 88 OFFCURVE",
"245 -11 OFFCURVE",
"437 -11 CURVE SMOOTH",
"666 -11 OFFCURVE"
);
},
{
closed = 1;
nodes = (
"489 658 OFFCURVE",
"489 675 CURVE",
"489 693 OFFCURVE",
"473 705 OFFCURVE",
"441 705 CURVE",
"411 705 OFFCURVE",
"394 693 OFFCURVE",
"394 675 CURVE",
"394 658 OFFCURVE",
"411 645 OFFCURVE",
"441 645 CURVE",
"473 645 OFFCURVE"
);
}
);
userData = {
com.typemytype.robofont.layerData = {
bkgd = {
anchors = (
);
components = (
);
contours = (
);
lib = {
};
name = Gdotaccent.alt;
unicodes = (
);
width = 902;
};
mask = {
anchors = (
);
components = (
);
contours = (
);
lib = {
};
name = Gdotaccent.alt;
unicodes = (
);
width = 902;
};
};
};
width = 902;
}
);
},
{
glyphname = W.bold;
layers = (
{
anchors = (
{
name = bottom;
position = "{630, 165}";
},
{
name = top;
position = "{637, 686}";
}
);
layerId = "8D1DA624-BCA2-432D-8EAC-BD2525041625";
paths = (
{
closed = 1;
nodes = (
"787 507 LINE",
"759 507 LINE",
"451 27 LINE",
"182 507 LINE",
"152 507 LINE",
"445 -11 LINE",
"451 -11 LINE"
);
},
{
closed = 1;
nodes = (
"319 520 LINE",
"-5 520 LINE",
"-5 499 LINE",
"319 499 LINE"
);
},
{
closed = 1;
nodes = (
"1108 507 LINE",
"1083 507 LINE",
"812 27 LINE",
"503 507 LINE",
"476 507 LINE",
"809 -11 LINE",
"816 -11 LINE"
);
},
{
closed = 1;
nodes = (
"864 520 LINE",
"393 520 LINE",
"393 499 LINE",
"864 499 LINE"
);
},
{
closed = 1;
nodes = (
"1265 520 LINE",
"942 520 LINE",
"942 499 LINE",
"1265 499 LINE"
);
}
);
userData = {
com.schriftgestaltung.Glyphs.lastChange = "2021-12-02 11:17:32 +0000";
com.typemytype.robofont.layerData = {
bkgd = {
anchors = (
);
components = (
);
contours = (
);
lib = {
};
name = W.bold;
unicodes = (
);
width = 1260;
};
mask = {
anchors = (
);
components = (
);
contours = (
);
lib = {
};
name = W.bold;
unicodes = (
);
width = 1260;
};
};
};
width = 1260;
}
);
},
{
glyphname = Q.swsh;
layers = (
{
anchors = (
{
name = bottom;
position = "{458, 155}";
},
{
name = top;
position = "{458, 697}";
}
);
layerId = "8D1DA624-BCA2-432D-8EAC-BD2525041625";
paths = (
{
closed = 1;
nodes = (
"1465 -229 OFFCURVE",
"1531 -186 CURVE",
"1519 -167 LINE",
"1458 -208 OFFCURVE",
"1361 -259 OFFCURVE",
"1221 -259 CURVE SMOOTH",
"1052 -259 OFFCURVE",
"920 -178 OFFCURVE",
"724 18 CURVE SMOOTH",
"559 184 OFFCURVE",
"435 265 OFFCURVE",
"185 265 CURVE SMOOTH",
"89 265 LINE",
"89 241 LINE",
"185 241 LINE SMOOTH",
"413 241 OFFCURVE",
"534 173 OFFCURVE",
"688 18 CURVE SMOOTH",
"891 -187 OFFCURVE",
"1030 -283 OFFCURVE",
"1221 -283 CURVE SMOOTH",
"1365 -283 OFFCURVE"
);
},
{
closed = 1;
nodes = (
"844 88 OFFCURVE",
"844 259 CURVE",
"844 431 OFFCURVE",
"676 531 OFFCURVE",
"460 531 CURVE",
"242 531 OFFCURVE",
"75 431 OFFCURVE",
"75 259 CURVE",
"75 88 OFFCURVE",
"242 -11 OFFCURVE",
"460 -11 CURVE",
"676 -11 OFFCURVE"
);
},
{
closed = 1;
nodes = (
"100 105 OFFCURVE",
"100 259 CURVE",
"100 414 OFFCURVE",
"252 507 OFFCURVE",
"460 507 CURVE",
"666 507 OFFCURVE",
"819 414 OFFCURVE",
"819 259 CURVE",
"819 105 OFFCURVE",
"666 12 OFFCURVE",
"460 12 CURVE",
"252 12 OFFCURVE"
);
}
);
userData = {
com.typemytype.robofont.layerData = {
bkgd = {
anchors = (
);
components = (
);
contours = (
);
lib = {
};
name = Q.swsh;
unicodes = (
);
width = 913;
};
mask = {
anchors = (
);
components = (
);
contours = (
);
lib = {
};
name = Q.swsh;
unicodes = (
);
width = 913;
};
};
};
width = 913;
}
);
},
{
glyphname = R.swsh;
layers = (
{
anchors = (
{
name = bottom;
position = "{547, 165}";
},
{
name = top;
position = "{509, 686}";
}
);
layerId = "8D1DA624-BCA2-432D-8EAC-BD2525041625";
paths = (
{
closed = 1;
nodes = (
"1513 -216 OFFCURVE",
"1571 -178 CURVE",
"1560 -158 LINE",
"1506 -194 OFFCURVE",
"1414 -259 OFFCURVE",
"1250 -259 CURVE SMOOTH",
"1055 -259 OFFCURVE",
"917 -145 OFFCURVE",
"797 12 CURVE SMOOTH",
"662 189 OFFCURVE",
"595 246 OFFCURVE",
"407 246 CURVE SMOOTH",
"252 246 LINE",
"252 233 LINE",
"404 233 LINE SMOOTH",
"568 233 OFFCURVE",
"629 186 OFFCURVE",
"764 10 CURVE SMOOTH",
"888 -149 OFFCURVE",
"1034 -283 OFFCURVE",
"1250 -283 CURVE SMOOTH",
"1418 -283 OFFCURVE"
);
},
{
closed = 1;
nodes = (
"446 22 LINE",
"56 22 LINE",
"56 -1 LINE",
"446 -1 LINE"
);
},
{
closed = 1;
nodes = (
"264 505 LINE",
"239 505 LINE",
"239 17 LINE",
"264 17 LINE"
);
},
{
closed = 1;
nodes = (
"758 233 OFFCURVE",
"817 303 OFFCURVE",
"817 378 CURVE SMOOTH",
"817 461 OFFCURVE",
"757 520 OFFCURVE",
"633 520 CURVE SMOOTH",
"56 520 LINE",
"56 496 LINE",
"633 496 LINE SMOOTH",
"743 496 OFFCURVE",
"792 446 OFFCURVE",
"792 378 CURVE SMOOTH",
"792 310 OFFCURVE",
"739 257 OFFCURVE",
"633 257 CURVE SMOOTH",
"259 257 LINE",
"259 233 LINE",
"633 233 LINE SMOOTH"
);
}
);
userData = {
com.typemytype.robofont.layerData = {
bkgd = {
anchors = (
);
components = (
);
contours = (
);
lib = {
};
name = R.swsh;
unicodes = (
);
width = 929;
};
mask = {
anchors = (
);
components = (
);
contours = (
);
lib = {
};
name = R.swsh;
unicodes = (
);
width = 929;
};
};
};
width = 929;
}
);
},
{
glyphname = Racute.swsh;
layers = (
{
anchors = (
{
name = bottom;
position = "{547, 165}";
},
{
name = top;
position = "{509, 686}";
}
);
layerId = "8D1DA624-BCA2-432D-8EAC-BD2525041625";
paths = (
{
closed = 1;
nodes = (
"1513 -216 OFFCURVE",
"1571 -178 CURVE",
"1560 -158 LINE",
"1506 -194 OFFCURVE",
"1414 -259 OFFCURVE",
"1250 -259 CURVE SMOOTH",
"1055 -259 OFFCURVE",
"917 -145 OFFCURVE",
"797 12 CURVE SMOOTH",
"662 189 OFFCURVE",
"595 246 OFFCURVE",
"407 246 CURVE SMOOTH",
"252 246 LINE",
"252 233 LINE",
"404 233 LINE SMOOTH",
"568 233 OFFCURVE",
"629 186 OFFCURVE",
"764 10 CURVE SMOOTH",
"888 -149 OFFCURVE",
"1034 -283 OFFCURVE",
"1250 -283 CURVE SMOOTH",
"1418 -283 OFFCURVE"
);
},
{
closed = 1;
nodes = (
"446 22 LINE",
"56 22 LINE",
"56 -1 LINE",
"446 -1 LINE"
);
},
{
closed = 1;
nodes = (
"264 505 LINE",
"239 505 LINE",
"239 17 LINE",
"264 17 LINE"
);
},
{
closed = 1;
nodes = (
"758 233 OFFCURVE",
"817 303 OFFCURVE",
"817 378 CURVE SMOOTH",
"817 461 OFFCURVE",
"757 520 OFFCURVE",
"633 520 CURVE SMOOTH",
"56 520 LINE",
"56 496 LINE",
"633 496 LINE SMOOTH",
"743 496 OFFCURVE",
"792 446 OFFCURVE",
"792 378 CURVE SMOOTH",
"792 310 OFFCURVE",
"739 257 OFFCURVE",
"633 257 CURVE SMOOTH",
"259 257 LINE",
"259 233 LINE",
"633 233 LINE SMOOTH"
);
},
{
closed = 1;
nodes = (
"692 715 LINE",
"450 585 LINE",
"441 601 LINE",
"676 742 LINE"
);
}
);
userData = {
com.typemytype.robofont.layerData = {
bkgd = {
anchors = (
);
components = (
);
contours = (
);
lib = {
};
name = Racute.swsh;
unicodes = (
);
width = 929;
};
mask = {
anchors = (
);
components = (
);
contours = (
);
lib = {
};
name = Racute.swsh;
unicodes = (
);
width = 929;
};
};
};
width = 929;
}
);
},
{
glyphname = Rcaron.swsh;
layers = (
{
anchors = (
{
name = bottom;
position = "{547, 165}";
},
{
name = top;
position = "{509, 686}";
}
);
layerId = "8D1DA624-BCA2-432D-8EAC-BD2525041625";
paths = (
{
closed = 1;
nodes = (
"1513 -216 OFFCURVE",
"1571 -178 CURVE",
"1560 -158 LINE",
"1506 -194 OFFCURVE",
"1414 -259 OFFCURVE",
"1250 -259 CURVE SMOOTH",
"1055 -259 OFFCURVE",
"917 -145 OFFCURVE",
"797 12 CURVE SMOOTH",
"662 189 OFFCURVE",
"595 246 OFFCURVE",
"407 246 CURVE SMOOTH",
"252 246 LINE",
"252 233 LINE",
"404 233 LINE SMOOTH",
"568 233 OFFCURVE",
"629 186 OFFCURVE",
"764 10 CURVE SMOOTH",
"888 -149 OFFCURVE",
"1034 -283 OFFCURVE",
"1250 -283 CURVE SMOOTH",
"1418 -283 OFFCURVE"
);
},
{
closed = 1;
nodes = (
"446 22 LINE",
"56 22 LINE",
"56 -1 LINE",
"446 -1 LINE"
);
},
{
closed = 1;
nodes = (
"264 505 LINE",
"239 505 LINE",
"239 17 LINE",
"264 17 LINE"
);
},
{
closed = 1;
nodes = (
"758 233 OFFCURVE",
"817 303 OFFCURVE",
"817 378 CURVE SMOOTH",
"817 461 OFFCURVE",
"757 520 OFFCURVE",
"633 520 CURVE SMOOTH",
"56 520 LINE",
"56 496 LINE",
"633 496 LINE SMOOTH",
"743 496 OFFCURVE",
"792 446 OFFCURVE",
"792 378 CURVE SMOOTH",
"792 310 OFFCURVE",
"739 257 OFFCURVE",
"633 257 CURVE SMOOTH",
"259 257 LINE",
"259 233 LINE",
"633 233 LINE SMOOTH"
);
},
{
closed = 1;
nodes = (
"343 744 LINE",
"332 731 LINE",
"499 589 LINE",
"519 589 LINE",
"687 731 LINE",
"676 744 LINE",
"509 617 LINE"
);
}
);
userData = {
com.typemytype.robofont.layerData = {
bkgd = {
anchors = (
);
components = (
);
contours = (
);
lib = {
};
name = Rcaron.swsh;
unicodes = (
);
width = 929;
};
mask = {
anchors = (
);
components = (
);
contours = (
);
lib = {
};
name = Rcaron.swsh;
unicodes = (
);
width = 929;
};
};
};
width = 929;
}
);
},
{
glyphname = Rcommaaccent.swsh;
layers = (
{
anchors = (
{
name = bottom;
position = "{547, 165}";
},
{
name = top;
position = "{509, 686}";
}
);
layerId = "8D1DA624-BCA2-432D-8EAC-BD2525041625";
paths = (
{
closed = 1;
nodes = (
"1513 -216 OFFCURVE",
"1571 -178 CURVE",
"1560 -158 LINE",
"1506 -194 OFFCURVE",
"1414 -259 OFFCURVE",
"1250 -259 CURVE SMOOTH",
"1055 -259 OFFCURVE",
"917 -145 OFFCURVE",
"797 12 CURVE SMOOTH",
"662 189 OFFCURVE",
"595 246 OFFCURVE",
"407 246 CURVE SMOOTH",
"252 246 LINE",
"252 233 LINE",
"404 233 LINE SMOOTH",
"568 233 OFFCURVE",
"629 186 OFFCURVE",
"764 10 CURVE SMOOTH",
"888 -149 OFFCURVE",
"1034 -283 OFFCURVE",
"1250 -283 CURVE SMOOTH",
"1418 -283 OFFCURVE"
);
},
{
closed = 1;
nodes = (
"446 22 LINE",
"56 22 LINE",
"56 -1 LINE",
"446 -1 LINE"
);
},
{
closed = 1;
nodes = (
"264 505 LINE",
"239 505 LINE",
"239 17 LINE",
"264 17 LINE"
);
},
{
closed = 1;
nodes = (
"758 233 OFFCURVE",
"817 303 OFFCURVE",
"817 378 CURVE SMOOTH",
"817 461 OFFCURVE",
"757 520 OFFCURVE",
"633 520 CURVE SMOOTH",
"56 520 LINE",
"56 496 LINE",
"633 496 LINE SMOOTH",
"743 496 OFFCURVE",
"792 446 OFFCURVE",
"792 378 CURVE SMOOTH",
"792 310 OFFCURVE",
"739 257 OFFCURVE",
"633 257 CURVE SMOOTH",
"259 257 LINE",
"259 233 LINE",
"633 233 LINE SMOOTH"
);
},
{
closed = 1;
nodes = (
"577 -86 OFFCURVE",
"547 -86 CURVE SMOOTH",
"520 -86 OFFCURVE",
"502 -101 OFFCURVE",
"502 -118 CURVE SMOOTH",
"502 -135 OFFCURVE",
"519 -146 OFFCURVE",
"542 -146 CURVE SMOOTH",
"555 -146 OFFCURVE",
"565 -143 OFFCURVE",
"577 -142 CURVE",
"570 -186 OFFCURVE",
"537 -222 OFFCURVE",
"487 -267 CURVE",
"499 -279 LINE",
"560 -232 OFFCURVE",
"597 -177 OFFCURVE",
"597 -134 CURVE SMOOTH",
"597 -105 OFFCURVE"
);
}
);
userData = {
com.typemytype.robofont.layerData = {
bkgd = {
anchors = (
);
components = (
);
contours = (
);
lib = {
};
name = Rcommaaccent.swsh;
unicodes = (
);
width = 929;
};
mask = {
anchors = (
);
components = (
);
contours = (
);
lib = {
};
name = Rcommaaccent.swsh;
unicodes = (
);
width = 929;
};
};
};
width = 929;
}
);
},
{
glyphname = a;
layers = (
{
anchors = (
{
name = bottom;
position = "{287, 155}";
},
{
name = ogonek;
position = "{794, 184}";
},
{
name = top;
position = "{385, 532}";
}
);
layerId = "8D1DA624-BCA2-432D-8EAC-BD2525041625";
paths = (
{
closed = 1;
nodes = (
"771 0 OFFCURVE",
"794 18 CURVE",
"781 37 LINE",
"762 21 OFFCURVE",
"741 12 OFFCURVE",
"713 12 CURVE SMOOTH",
"680 12 OFFCURVE",
"649 37 OFFCURVE",
"649 92 CURVE SMOOTH",
"649 196 LINE SMOOTH",
"649 297 OFFCURVE",
"574 366 OFFCURVE",
"416 366 CURVE SMOOTH",
"316 366 OFFCURVE",
"214 346 OFFCURVE",
"105 309 CURVE",
"112 285 LINE",
"215 318 OFFCURVE",
"312 343 OFFCURVE",
"416 343 CURVE SMOOTH",
"561 343 OFFCURVE",
"624 281 OFFCURVE",
"624 196 CURVE",
"624 92 LINE",
"624 27 OFFCURVE",
"661 -11 OFFCURVE",
"712 -11 CURVE SMOOTH",
"743 -11 OFFCURVE"
);
},
{
closed = 1;
nodes = (
"526 18 OFFCURVE",
"635 75 CURVE",
"635 97 LINE",
"521 43 OFFCURVE",
"396 12 OFFCURVE",
"287 12 CURVE SMOOTH",
"177 12 OFFCURVE",
"116 42 OFFCURVE",
"116 94 CURVE SMOOTH",
"116 151 OFFCURVE",
"197 185 OFFCURVE",
"329 185 CURVE SMOOTH",
"443 185 OFFCURVE",
"550 170 OFFCURVE",
"635 152 CURVE",
"635 173 LINE",
"550 191 OFFCURVE",
"451 208 OFFCURVE",
"329 208 CURVE SMOOTH",
"181 208 OFFCURVE",
"90 167 OFFCURVE",
"90 93 CURVE SMOOTH",
"90 27 OFFCURVE",
"161 -11 OFFCURVE",
"287 -11 CURVE SMOOTH",
"398 -11 OFFCURVE"
);
}
);
userData = {
com.typemytype.robofont.layerData = {
bkgd = {
anchors = (
);
components = (
);
contours = (
);
lib = {
};
name = a;
unicodes = (
);
width = 807;
};
mask = {
anchors = (
);
components = (
);
contours = (
);
lib = {
};
name = a;
unicodes = (
);
width = 807;
};
};
};
width = 807;
}
);
unicode = 0061;
},
{
glyphname = aacute;
layers = (
{
anchors = (
{
name = bottom;
position = "{287, 155}";
},
{
name = ogonek;
position = "{794, 184}";
},
{
name = top;
position = "{385, 532}";
}
);
layerId = "8D1DA624-BCA2-432D-8EAC-BD2525041625";
paths = (
{
closed = 1;
nodes = (
"771 0 OFFCURVE",
"794 18 CURVE",
"781 37 LINE",
"762 21 OFFCURVE",
"741 12 OFFCURVE",
"713 12 CURVE SMOOTH",
"680 12 OFFCURVE",
"649 37 OFFCURVE",
"649 92 CURVE SMOOTH",
"649 196 LINE SMOOTH",
"649 297 OFFCURVE",
"574 366 OFFCURVE",
"416 366 CURVE SMOOTH",
"316 366 OFFCURVE",
"214 346 OFFCURVE",
"105 309 CURVE",
"112 285 LINE",
"215 318 OFFCURVE",
"312 343 OFFCURVE",
"416 343 CURVE SMOOTH",
"561 343 OFFCURVE",
"624 281 OFFCURVE",
"624 196 CURVE",
"624 92 LINE",
"624 27 OFFCURVE",
"661 -11 OFFCURVE",
"712 -11 CURVE SMOOTH",
"743 -11 OFFCURVE"
);
},
{
closed = 1;
nodes = (
"526 18 OFFCURVE",
"635 75 CURVE",
"635 97 LINE",
"521 43 OFFCURVE",
"396 12 OFFCURVE",
"287 12 CURVE SMOOTH",
"177 12 OFFCURVE",
"116 42 OFFCURVE",
"116 94 CURVE SMOOTH",
"116 151 OFFCURVE",
"197 185 OFFCURVE",
"329 185 CURVE SMOOTH",
"443 185 OFFCURVE",
"550 170 OFFCURVE",
"635 152 CURVE",
"635 173 LINE",
"550 191 OFFCURVE",
"451 208 OFFCURVE",
"329 208 CURVE SMOOTH",
"181 208 OFFCURVE",
"90 167 OFFCURVE",
"90 93 CURVE SMOOTH",
"90 27 OFFCURVE",
"161 -11 OFFCURVE",
"287 -11 CURVE SMOOTH",
"398 -11 OFFCURVE"
);
},
{
closed = 1;
nodes = (
"568 561 LINE",
"326 431 LINE",
"317 447 LINE",
"553 588 LINE"
);
}
);
userData = {
com.typemytype.robofont.layerData = {
bkgd = {
anchors = (
);
components = (
);
contours = (
);
lib = {
};
name = aacute;
unicodes = (
);
width = 807;
};
mask = {
anchors = (
);
components = (
);
contours = (
);
lib = {
};
name = aacute;
unicodes = (
);
width = 807;
};
};
};
width = 807;
}
);
unicode = 00E1;
},
{
glyphname = abreve;
layers = (
{
anchors = (
{
name = bottom;
position = "{287, 155}";
},
{
name = ogonek;
position = "{794, 184}";
},
{
name = top;
position = "{385, 532}";
}
);
layerId = "8D1DA624-BCA2-432D-8EAC-BD2525041625";
paths = (
{
closed = 1;
nodes = (
"771 0 OFFCURVE",
"794 18 CURVE",
"781 37 LINE",
"762 21 OFFCURVE",
"741 12 OFFCURVE",
"713 12 CURVE SMOOTH",
"680 12 OFFCURVE",
"649 37 OFFCURVE",
"649 92 CURVE SMOOTH",
"649 196 LINE SMOOTH",
"649 297 OFFCURVE",
"574 366 OFFCURVE",
"416 366 CURVE SMOOTH",
"316 366 OFFCURVE",
"214 346 OFFCURVE",
"105 309 CURVE",
"112 285 LINE",
"215 318 OFFCURVE",
"312 343 OFFCURVE",
"416 343 CURVE SMOOTH",
"561 343 OFFCURVE",
"624 281 OFFCURVE",
"624 196 CURVE",
"624 92 LINE",
"624 27 OFFCURVE",
"661 -11 OFFCURVE",
"712 -11 CURVE SMOOTH",
"743 -11 OFFCURVE"
);
},
{
closed = 1;
nodes = (
"526 18 OFFCURVE",
"635 75 CURVE",
"635 97 LINE",
"521 43 OFFCURVE",
"396 12 OFFCURVE",
"287 12 CURVE SMOOTH",
"177 12 OFFCURVE",
"116 42 OFFCURVE",
"116 94 CURVE SMOOTH",
"116 151 OFFCURVE",
"197 185 OFFCURVE",
"329 185 CURVE SMOOTH",
"443 185 OFFCURVE",
"550 170 OFFCURVE",
"635 152 CURVE",
"635 173 LINE",
"550 191 OFFCURVE",
"451 208 OFFCURVE",
"329 208 CURVE SMOOTH",
"181 208 OFFCURVE",
"90 167 OFFCURVE",
"90 93 CURVE SMOOTH",
"90 27 OFFCURVE",
"161 -11 OFFCURVE",
"287 -11 CURVE SMOOTH",
"398 -11 OFFCURVE"
);
},
{
closed = 1;
nodes = (
"543 527 OFFCURVE",
"559 597 CURVE",
"539 602 LINE",
"518 531 OFFCURVE",
"459 479 OFFCURVE",
"386 479 CURVE",
"313 479 OFFCURVE",
"252 531 OFFCURVE",
"232 602 CURVE",
"211 597 LINE",
"226 527 OFFCURVE",
"288 455 OFFCURVE",
"385 455 CURVE",
"483 455 OFFCURVE"
);
}
);
userData = {
com.typemytype.robofont.layerData = {
bkgd = {
anchors = (
);
components = (
);
contours = (
);
lib = {
};
name = abreve;
unicodes = (
);
width = 807;
};
mask = {
anchors = (
);
components = (
);
contours = (
);
lib = {
};
name = abreve;
unicodes = (
);
width = 807;
};
};
};
width = 807;
}
);
unicode = 0103;
},
{
glyphname = acircumflex;
layers = (
{
anchors = (
{
name = bottom;
position = "{287, 155}";
},
{
name = ogonek;
position = "{794, 184}";
},
{
name = top;
position = "{385, 532}";
}
);
layerId = "8D1DA624-BCA2-432D-8EAC-BD2525041625";
paths = (
{
closed = 1;
nodes = (
"771 0 OFFCURVE",
"794 18 CURVE",
"781 37 LINE",
"762 21 OFFCURVE",
"741 12 OFFCURVE",
"713 12 CURVE SMOOTH",
"680 12 OFFCURVE",
"649 37 OFFCURVE",
"649 92 CURVE SMOOTH",
"649 196 LINE SMOOTH",
"649 297 OFFCURVE",
"574 366 OFFCURVE",
"416 366 CURVE SMOOTH",
"316 366 OFFCURVE",
"214 346 OFFCURVE",
"105 309 CURVE",
"112 285 LINE",
"215 318 OFFCURVE",
"312 343 OFFCURVE",
"416 343 CURVE SMOOTH",
"561 343 OFFCURVE",
"624 281 OFFCURVE",
"624 196 CURVE",
"624 92 LINE",
"624 27 OFFCURVE",
"661 -11 OFFCURVE",
"712 -11 CURVE SMOOTH",
"743 -11 OFFCURVE"
);
},
{
closed = 1;
nodes = (
"526 18 OFFCURVE",
"635 75 CURVE",
"635 97 LINE",
"521 43 OFFCURVE",
"396 12 OFFCURVE",
"287 12 CURVE SMOOTH",
"177 12 OFFCURVE",
"116 42 OFFCURVE",
"116 94 CURVE SMOOTH",
"116 151 OFFCURVE",
"197 185 OFFCURVE",
"329 185 CURVE SMOOTH",
"443 185 OFFCURVE",
"550 170 OFFCURVE",
"635 152 CURVE",
"635 173 LINE",
"550 191 OFFCURVE",
"451 208 OFFCURVE",
"329 208 CURVE SMOOTH",
"181 208 OFFCURVE",
"90 167 OFFCURVE",
"90 93 CURVE SMOOTH",
"90 27 OFFCURVE",
"161 -11 OFFCURVE",
"287 -11 CURVE SMOOTH",
"398 -11 OFFCURVE"
);
},
{
closed = 1;
nodes = (
"553 419 LINE",
"563 432 LINE",
"395 574 LINE",
"375 574 LINE",
"208 432 LINE",
"219 419 LINE",
"385 547 LINE"
);
}
);
userData = {
com.typemytype.robofont.layerData = {
bkgd = {
anchors = (
);
components = (
);
contours = (
);
lib = {
};
name = acircumflex;
unicodes = (
);
width = 807;
};
mask = {
anchors = (
);
components = (
);
contours = (
);
lib = {
};
name = acircumflex;
unicodes = (
);
width = 807;
};
};
};
width = 807;
}
);
unicode = 00E2;
},
{
glyphname = adieresis;
layers = (
{
anchors = (
{
name = bottom;
position = "{287, 155}";
},
{
name = ogonek;
position = "{794, 184}";
},
{
name = top;
position = "{385, 532}";
}
);
layerId = "8D1DA624-BCA2-432D-8EAC-BD2525041625";
paths = (
{
closed = 1;
nodes = (
"771 0 OFFCURVE",
"794 18 CURVE",
"781 37 LINE",
"762 21 OFFCURVE",
"741 12 OFFCURVE",
"713 12 CURVE SMOOTH",
"680 12 OFFCURVE",
"649 37 OFFCURVE",
"649 92 CURVE SMOOTH",
"649 196 LINE SMOOTH",
"649 297 OFFCURVE",
"574 366 OFFCURVE",
"416 366 CURVE SMOOTH",
"316 366 OFFCURVE",
"214 346 OFFCURVE",
"105 309 CURVE",
"112 285 LINE",
"215 318 OFFCURVE",
"312 343 OFFCURVE",
"416 343 CURVE SMOOTH",
"561 343 OFFCURVE",
"624 281 OFFCURVE",
"624 196 CURVE",
"624 92 LINE",
"624 27 OFFCURVE",
"661 -11 OFFCURVE",
"712 -11 CURVE SMOOTH",
"743 -11 OFFCURVE"
);
},
{
closed = 1;
nodes = (
"526 18 OFFCURVE",
"635 75 CURVE",
"635 97 LINE",
"521 43 OFFCURVE",
"396 12 OFFCURVE",
"287 12 CURVE SMOOTH",
"177 12 OFFCURVE",
"116 42 OFFCURVE",
"116 94 CURVE SMOOTH",
"116 151 OFFCURVE",
"197 185 OFFCURVE",
"329 185 CURVE SMOOTH",
"443 185 OFFCURVE",
"550 170 OFFCURVE",
"635 152 CURVE",
"635 173 LINE",
"550 191 OFFCURVE",
"451 208 OFFCURVE",
"329 208 CURVE SMOOTH",
"181 208 OFFCURVE",
"90 167 OFFCURVE",
"90 93 CURVE SMOOTH",
"90 27 OFFCURVE",
"161 -11 OFFCURVE",
"287 -11 CURVE SMOOTH",
"398 -11 OFFCURVE"
);
},
{
closed = 1;
nodes = (
"537 494 OFFCURVE",
"537 511 CURVE",
"537 528 OFFCURVE",
"522 539 OFFCURVE",
"492 539 CURVE",
"465 539 OFFCURVE",
"448 528 OFFCURVE",
"448 511 CURVE",
"448 494 OFFCURVE",
"465 481 OFFCURVE",
"492 481 CURVE",
"522 481 OFFCURVE"
);
},
{
closed = 1;
nodes = (
"315 494 OFFCURVE",
"315 511 CURVE",
"315 528 OFFCURVE",
"299 539 OFFCURVE",
"271 539 CURVE",
"242 539 OFFCURVE",
"226 528 OFFCURVE",
"226 511 CURVE",
"226 494 OFFCURVE",
"242 481 OFFCURVE",
"271 481 CURVE",
"299 481 OFFCURVE"
);
}
);
userData = {
com.typemytype.robofont.layerData = {
bkgd = {
anchors = (
);
components = (
);
contours = (
);
lib = {
};
name = adieresis;
unicodes = (
);
width = 807;
};
mask = {
anchors = (
);
components = (
);
contours = (
);
lib = {
};
name = adieresis;
unicodes = (
);
width = 807;
};
};
};
width = 807;
}
);
unicode = 00E4;
},
{
glyphname = agrave;
layers = (
{
anchors = (
{
name = bottom;
position = "{287, 155}";
},
{
name = ogonek;
position = "{794, 184}";
},
{
name = top;
position = "{385, 532}";
}
);
layerId = "8D1DA624-BCA2-432D-8EAC-BD2525041625";
paths = (
{
closed = 1;
nodes = (
"771 0 OFFCURVE",
"794 18 CURVE",
"781 37 LINE",
"762 21 OFFCURVE",
"741 12 OFFCURVE",
"713 12 CURVE SMOOTH",
"680 12 OFFCURVE",
"649 37 OFFCURVE",
"649 92 CURVE SMOOTH",
"649 196 LINE SMOOTH",
"649 297 OFFCURVE",
"574 366 OFFCURVE",
"416 366 CURVE SMOOTH",
"316 366 OFFCURVE",
"214 346 OFFCURVE",
"105 309 CURVE",
"112 285 LINE",
"215 318 OFFCURVE",
"312 343 OFFCURVE",
"416 343 CURVE SMOOTH",
"561 343 OFFCURVE",
"624 281 OFFCURVE",
"624 196 CURVE",
"624 92 LINE",
"624 27 OFFCURVE",
"661 -11 OFFCURVE",
"712 -11 CURVE SMOOTH",
"743 -11 OFFCURVE"
);
},
{
closed = 1;
nodes = (
"526 18 OFFCURVE",
"635 75 CURVE",
"635 97 LINE",
"521 43 OFFCURVE",
"396 12 OFFCURVE",
"287 12 CURVE SMOOTH",
"177 12 OFFCURVE",
"116 42 OFFCURVE",
"116 94 CURVE SMOOTH",
"116 151 OFFCURVE",
"197 185 OFFCURVE",
"329 185 CURVE SMOOTH",
"443 185 OFFCURVE",
"550 170 OFFCURVE",
"635 152 CURVE",
"635 173 LINE",
"550 191 OFFCURVE",
"451 208 OFFCURVE",
"329 208 CURVE SMOOTH",
"181 208 OFFCURVE",
"90 167 OFFCURVE",
"90 93 CURVE SMOOTH",
"90 27 OFFCURVE",
"161 -11 OFFCURVE",
"287 -11 CURVE SMOOTH",
"398 -11 OFFCURVE"
);
},
{
closed = 1;
nodes = (
"203 561 LINE",
"218 588 LINE",
"454 447 LINE",
"445 431 LINE"
);
}
);
userData = {
com.typemytype.robofont.layerData = {
bkgd = {
anchors = (
);
components = (
);
contours = (
);
lib = {
};
name = agrave;
unicodes = (
);
width = 807;
};
mask = {
anchors = (
);
components = (
);
contours = (
);
lib = {
};
name = agrave;
unicodes = (
);
width = 807;
};
};
};
width = 807;
}
);
unicode = 00E0;
},
{
glyphname = amacron;
layers = (
{
anchors = (
{
name = bottom;
position = "{287, 155}";
},
{
name = ogonek;
position = "{794, 184}";
},
{
name = top;
position = "{385, 532}";
}
);
layerId = "8D1DA624-BCA2-432D-8EAC-BD2525041625";
paths = (
{
closed = 1;
nodes = (
"771 0 OFFCURVE",
"794 18 CURVE",
"781 37 LINE",
"762 21 OFFCURVE",
"741 12 OFFCURVE",
"713 12 CURVE SMOOTH",
"680 12 OFFCURVE",
"649 37 OFFCURVE",
"649 92 CURVE SMOOTH",
"649 196 LINE SMOOTH",
"649 297 OFFCURVE",
"574 366 OFFCURVE",
"416 366 CURVE SMOOTH",
"316 366 OFFCURVE",
"214 346 OFFCURVE",
"105 309 CURVE",
"112 285 LINE",
"215 318 OFFCURVE",
"312 343 OFFCURVE",
"416 343 CURVE SMOOTH",
"561 343 OFFCURVE",
"624 281 OFFCURVE",
"624 196 CURVE",
"624 92 LINE",
"624 27 OFFCURVE",
"661 -11 OFFCURVE",
"712 -11 CURVE SMOOTH",
"743 -11 OFFCURVE"
);
},
{
closed = 1;
nodes = (
"526 18 OFFCURVE",
"635 75 CURVE",
"635 97 LINE",
"521 43 OFFCURVE",
"396 12 OFFCURVE",
"287 12 CURVE SMOOTH",
"177 12 OFFCURVE",
"116 42 OFFCURVE",
"116 94 CURVE SMOOTH",
"116 151 OFFCURVE",
"197 185 OFFCURVE",
"329 185 CURVE SMOOTH",
"443 185 OFFCURVE",
"550 170 OFFCURVE",
"635 152 CURVE",
"635 173 LINE",
"550 191 OFFCURVE",
"451 208 OFFCURVE",
"329 208 CURVE SMOOTH",
"181 208 OFFCURVE",
"90 167 OFFCURVE",
"90 93 CURVE SMOOTH",
"90 27 OFFCURVE",
"161 -11 OFFCURVE",
"287 -11 CURVE SMOOTH",
"398 -11 OFFCURVE"
);
},
{
closed = 1;
nodes = (
"141 500 LINE",
"619 500 LINE",
"619 524 LINE",
"141 524 LINE"
);
}
);
userData = {
com.typemytype.robofont.layerData = {
bkgd = {
anchors = (
);
components = (
);
contours = (
);
lib = {
};
name = amacron;
unicodes = (
);
width = 807;
};
mask = {
anchors = (
);
components = (
);
contours = (
);
lib = {
};
name = amacron;
unicodes = (
);
width = 807;
};
};
};
width = 807;
}
);
unicode = 0101;
},
{
glyphname = aogonek;
layers = (
{
anchors = (
{
name = bottom;
position = "{287, 155}";
},
{
name = ogonek;
position = "{794, 184}";
},
{
name = top;
position = "{385, 532}";
}
);
layerId = "8D1DA624-BCA2-432D-8EAC-BD2525041625";
paths = (
{
closed = 1;
nodes = (
"771 0 OFFCURVE",
"794 18 CURVE",
"781 37 LINE",
"762 21 OFFCURVE",
"741 12 OFFCURVE",
"713 12 CURVE SMOOTH",
"680 12 OFFCURVE",
"649 37 OFFCURVE",
"649 92 CURVE SMOOTH",
"649 196 LINE SMOOTH",
"649 297 OFFCURVE",
"574 366 OFFCURVE",
"416 366 CURVE SMOOTH",
"316 366 OFFCURVE",
"214 346 OFFCURVE",
"105 309 CURVE",
"112 285 LINE",
"215 318 OFFCURVE",
"312 343 OFFCURVE",
"416 343 CURVE SMOOTH",
"561 343 OFFCURVE",
"624 281 OFFCURVE",
"624 196 CURVE",
"624 92 LINE",
"624 27 OFFCURVE",
"661 -11 OFFCURVE",
"712 -11 CURVE SMOOTH",
"743 -11 OFFCURVE"
);
},
{
closed = 1;
nodes = (
"526 18 OFFCURVE",
"635 75 CURVE",
"635 97 LINE",
"521 43 OFFCURVE",
"396 12 OFFCURVE",
"287 12 CURVE SMOOTH",
"177 12 OFFCURVE",
"116 42 OFFCURVE",
"116 94 CURVE SMOOTH",
"116 151 OFFCURVE",
"197 185 OFFCURVE",
"329 185 CURVE SMOOTH",
"443 185 OFFCURVE",
"550 170 OFFCURVE",
"635 152 CURVE",
"635 173 LINE",
"550 191 OFFCURVE",
"451 208 OFFCURVE",
"329 208 CURVE SMOOTH",
"181 208 OFFCURVE",
"90 167 OFFCURVE",
"90 93 CURVE SMOOTH",
"90 27 OFFCURVE",
"161 -11 OFFCURVE",
"287 -11 CURVE SMOOTH",
"398 -11 OFFCURVE"
);
},
{
closed = 1;
nodes = (
"723 12 OFFCURVE",
"686 -24 OFFCURVE",
"686 -67 CURVE SMOOTH",
"686 -119 OFFCURVE",
"741 -150 OFFCURVE",
"806 -150 CURVE SMOOTH",
"861 -150 OFFCURVE",
"901 -130 OFFCURVE",
"930 -112 CURVE",
"920 -92 LINE",
"893 -109 OFFCURVE",
"855 -127 OFFCURVE",
"806 -127 CURVE SMOOTH",
"755 -127 OFFCURVE",
"711 -104 OFFCURVE",
"711 -64 CURVE SMOOTH",
"711 -24 OFFCURVE",
"747 2 OFFCURVE",
"794 18 CURVE",
"786 28 LINE"
);
}
);
userData = {
com.typemytype.robofont.layerData = {
bkgd = {
anchors = (
);
components = (
);
contours = (
);
lib = {
};
name = aogonek;
unicodes = (
);
width = 807;
};
mask = {
anchors = (
);
components = (
);
contours = (
);
lib = {
};
name = aogonek;
unicodes = (
);
width = 807;
};
};
};
width = 807;
}
);
unicode = 0105;
},
